SplineFontDB: 3.2
FontName: XBFSonyFixed12x24
FullName: XBF Sony Fixed 12x24
FamilyName: XBF Sony Fixed 12x24
Weight: Book
Copyright: Copyright (c) 1987, 1988 Sony Corp.
UComments: "2022-3-11: Created with FontForge (http://fontforge.org)"
Version: 001.000
ItalicAngle: 0
UnderlinePosition: -100
UnderlineWidth: 50
Ascent: 917
Descent: 83
InvalidEm: 0
LayerCount: 2
Layer: 0 0 "Back" 1
Layer: 1 0 "Fore" 0
XUID: [1021 617 -118626092 8733103]
StyleMap: 0x0040
FSType: 0
OS2Version: 0
OS2_WeightWidthSlopeOnly: 0
OS2_UseTypoMetrics: 1
CreationTime: 1646981290
ModificationTime: 1646981290
PfmFamily: 48
TTFWeight: 400
TTFWidth: 5
LineGap: 0
VLineGap: 90
Panose: 2 0 6 9 0 0 0 0 0 0
OS2TypoAscent: 917
OS2TypoAOffset: 0
OS2TypoDescent: -83
OS2TypoDOffset: 0
OS2TypoLinegap: 0
OS2WinAscent: 917
OS2WinAOffset: 0
OS2WinDescent: 83
OS2WinDOffset: 0
HheadAscent: 917
HheadAOffset: 0
HheadDescent: -83
HheadDOffset: 0
OS2SubXSize: 650
OS2SubYSize: 700
OS2SubXOff: 0
OS2SubYOff: 140
OS2SupXSize: 650
OS2SupYSize: 700
OS2SupXOff: 0
OS2SupYOff: 480
OS2StrikeYSize: 49
OS2StrikeYPos: 258
OS2Vendor: 'PfEd'
MacStyle: 0
DEI: 91125
Encoding: UnicodeBmp
UnicodeInterp: none
NameList: AGL For New Fonts
DisplaySize: 24
AntiAlias: 1
FitToEm: 0
BeginChars: 65536 221

StartChar: C001
Encoding: 1 1 0
Width: 500
Flags: HW
LayerCount: 2
Back
Fore
SplineSet
208 875 m 1
 208 917 l 1
 250 917 l 1
 250 875 l 1
 208 875 l 1
208 833 m 1
 208 875 l 1
 250 875 l 1
 250 833 l 1
 208 833 l 1
167 792 m 1
 167 833 l 1
 292 833 l 1
 292 792 l 1
 167 792 l 1
167 750 m 1
 167 792 l 1
 292 792 l 1
 292 750 l 1
 167 750 l 1
125 708 m 1
 125 750 l 1
 333 750 l 1
 333 708 l 1
 125 708 l 1
125 667 m 1
 125 708 l 1
 333 708 l 1
 333 667 l 1
 125 667 l 1
83 625 m 1
 83 667 l 1
 375 667 l 1
 375 625 l 1
 83 625 l 1
83 583 m 1
 83 625 l 1
 375 625 l 1
 375 583 l 1
 83 583 l 1
42 542 m 1
 42 583 l 1
 417 583 l 1
 417 542 l 1
 42 542 l 1
42 500 m 1
 42 542 l 1
 417 542 l 1
 417 500 l 1
 42 500 l 1
0 458 m 1
 0 500 l 1
 458 500 l 1
 458 458 l 1
 0 458 l 1
42 417 m 1
 42 458 l 1
 417 458 l 1
 417 417 l 1
 42 417 l 1
42 375 m 1
 42 417 l 1
 417 417 l 1
 417 375 l 1
 42 375 l 1
83 333 m 1
 83 375 l 1
 375 375 l 1
 375 333 l 1
 83 333 l 1
83 292 m 1
 83 333 l 1
 375 333 l 1
 375 292 l 1
 83 292 l 1
125 250 m 1
 125 292 l 1
 333 292 l 1
 333 250 l 1
 125 250 l 1
125 208 m 1
 125 250 l 1
 333 250 l 1
 333 208 l 1
 125 208 l 1
167 167 m 1
 167 208 l 1
 292 208 l 1
 292 167 l 1
 167 167 l 1
167 125 m 1
 167 167 l 1
 292 167 l 1
 292 125 l 1
 167 125 l 1
208 83 m 1
 208 125 l 1
 250 125 l 1
 250 83 l 1
 208 83 l 1
208 42 m 1
 208 83 l 1
 250 83 l 1
 250 42 l 1
 208 42 l 1
EndSplineSet
EndChar

StartChar: C002
Encoding: 2 2 1
Width: 500
Flags: HW
LayerCount: 2
Back
Fore
SplineSet
0 875 m 1
 0 917 l 1
 83 917 l 1
 83 875 l 1
 0 875 l 1
208 875 m 1
 208 917 l 1
 292 917 l 1
 292 875 l 1
 208 875 l 1
417 875 m 1
 417 917 l 1
 500 917 l 1
 500 875 l 1
 417 875 l 1
0 833 m 1
 0 875 l 1
 83 875 l 1
 83 833 l 1
 0 833 l 1
208 833 m 1
 208 875 l 1
 292 875 l 1
 292 833 l 1
 208 833 l 1
417 833 m 1
 417 875 l 1
 500 875 l 1
 500 833 l 1
 417 833 l 1
0 792 m 1
 0 833 l 1
 83 833 l 1
 83 792 l 1
 0 792 l 1
208 792 m 1
 208 833 l 1
 292 833 l 1
 292 792 l 1
 208 792 l 1
417 792 m 1
 417 833 l 1
 500 833 l 1
 500 792 l 1
 417 792 l 1
83 750 m 1
 83 792 l 1
 167 792 l 1
 167 750 l 1
 83 750 l 1
333 750 m 1
 333 792 l 1
 417 792 l 1
 417 750 l 1
 333 750 l 1
83 708 m 1
 83 750 l 1
 167 750 l 1
 167 708 l 1
 83 708 l 1
333 708 m 1
 333 750 l 1
 417 750 l 1
 417 708 l 1
 333 708 l 1
83 667 m 1
 83 708 l 1
 167 708 l 1
 167 667 l 1
 83 667 l 1
333 667 m 1
 333 708 l 1
 417 708 l 1
 417 667 l 1
 333 667 l 1
0 625 m 1
 0 667 l 1
 83 667 l 1
 83 625 l 1
 0 625 l 1
208 625 m 1
 208 667 l 1
 292 667 l 1
 292 625 l 1
 208 625 l 1
417 625 m 1
 417 667 l 1
 500 667 l 1
 500 625 l 1
 417 625 l 1
0 583 m 1
 0 625 l 1
 83 625 l 1
 83 583 l 1
 0 583 l 1
208 583 m 1
 208 625 l 1
 292 625 l 1
 292 583 l 1
 208 583 l 1
417 583 m 1
 417 625 l 1
 500 625 l 1
 500 583 l 1
 417 583 l 1
0 542 m 1
 0 583 l 1
 83 583 l 1
 83 542 l 1
 0 542 l 1
208 542 m 1
 208 583 l 1
 292 583 l 1
 292 542 l 1
 208 542 l 1
417 542 m 1
 417 583 l 1
 500 583 l 1
 500 542 l 1
 417 542 l 1
83 500 m 1
 83 542 l 1
 167 542 l 1
 167 500 l 1
 83 500 l 1
333 500 m 1
 333 542 l 1
 417 542 l 1
 417 500 l 1
 333 500 l 1
83 458 m 1
 83 500 l 1
 167 500 l 1
 167 458 l 1
 83 458 l 1
333 458 m 1
 333 500 l 1
 417 500 l 1
 417 458 l 1
 333 458 l 1
83 417 m 1
 83 458 l 1
 167 458 l 1
 167 417 l 1
 83 417 l 1
333 417 m 1
 333 458 l 1
 417 458 l 1
 417 417 l 1
 333 417 l 1
0 375 m 1
 0 417 l 1
 83 417 l 1
 83 375 l 1
 0 375 l 1
208 375 m 1
 208 417 l 1
 292 417 l 1
 292 375 l 1
 208 375 l 1
417 375 m 1
 417 417 l 1
 500 417 l 1
 500 375 l 1
 417 375 l 1
0 333 m 1
 0 375 l 1
 83 375 l 1
 83 333 l 1
 0 333 l 1
208 333 m 1
 208 375 l 1
 292 375 l 1
 292 333 l 1
 208 333 l 1
417 333 m 1
 417 375 l 1
 500 375 l 1
 500 333 l 1
 417 333 l 1
0 292 m 1
 0 333 l 1
 83 333 l 1
 83 292 l 1
 0 292 l 1
208 292 m 1
 208 333 l 1
 292 333 l 1
 292 292 l 1
 208 292 l 1
417 292 m 1
 417 333 l 1
 500 333 l 1
 500 292 l 1
 417 292 l 1
83 250 m 1
 83 292 l 1
 167 292 l 1
 167 250 l 1
 83 250 l 1
333 250 m 1
 333 292 l 1
 417 292 l 1
 417 250 l 1
 333 250 l 1
83 208 m 1
 83 250 l 1
 167 250 l 1
 167 208 l 1
 83 208 l 1
333 208 m 1
 333 250 l 1
 417 250 l 1
 417 208 l 1
 333 208 l 1
83 167 m 1
 83 208 l 1
 167 208 l 1
 167 167 l 1
 83 167 l 1
333 167 m 1
 333 208 l 1
 417 208 l 1
 417 167 l 1
 333 167 l 1
0 125 m 1
 0 167 l 1
 83 167 l 1
 83 125 l 1
 0 125 l 1
208 125 m 1
 208 167 l 1
 292 167 l 1
 292 125 l 1
 208 125 l 1
417 125 m 1
 417 167 l 1
 500 167 l 1
 500 125 l 1
 417 125 l 1
0 83 m 1
 0 125 l 1
 83 125 l 1
 83 83 l 1
 0 83 l 1
208 83 m 1
 208 125 l 1
 292 125 l 1
 292 83 l 1
 208 83 l 1
417 83 m 1
 417 125 l 1
 500 125 l 1
 500 83 l 1
 417 83 l 1
0 42 m 1
 0 83 l 1
 83 83 l 1
 83 42 l 1
 0 42 l 1
208 42 m 1
 208 83 l 1
 292 83 l 1
 292 42 l 1
 208 42 l 1
417 42 m 1
 417 83 l 1
 500 83 l 1
 500 42 l 1
 417 42 l 1
EndSplineSet
EndChar

StartChar: C003
Encoding: 3 3 2
Width: 500
Flags: HW
LayerCount: 2
Back
Fore
SplineSet
0 792 m 1
 0 833 l 1
 83 833 l 1
 83 792 l 1
 0 792 l 1
208 792 m 1
 208 833 l 1
 292 833 l 1
 292 792 l 1
 208 792 l 1
0 750 m 1
 0 792 l 1
 83 792 l 1
 83 750 l 1
 0 750 l 1
208 750 m 1
 208 792 l 1
 292 792 l 1
 292 750 l 1
 208 750 l 1
0 708 m 1
 0 750 l 1
 83 750 l 1
 83 708 l 1
 0 708 l 1
208 708 m 1
 208 750 l 1
 292 750 l 1
 292 708 l 1
 208 708 l 1
0 667 m 1
 0 708 l 1
 83 708 l 1
 83 667 l 1
 0 667 l 1
208 667 m 1
 208 708 l 1
 292 708 l 1
 292 667 l 1
 208 667 l 1
0 625 m 1
 0 667 l 1
 292 667 l 1
 292 625 l 1
 0 625 l 1
0 583 m 1
 0 625 l 1
 83 625 l 1
 83 583 l 1
 0 583 l 1
208 583 m 1
 208 625 l 1
 292 625 l 1
 292 583 l 1
 208 583 l 1
0 542 m 1
 0 583 l 1
 83 583 l 1
 83 542 l 1
 0 542 l 1
208 542 m 1
 208 583 l 1
 292 583 l 1
 292 542 l 1
 208 542 l 1
0 500 m 1
 0 542 l 1
 83 542 l 1
 83 500 l 1
 0 500 l 1
208 500 m 1
 208 542 l 1
 292 542 l 1
 292 500 l 1
 208 500 l 1
0 458 m 1
 0 500 l 1
 83 500 l 1
 83 458 l 1
 0 458 l 1
208 458 m 1
 208 500 l 1
 292 500 l 1
 292 458 l 1
 208 458 l 1
83 333 m 1
 83 375 l 1
 417 375 l 1
 417 333 l 1
 83 333 l 1
208 292 m 1
 208 333 l 1
 292 333 l 1
 292 292 l 1
 208 292 l 1
208 250 m 1
 208 292 l 1
 292 292 l 1
 292 250 l 1
 208 250 l 1
208 208 m 1
 208 250 l 1
 292 250 l 1
 292 208 l 1
 208 208 l 1
208 167 m 1
 208 208 l 1
 292 208 l 1
 292 167 l 1
 208 167 l 1
208 125 m 1
 208 167 l 1
 292 167 l 1
 292 125 l 1
 208 125 l 1
208 83 m 1
 208 125 l 1
 292 125 l 1
 292 83 l 1
 208 83 l 1
208 42 m 1
 208 83 l 1
 292 83 l 1
 292 42 l 1
 208 42 l 1
EndSplineSet
EndChar

StartChar: C004
Encoding: 4 4 3
Width: 500
Flags: HW
LayerCount: 2
Back
Fore
SplineSet
0 792 m 1
 0 833 l 1
 292 833 l 1
 292 792 l 1
 0 792 l 1
0 750 m 1
 0 792 l 1
 83 792 l 1
 83 750 l 1
 0 750 l 1
0 708 m 1
 0 750 l 1
 83 750 l 1
 83 708 l 1
 0 708 l 1
0 667 m 1
 0 708 l 1
 83 708 l 1
 83 667 l 1
 0 667 l 1
0 625 m 1
 0 667 l 1
 250 667 l 1
 250 625 l 1
 0 625 l 1
0 583 m 1
 0 625 l 1
 83 625 l 1
 83 583 l 1
 0 583 l 1
0 542 m 1
 0 583 l 1
 83 583 l 1
 83 542 l 1
 0 542 l 1
0 500 m 1
 0 542 l 1
 83 542 l 1
 83 500 l 1
 0 500 l 1
0 458 m 1
 0 500 l 1
 83 500 l 1
 83 458 l 1
 0 458 l 1
125 375 m 1
 125 417 l 1
 417 417 l 1
 417 375 l 1
 125 375 l 1
125 333 m 1
 125 375 l 1
 208 375 l 1
 208 333 l 1
 125 333 l 1
125 292 m 1
 125 333 l 1
 208 333 l 1
 208 292 l 1
 125 292 l 1
125 250 m 1
 125 292 l 1
 208 292 l 1
 208 250 l 1
 125 250 l 1
125 208 m 1
 125 250 l 1
 375 250 l 1
 375 208 l 1
 125 208 l 1
125 167 m 1
 125 208 l 1
 208 208 l 1
 208 167 l 1
 125 167 l 1
125 125 m 1
 125 167 l 1
 208 167 l 1
 208 125 l 1
 125 125 l 1
125 83 m 1
 125 125 l 1
 208 125 l 1
 208 83 l 1
 125 83 l 1
125 42 m 1
 125 83 l 1
 208 83 l 1
 208 42 l 1
 125 42 l 1
EndSplineSet
EndChar

StartChar: C005
Encoding: 5 5 4
Width: 500
Flags: HW
LayerCount: 2
Back
Fore
SplineSet
83 792 m 1
 83 833 l 1
 250 833 l 1
 250 792 l 1
 83 792 l 1
42 750 m 1
 42 792 l 1
 125 792 l 1
 125 750 l 1
 42 750 l 1
208 750 m 1
 208 792 l 1
 292 792 l 1
 292 750 l 1
 208 750 l 1
0 708 m 1
 0 750 l 1
 83 750 l 1
 83 708 l 1
 0 708 l 1
208 708 m 1
 208 750 l 1
 292 750 l 1
 292 708 l 1
 208 708 l 1
0 667 m 1
 0 708 l 1
 83 708 l 1
 83 667 l 1
 0 667 l 1
0 625 m 1
 0 667 l 1
 83 667 l 1
 83 625 l 1
 0 625 l 1
0 583 m 1
 0 625 l 1
 83 625 l 1
 83 583 l 1
 0 583 l 1
0 542 m 1
 0 583 l 1
 83 583 l 1
 83 542 l 1
 0 542 l 1
42 500 m 1
 42 542 l 1
 125 542 l 1
 125 500 l 1
 42 500 l 1
208 500 m 1
 208 542 l 1
 292 542 l 1
 292 500 l 1
 208 500 l 1
83 458 m 1
 83 500 l 1
 250 500 l 1
 250 458 l 1
 83 458 l 1
125 375 m 1
 125 417 l 1
 375 417 l 1
 375 375 l 1
 125 375 l 1
125 333 m 1
 125 375 l 1
 208 375 l 1
 208 333 l 1
 125 333 l 1
333 333 m 1
 333 375 l 1
 417 375 l 1
 417 333 l 1
 333 333 l 1
125 292 m 1
 125 333 l 1
 208 333 l 1
 208 292 l 1
 125 292 l 1
333 292 m 1
 333 333 l 1
 417 333 l 1
 417 292 l 1
 333 292 l 1
125 250 m 1
 125 292 l 1
 208 292 l 1
 208 250 l 1
 125 250 l 1
333 250 m 1
 333 292 l 1
 417 292 l 1
 417 250 l 1
 333 250 l 1
125 208 m 1
 125 250 l 1
 375 250 l 1
 375 208 l 1
 125 208 l 1
125 167 m 1
 125 208 l 1
 208 208 l 1
 208 167 l 1
 125 167 l 1
292 167 m 1
 292 208 l 1
 333 208 l 1
 333 167 l 1
 292 167 l 1
125 125 m 1
 125 167 l 1
 208 167 l 1
 208 125 l 1
 125 125 l 1
292 125 m 1
 292 167 l 1
 375 167 l 1
 375 125 l 1
 292 125 l 1
125 83 m 1
 125 125 l 1
 208 125 l 1
 208 83 l 1
 125 83 l 1
333 83 m 1
 333 125 l 1
 417 125 l 1
 417 83 l 1
 333 83 l 1
125 42 m 1
 125 83 l 1
 208 83 l 1
 208 42 l 1
 125 42 l 1
333 42 m 1
 333 83 l 1
 417 83 l 1
 417 42 l 1
 333 42 l 1
EndSplineSet
EndChar

StartChar: C006
Encoding: 6 6 5
Width: 500
Flags: HW
LayerCount: 2
Back
Fore
SplineSet
0 792 m 1
 0 833 l 1
 83 833 l 1
 83 792 l 1
 0 792 l 1
0 750 m 1
 0 792 l 1
 83 792 l 1
 83 750 l 1
 0 750 l 1
0 708 m 1
 0 750 l 1
 83 750 l 1
 83 708 l 1
 0 708 l 1
0 667 m 1
 0 708 l 1
 83 708 l 1
 83 667 l 1
 0 667 l 1
0 625 m 1
 0 667 l 1
 83 667 l 1
 83 625 l 1
 0 625 l 1
0 583 m 1
 0 625 l 1
 83 625 l 1
 83 583 l 1
 0 583 l 1
0 542 m 1
 0 583 l 1
 83 583 l 1
 83 542 l 1
 0 542 l 1
0 500 m 1
 0 542 l 1
 83 542 l 1
 83 500 l 1
 0 500 l 1
0 458 m 1
 0 500 l 1
 292 500 l 1
 292 458 l 1
 0 458 l 1
125 375 m 1
 125 417 l 1
 417 417 l 1
 417 375 l 1
 125 375 l 1
125 333 m 1
 125 375 l 1
 208 375 l 1
 208 333 l 1
 125 333 l 1
125 292 m 1
 125 333 l 1
 208 333 l 1
 208 292 l 1
 125 292 l 1
125 250 m 1
 125 292 l 1
 208 292 l 1
 208 250 l 1
 125 250 l 1
125 208 m 1
 125 250 l 1
 375 250 l 1
 375 208 l 1
 125 208 l 1
125 167 m 1
 125 208 l 1
 208 208 l 1
 208 167 l 1
 125 167 l 1
125 125 m 1
 125 167 l 1
 208 167 l 1
 208 125 l 1
 125 125 l 1
125 83 m 1
 125 125 l 1
 208 125 l 1
 208 83 l 1
 125 83 l 1
125 42 m 1
 125 83 l 1
 208 83 l 1
 208 42 l 1
 125 42 l 1
EndSplineSet
EndChar

StartChar: C007
Encoding: 7 7 6
Width: 500
Flags: HW
LayerCount: 2
Back
Fore
SplineSet
167 708 m 1
 167 750 l 1
 292 750 l 1
 292 708 l 1
 167 708 l 1
125 667 m 1
 125 708 l 1
 208 708 l 1
 208 667 l 1
 125 667 l 1
250 667 m 1
 250 708 l 1
 333 708 l 1
 333 667 l 1
 250 667 l 1
83 625 m 1
 83 667 l 1
 167 667 l 1
 167 625 l 1
 83 625 l 1
292 625 m 1
 292 667 l 1
 375 667 l 1
 375 625 l 1
 292 625 l 1
83 583 m 1
 83 625 l 1
 167 625 l 1
 167 583 l 1
 83 583 l 1
292 583 m 1
 292 625 l 1
 375 625 l 1
 375 583 l 1
 292 583 l 1
125 542 m 1
 125 583 l 1
 208 583 l 1
 208 542 l 1
 125 542 l 1
250 542 m 1
 250 583 l 1
 333 583 l 1
 333 542 l 1
 250 542 l 1
167 500 m 1
 167 542 l 1
 292 542 l 1
 292 500 l 1
 167 500 l 1
EndSplineSet
EndChar

StartChar: C010
Encoding: 8 8 7
Width: 500
Flags: HW
LayerCount: 2
Back
Fore
SplineSet
167 750 m 1
 167 792 l 1
 250 792 l 1
 250 750 l 1
 167 750 l 1
167 708 m 1
 167 750 l 1
 250 750 l 1
 250 708 l 1
 167 708 l 1
167 667 m 1
 167 708 l 1
 250 708 l 1
 250 667 l 1
 167 667 l 1
167 625 m 1
 167 667 l 1
 250 667 l 1
 250 625 l 1
 167 625 l 1
167 583 m 1
 167 625 l 1
 250 625 l 1
 250 583 l 1
 167 583 l 1
167 542 m 1
 167 583 l 1
 250 583 l 1
 250 542 l 1
 167 542 l 1
0 500 m 1
 0 542 l 1
 417 542 l 1
 417 500 l 1
 0 500 l 1
0 458 m 1
 0 500 l 1
 417 500 l 1
 417 458 l 1
 0 458 l 1
167 417 m 1
 167 458 l 1
 250 458 l 1
 250 417 l 1
 167 417 l 1
167 375 m 1
 167 417 l 1
 250 417 l 1
 250 375 l 1
 167 375 l 1
167 333 m 1
 167 375 l 1
 250 375 l 1
 250 333 l 1
 167 333 l 1
167 292 m 1
 167 333 l 1
 250 333 l 1
 250 292 l 1
 167 292 l 1
167 250 m 1
 167 292 l 1
 250 292 l 1
 250 250 l 1
 167 250 l 1
167 208 m 1
 167 250 l 1
 250 250 l 1
 250 208 l 1
 167 208 l 1
0 125 m 1
 0 167 l 1
 417 167 l 1
 417 125 l 1
 0 125 l 1
0 83 m 1
 0 125 l 1
 417 125 l 1
 417 83 l 1
 0 83 l 1
EndSplineSet
EndChar

StartChar: C011
Encoding: 9 9 8
Width: 500
Flags: HW
LayerCount: 2
Back
Fore
SplineSet
0 792 m 1
 0 833 l 1
 125 833 l 1
 125 792 l 1
 0 792 l 1
250 792 m 1
 250 833 l 1
 333 833 l 1
 333 792 l 1
 250 792 l 1
0 750 m 1
 0 792 l 1
 125 792 l 1
 125 750 l 1
 0 750 l 1
250 750 m 1
 250 792 l 1
 333 792 l 1
 333 750 l 1
 250 750 l 1
0 708 m 1
 0 750 l 1
 83 750 l 1
 83 708 l 1
 0 708 l 1
125 708 m 1
 125 750 l 1
 167 750 l 1
 167 708 l 1
 125 708 l 1
250 708 m 1
 250 750 l 1
 333 750 l 1
 333 708 l 1
 250 708 l 1
0 667 m 1
 0 708 l 1
 83 708 l 1
 83 667 l 1
 0 667 l 1
125 667 m 1
 125 708 l 1
 167 708 l 1
 167 667 l 1
 125 667 l 1
250 667 m 1
 250 708 l 1
 333 708 l 1
 333 667 l 1
 250 667 l 1
0 625 m 1
 0 667 l 1
 83 667 l 1
 83 625 l 1
 0 625 l 1
167 625 m 1
 167 667 l 1
 208 667 l 1
 208 625 l 1
 167 625 l 1
250 625 m 1
 250 667 l 1
 333 667 l 1
 333 625 l 1
 250 625 l 1
0 583 m 1
 0 625 l 1
 83 625 l 1
 83 583 l 1
 0 583 l 1
167 583 m 1
 167 625 l 1
 208 625 l 1
 208 583 l 1
 167 583 l 1
250 583 m 1
 250 625 l 1
 333 625 l 1
 333 583 l 1
 250 583 l 1
0 542 m 1
 0 583 l 1
 83 583 l 1
 83 542 l 1
 0 542 l 1
208 542 m 1
 208 583 l 1
 333 583 l 1
 333 542 l 1
 208 542 l 1
0 500 m 1
 0 542 l 1
 83 542 l 1
 83 500 l 1
 0 500 l 1
208 500 m 1
 208 542 l 1
 333 542 l 1
 333 500 l 1
 208 500 l 1
0 458 m 1
 0 500 l 1
 83 500 l 1
 83 458 l 1
 0 458 l 1
250 458 m 1
 250 500 l 1
 333 500 l 1
 333 458 l 1
 250 458 l 1
125 375 m 1
 125 417 l 1
 208 417 l 1
 208 375 l 1
 125 375 l 1
125 333 m 1
 125 375 l 1
 208 375 l 1
 208 333 l 1
 125 333 l 1
125 292 m 1
 125 333 l 1
 208 333 l 1
 208 292 l 1
 125 292 l 1
125 250 m 1
 125 292 l 1
 208 292 l 1
 208 250 l 1
 125 250 l 1
125 208 m 1
 125 250 l 1
 208 250 l 1
 208 208 l 1
 125 208 l 1
125 167 m 1
 125 208 l 1
 208 208 l 1
 208 167 l 1
 125 167 l 1
125 125 m 1
 125 167 l 1
 208 167 l 1
 208 125 l 1
 125 125 l 1
125 83 m 1
 125 125 l 1
 208 125 l 1
 208 83 l 1
 125 83 l 1
125 42 m 1
 125 83 l 1
 417 83 l 1
 417 42 l 1
 125 42 l 1
EndSplineSet
EndChar

StartChar: C012
Encoding: 10 10 9
Width: 500
Flags: HW
LayerCount: 2
Back
Fore
SplineSet
0 792 m 1
 0 833 l 1
 83 833 l 1
 83 792 l 1
 0 792 l 1
292 792 m 1
 292 833 l 1
 375 833 l 1
 375 792 l 1
 292 792 l 1
0 750 m 1
 0 792 l 1
 83 792 l 1
 83 750 l 1
 0 750 l 1
292 750 m 1
 292 792 l 1
 375 792 l 1
 375 750 l 1
 292 750 l 1
42 708 m 1
 42 750 l 1
 125 750 l 1
 125 708 l 1
 42 708 l 1
250 708 m 1
 250 750 l 1
 333 750 l 1
 333 708 l 1
 250 708 l 1
42 667 m 1
 42 708 l 1
 125 708 l 1
 125 667 l 1
 42 667 l 1
250 667 m 1
 250 708 l 1
 333 708 l 1
 333 667 l 1
 250 667 l 1
83 625 m 1
 83 667 l 1
 167 667 l 1
 167 625 l 1
 83 625 l 1
208 625 m 1
 208 667 l 1
 292 667 l 1
 292 625 l 1
 208 625 l 1
83 583 m 1
 83 625 l 1
 167 625 l 1
 167 583 l 1
 83 583 l 1
208 583 m 1
 208 625 l 1
 292 625 l 1
 292 583 l 1
 208 583 l 1
125 542 m 1
 125 583 l 1
 250 583 l 1
 250 542 l 1
 125 542 l 1
125 500 m 1
 125 542 l 1
 250 542 l 1
 250 500 l 1
 125 500 l 1
167 458 m 1
 167 500 l 1
 208 500 l 1
 208 458 l 1
 167 458 l 1
83 333 m 1
 83 375 l 1
 417 375 l 1
 417 333 l 1
 83 333 l 1
208 292 m 1
 208 333 l 1
 292 333 l 1
 292 292 l 1
 208 292 l 1
208 250 m 1
 208 292 l 1
 292 292 l 1
 292 250 l 1
 208 250 l 1
208 208 m 1
 208 250 l 1
 292 250 l 1
 292 208 l 1
 208 208 l 1
208 167 m 1
 208 208 l 1
 292 208 l 1
 292 167 l 1
 208 167 l 1
208 125 m 1
 208 167 l 1
 292 167 l 1
 292 125 l 1
 208 125 l 1
208 83 m 1
 208 125 l 1
 292 125 l 1
 292 83 l 1
 208 83 l 1
208 42 m 1
 208 83 l 1
 292 83 l 1
 292 42 l 1
 208 42 l 1
EndSplineSet
EndChar

StartChar: C013
Encoding: 11 11 10
Width: 500
Flags: HW
LayerCount: 2
Back
Fore
SplineSet
208 875 m 1
 208 917 l 1
 250 917 l 1
 250 875 l 1
 208 875 l 1
208 833 m 1
 208 875 l 1
 250 875 l 1
 250 833 l 1
 208 833 l 1
208 792 m 1
 208 833 l 1
 250 833 l 1
 250 792 l 1
 208 792 l 1
208 750 m 1
 208 792 l 1
 250 792 l 1
 250 750 l 1
 208 750 l 1
208 708 m 1
 208 750 l 1
 250 750 l 1
 250 708 l 1
 208 708 l 1
208 667 m 1
 208 708 l 1
 250 708 l 1
 250 667 l 1
 208 667 l 1
208 625 m 1
 208 667 l 1
 250 667 l 1
 250 625 l 1
 208 625 l 1
208 583 m 1
 208 625 l 1
 250 625 l 1
 250 583 l 1
 208 583 l 1
208 542 m 1
 208 583 l 1
 250 583 l 1
 250 542 l 1
 208 542 l 1
208 500 m 1
 208 542 l 1
 250 542 l 1
 250 500 l 1
 208 500 l 1
208 458 m 1
 208 500 l 1
 250 500 l 1
 250 458 l 1
 208 458 l 1
208 417 m 1
 208 458 l 1
 250 458 l 1
 250 417 l 1
 208 417 l 1
0 375 m 1
 0 417 l 1
 250 417 l 1
 250 375 l 1
 0 375 l 1
EndSplineSet
EndChar

StartChar: C014
Encoding: 12 12 11
Width: 500
Flags: HW
LayerCount: 2
Back
Fore
SplineSet
0 375 m 1
 0 417 l 1
 250 417 l 1
 250 375 l 1
 0 375 l 1
208 333 m 1
 208 375 l 1
 250 375 l 1
 250 333 l 1
 208 333 l 1
208 292 m 1
 208 333 l 1
 250 333 l 1
 250 292 l 1
 208 292 l 1
208 250 m 1
 208 292 l 1
 250 292 l 1
 250 250 l 1
 208 250 l 1
208 208 m 1
 208 250 l 1
 250 250 l 1
 250 208 l 1
 208 208 l 1
208 167 m 1
 208 208 l 1
 250 208 l 1
 250 167 l 1
 208 167 l 1
208 125 m 1
 208 167 l 1
 250 167 l 1
 250 125 l 1
 208 125 l 1
208 83 m 1
 208 125 l 1
 250 125 l 1
 250 83 l 1
 208 83 l 1
208 42 m 1
 208 83 l 1
 250 83 l 1
 250 42 l 1
 208 42 l 1
208 0 m 1
 208 42 l 1
 250 42 l 1
 250 0 l 1
 208 0 l 1
208 -42 m 1
 208 0 l 1
 250 0 l 1
 250 -42 l 1
 208 -42 l 1
208 -83 m 1
 208 -42 l 1
 250 -42 l 1
 250 -83 l 1
 208 -83 l 1
EndSplineSet
EndChar

StartChar: C015
Encoding: 13 13 12
Width: 500
Flags: HW
LayerCount: 2
Back
Fore
SplineSet
208 375 m 1
 208 417 l 1
 500 417 l 1
 500 375 l 1
 208 375 l 1
208 333 m 1
 208 375 l 1
 250 375 l 1
 250 333 l 1
 208 333 l 1
208 292 m 1
 208 333 l 1
 250 333 l 1
 250 292 l 1
 208 292 l 1
208 250 m 1
 208 292 l 1
 250 292 l 1
 250 250 l 1
 208 250 l 1
208 208 m 1
 208 250 l 1
 250 250 l 1
 250 208 l 1
 208 208 l 1
208 167 m 1
 208 208 l 1
 250 208 l 1
 250 167 l 1
 208 167 l 1
208 125 m 1
 208 167 l 1
 250 167 l 1
 250 125 l 1
 208 125 l 1
208 83 m 1
 208 125 l 1
 250 125 l 1
 250 83 l 1
 208 83 l 1
208 42 m 1
 208 83 l 1
 250 83 l 1
 250 42 l 1
 208 42 l 1
208 0 m 1
 208 42 l 1
 250 42 l 1
 250 0 l 1
 208 0 l 1
208 -42 m 1
 208 0 l 1
 250 0 l 1
 250 -42 l 1
 208 -42 l 1
208 -83 m 1
 208 -42 l 1
 250 -42 l 1
 250 -83 l 1
 208 -83 l 1
EndSplineSet
EndChar

StartChar: C016
Encoding: 14 14 13
Width: 500
Flags: HW
LayerCount: 2
Back
Fore
SplineSet
208 875 m 1
 208 917 l 1
 250 917 l 1
 250 875 l 1
 208 875 l 1
208 833 m 1
 208 875 l 1
 250 875 l 1
 250 833 l 1
 208 833 l 1
208 792 m 1
 208 833 l 1
 250 833 l 1
 250 792 l 1
 208 792 l 1
208 750 m 1
 208 792 l 1
 250 792 l 1
 250 750 l 1
 208 750 l 1
208 708 m 1
 208 750 l 1
 250 750 l 1
 250 708 l 1
 208 708 l 1
208 667 m 1
 208 708 l 1
 250 708 l 1
 250 667 l 1
 208 667 l 1
208 625 m 1
 208 667 l 1
 250 667 l 1
 250 625 l 1
 208 625 l 1
208 583 m 1
 208 625 l 1
 250 625 l 1
 250 583 l 1
 208 583 l 1
208 542 m 1
 208 583 l 1
 250 583 l 1
 250 542 l 1
 208 542 l 1
208 500 m 1
 208 542 l 1
 250 542 l 1
 250 500 l 1
 208 500 l 1
208 458 m 1
 208 500 l 1
 250 500 l 1
 250 458 l 1
 208 458 l 1
208 417 m 1
 208 458 l 1
 250 458 l 1
 250 417 l 1
 208 417 l 1
208 375 m 1
 208 417 l 1
 500 417 l 1
 500 375 l 1
 208 375 l 1
EndSplineSet
EndChar

StartChar: C017
Encoding: 15 15 14
Width: 500
Flags: HW
LayerCount: 2
Back
Fore
SplineSet
208 875 m 1
 208 917 l 1
 250 917 l 1
 250 875 l 1
 208 875 l 1
208 833 m 1
 208 875 l 1
 250 875 l 1
 250 833 l 1
 208 833 l 1
208 792 m 1
 208 833 l 1
 250 833 l 1
 250 792 l 1
 208 792 l 1
208 750 m 1
 208 792 l 1
 250 792 l 1
 250 750 l 1
 208 750 l 1
208 708 m 1
 208 750 l 1
 250 750 l 1
 250 708 l 1
 208 708 l 1
208 667 m 1
 208 708 l 1
 250 708 l 1
 250 667 l 1
 208 667 l 1
208 625 m 1
 208 667 l 1
 250 667 l 1
 250 625 l 1
 208 625 l 1
208 583 m 1
 208 625 l 1
 250 625 l 1
 250 583 l 1
 208 583 l 1
208 542 m 1
 208 583 l 1
 250 583 l 1
 250 542 l 1
 208 542 l 1
208 500 m 1
 208 542 l 1
 250 542 l 1
 250 500 l 1
 208 500 l 1
208 458 m 1
 208 500 l 1
 250 500 l 1
 250 458 l 1
 208 458 l 1
208 417 m 1
 208 458 l 1
 250 458 l 1
 250 417 l 1
 208 417 l 1
0 375 m 1
 0 417 l 1
 500 417 l 1
 500 375 l 1
 0 375 l 1
208 333 m 1
 208 375 l 1
 250 375 l 1
 250 333 l 1
 208 333 l 1
208 292 m 1
 208 333 l 1
 250 333 l 1
 250 292 l 1
 208 292 l 1
208 250 m 1
 208 292 l 1
 250 292 l 1
 250 250 l 1
 208 250 l 1
208 208 m 1
 208 250 l 1
 250 250 l 1
 250 208 l 1
 208 208 l 1
208 167 m 1
 208 208 l 1
 250 208 l 1
 250 167 l 1
 208 167 l 1
208 125 m 1
 208 167 l 1
 250 167 l 1
 250 125 l 1
 208 125 l 1
208 83 m 1
 208 125 l 1
 250 125 l 1
 250 83 l 1
 208 83 l 1
208 42 m 1
 208 83 l 1
 250 83 l 1
 250 42 l 1
 208 42 l 1
208 0 m 1
 208 42 l 1
 250 42 l 1
 250 0 l 1
 208 0 l 1
208 -42 m 1
 208 0 l 1
 250 0 l 1
 250 -42 l 1
 208 -42 l 1
208 -83 m 1
 208 -42 l 1
 250 -42 l 1
 250 -83 l 1
 208 -83 l 1
EndSplineSet
EndChar

StartChar: C020
Encoding: 16 16 15
Width: 500
Flags: HW
LayerCount: 2
Back
Fore
SplineSet
0 792 m 1
 0 833 l 1
 500 833 l 1
 500 792 l 1
 0 792 l 1
EndSplineSet
EndChar

StartChar: C021
Encoding: 17 17 16
Width: 500
Flags: HW
LayerCount: 2
Back
Fore
SplineSet
0 583 m 1
 0 625 l 1
 500 625 l 1
 500 583 l 1
 0 583 l 1
EndSplineSet
EndChar

StartChar: C022
Encoding: 18 18 17
Width: 500
Flags: HW
LayerCount: 2
Back
Fore
SplineSet
0 375 m 1
 0 417 l 1
 500 417 l 1
 500 375 l 1
 0 375 l 1
EndSplineSet
EndChar

StartChar: C023
Encoding: 19 19 18
Width: 500
Flags: HW
LayerCount: 2
Back
Fore
SplineSet
0 167 m 1
 0 208 l 1
 500 208 l 1
 500 167 l 1
 0 167 l 1
EndSplineSet
EndChar

StartChar: C024
Encoding: 20 20 19
Width: 500
Flags: HW
LayerCount: 2
Back
Fore
SplineSet
0 -42 m 1
 0 0 l 1
 500 0 l 1
 500 -42 l 1
 0 -42 l 1
EndSplineSet
EndChar

StartChar: C025
Encoding: 21 21 20
Width: 500
Flags: HW
LayerCount: 2
Back
Fore
SplineSet
208 875 m 1
 208 917 l 1
 250 917 l 1
 250 875 l 1
 208 875 l 1
208 833 m 1
 208 875 l 1
 250 875 l 1
 250 833 l 1
 208 833 l 1
208 792 m 1
 208 833 l 1
 250 833 l 1
 250 792 l 1
 208 792 l 1
208 750 m 1
 208 792 l 1
 250 792 l 1
 250 750 l 1
 208 750 l 1
208 708 m 1
 208 750 l 1
 250 750 l 1
 250 708 l 1
 208 708 l 1
208 667 m 1
 208 708 l 1
 250 708 l 1
 250 667 l 1
 208 667 l 1
208 625 m 1
 208 667 l 1
 250 667 l 1
 250 625 l 1
 208 625 l 1
208 583 m 1
 208 625 l 1
 250 625 l 1
 250 583 l 1
 208 583 l 1
208 542 m 1
 208 583 l 1
 250 583 l 1
 250 542 l 1
 208 542 l 1
208 500 m 1
 208 542 l 1
 250 542 l 1
 250 500 l 1
 208 500 l 1
208 458 m 1
 208 500 l 1
 250 500 l 1
 250 458 l 1
 208 458 l 1
208 417 m 1
 208 458 l 1
 250 458 l 1
 250 417 l 1
 208 417 l 1
208 375 m 1
 208 417 l 1
 500 417 l 1
 500 375 l 1
 208 375 l 1
208 333 m 1
 208 375 l 1
 250 375 l 1
 250 333 l 1
 208 333 l 1
208 292 m 1
 208 333 l 1
 250 333 l 1
 250 292 l 1
 208 292 l 1
208 250 m 1
 208 292 l 1
 250 292 l 1
 250 250 l 1
 208 250 l 1
208 208 m 1
 208 250 l 1
 250 250 l 1
 250 208 l 1
 208 208 l 1
208 167 m 1
 208 208 l 1
 250 208 l 1
 250 167 l 1
 208 167 l 1
208 125 m 1
 208 167 l 1
 250 167 l 1
 250 125 l 1
 208 125 l 1
208 83 m 1
 208 125 l 1
 250 125 l 1
 250 83 l 1
 208 83 l 1
208 42 m 1
 208 83 l 1
 250 83 l 1
 250 42 l 1
 208 42 l 1
208 0 m 1
 208 42 l 1
 250 42 l 1
 250 0 l 1
 208 0 l 1
208 -42 m 1
 208 0 l 1
 250 0 l 1
 250 -42 l 1
 208 -42 l 1
208 -83 m 1
 208 -42 l 1
 250 -42 l 1
 250 -83 l 1
 208 -83 l 1
EndSplineSet
EndChar

StartChar: C026
Encoding: 22 22 21
Width: 500
Flags: HW
LayerCount: 2
Back
Fore
SplineSet
208 875 m 1
 208 917 l 1
 250 917 l 1
 250 875 l 1
 208 875 l 1
208 833 m 1
 208 875 l 1
 250 875 l 1
 250 833 l 1
 208 833 l 1
208 792 m 1
 208 833 l 1
 250 833 l 1
 250 792 l 1
 208 792 l 1
208 750 m 1
 208 792 l 1
 250 792 l 1
 250 750 l 1
 208 750 l 1
208 708 m 1
 208 750 l 1
 250 750 l 1
 250 708 l 1
 208 708 l 1
208 667 m 1
 208 708 l 1
 250 708 l 1
 250 667 l 1
 208 667 l 1
208 625 m 1
 208 667 l 1
 250 667 l 1
 250 625 l 1
 208 625 l 1
208 583 m 1
 208 625 l 1
 250 625 l 1
 250 583 l 1
 208 583 l 1
208 542 m 1
 208 583 l 1
 250 583 l 1
 250 542 l 1
 208 542 l 1
208 500 m 1
 208 542 l 1
 250 542 l 1
 250 500 l 1
 208 500 l 1
208 458 m 1
 208 500 l 1
 250 500 l 1
 250 458 l 1
 208 458 l 1
208 417 m 1
 208 458 l 1
 250 458 l 1
 250 417 l 1
 208 417 l 1
0 375 m 1
 0 417 l 1
 250 417 l 1
 250 375 l 1
 0 375 l 1
208 333 m 1
 208 375 l 1
 250 375 l 1
 250 333 l 1
 208 333 l 1
208 292 m 1
 208 333 l 1
 250 333 l 1
 250 292 l 1
 208 292 l 1
208 250 m 1
 208 292 l 1
 250 292 l 1
 250 250 l 1
 208 250 l 1
208 208 m 1
 208 250 l 1
 250 250 l 1
 250 208 l 1
 208 208 l 1
208 167 m 1
 208 208 l 1
 250 208 l 1
 250 167 l 1
 208 167 l 1
208 125 m 1
 208 167 l 1
 250 167 l 1
 250 125 l 1
 208 125 l 1
208 83 m 1
 208 125 l 1
 250 125 l 1
 250 83 l 1
 208 83 l 1
208 42 m 1
 208 83 l 1
 250 83 l 1
 250 42 l 1
 208 42 l 1
208 0 m 1
 208 42 l 1
 250 42 l 1
 250 0 l 1
 208 0 l 1
208 -42 m 1
 208 0 l 1
 250 0 l 1
 250 -42 l 1
 208 -42 l 1
208 -83 m 1
 208 -42 l 1
 250 -42 l 1
 250 -83 l 1
 208 -83 l 1
EndSplineSet
EndChar

StartChar: C027
Encoding: 23 23 22
Width: 500
Flags: HW
LayerCount: 2
Back
Fore
SplineSet
208 875 m 1
 208 917 l 1
 250 917 l 1
 250 875 l 1
 208 875 l 1
208 833 m 1
 208 875 l 1
 250 875 l 1
 250 833 l 1
 208 833 l 1
208 792 m 1
 208 833 l 1
 250 833 l 1
 250 792 l 1
 208 792 l 1
208 750 m 1
 208 792 l 1
 250 792 l 1
 250 750 l 1
 208 750 l 1
208 708 m 1
 208 750 l 1
 250 750 l 1
 250 708 l 1
 208 708 l 1
208 667 m 1
 208 708 l 1
 250 708 l 1
 250 667 l 1
 208 667 l 1
208 625 m 1
 208 667 l 1
 250 667 l 1
 250 625 l 1
 208 625 l 1
208 583 m 1
 208 625 l 1
 250 625 l 1
 250 583 l 1
 208 583 l 1
208 542 m 1
 208 583 l 1
 250 583 l 1
 250 542 l 1
 208 542 l 1
208 500 m 1
 208 542 l 1
 250 542 l 1
 250 500 l 1
 208 500 l 1
208 458 m 1
 208 500 l 1
 250 500 l 1
 250 458 l 1
 208 458 l 1
208 417 m 1
 208 458 l 1
 250 458 l 1
 250 417 l 1
 208 417 l 1
0 375 m 1
 0 417 l 1
 500 417 l 1
 500 375 l 1
 0 375 l 1
EndSplineSet
EndChar

StartChar: C030
Encoding: 24 24 23
Width: 500
Flags: HW
LayerCount: 2
Back
Fore
SplineSet
0 375 m 1
 0 417 l 1
 500 417 l 1
 500 375 l 1
 0 375 l 1
208 333 m 1
 208 375 l 1
 250 375 l 1
 250 333 l 1
 208 333 l 1
208 292 m 1
 208 333 l 1
 250 333 l 1
 250 292 l 1
 208 292 l 1
208 250 m 1
 208 292 l 1
 250 292 l 1
 250 250 l 1
 208 250 l 1
208 208 m 1
 208 250 l 1
 250 250 l 1
 250 208 l 1
 208 208 l 1
208 167 m 1
 208 208 l 1
 250 208 l 1
 250 167 l 1
 208 167 l 1
208 125 m 1
 208 167 l 1
 250 167 l 1
 250 125 l 1
 208 125 l 1
208 83 m 1
 208 125 l 1
 250 125 l 1
 250 83 l 1
 208 83 l 1
208 42 m 1
 208 83 l 1
 250 83 l 1
 250 42 l 1
 208 42 l 1
208 0 m 1
 208 42 l 1
 250 42 l 1
 250 0 l 1
 208 0 l 1
208 -42 m 1
 208 0 l 1
 250 0 l 1
 250 -42 l 1
 208 -42 l 1
208 -83 m 1
 208 -42 l 1
 250 -42 l 1
 250 -83 l 1
 208 -83 l 1
EndSplineSet
EndChar

StartChar: C031
Encoding: 25 25 24
Width: 500
Flags: HW
LayerCount: 2
Back
Fore
SplineSet
208 875 m 1
 208 917 l 1
 250 917 l 1
 250 875 l 1
 208 875 l 1
208 833 m 1
 208 875 l 1
 250 875 l 1
 250 833 l 1
 208 833 l 1
208 792 m 1
 208 833 l 1
 250 833 l 1
 250 792 l 1
 208 792 l 1
208 750 m 1
 208 792 l 1
 250 792 l 1
 250 750 l 1
 208 750 l 1
208 708 m 1
 208 750 l 1
 250 750 l 1
 250 708 l 1
 208 708 l 1
208 667 m 1
 208 708 l 1
 250 708 l 1
 250 667 l 1
 208 667 l 1
208 625 m 1
 208 667 l 1
 250 667 l 1
 250 625 l 1
 208 625 l 1
208 583 m 1
 208 625 l 1
 250 625 l 1
 250 583 l 1
 208 583 l 1
208 542 m 1
 208 583 l 1
 250 583 l 1
 250 542 l 1
 208 542 l 1
208 500 m 1
 208 542 l 1
 250 542 l 1
 250 500 l 1
 208 500 l 1
208 458 m 1
 208 500 l 1
 250 500 l 1
 250 458 l 1
 208 458 l 1
208 417 m 1
 208 458 l 1
 250 458 l 1
 250 417 l 1
 208 417 l 1
208 375 m 1
 208 417 l 1
 250 417 l 1
 250 375 l 1
 208 375 l 1
208 333 m 1
 208 375 l 1
 250 375 l 1
 250 333 l 1
 208 333 l 1
208 292 m 1
 208 333 l 1
 250 333 l 1
 250 292 l 1
 208 292 l 1
208 250 m 1
 208 292 l 1
 250 292 l 1
 250 250 l 1
 208 250 l 1
208 208 m 1
 208 250 l 1
 250 250 l 1
 250 208 l 1
 208 208 l 1
208 167 m 1
 208 208 l 1
 250 208 l 1
 250 167 l 1
 208 167 l 1
208 125 m 1
 208 167 l 1
 250 167 l 1
 250 125 l 1
 208 125 l 1
208 83 m 1
 208 125 l 1
 250 125 l 1
 250 83 l 1
 208 83 l 1
208 42 m 1
 208 83 l 1
 250 83 l 1
 250 42 l 1
 208 42 l 1
208 0 m 1
 208 42 l 1
 250 42 l 1
 250 0 l 1
 208 0 l 1
208 -42 m 1
 208 0 l 1
 250 0 l 1
 250 -42 l 1
 208 -42 l 1
208 -83 m 1
 208 -42 l 1
 250 -42 l 1
 250 -83 l 1
 208 -83 l 1
EndSplineSet
EndChar

StartChar: C032
Encoding: 26 26 25
Width: 500
Flags: HW
LayerCount: 2
Back
Fore
SplineSet
375 583 m 1
 375 625 l 1
 417 625 l 1
 417 583 l 1
 375 583 l 1
333 542 m 1
 333 583 l 1
 417 583 l 1
 417 542 l 1
 333 542 l 1
250 500 m 1
 250 542 l 1
 375 542 l 1
 375 500 l 1
 250 500 l 1
167 458 m 1
 167 500 l 1
 292 500 l 1
 292 458 l 1
 167 458 l 1
83 417 m 1
 83 458 l 1
 208 458 l 1
 208 417 l 1
 83 417 l 1
0 375 m 1
 0 417 l 1
 125 417 l 1
 125 375 l 1
 0 375 l 1
83 333 m 1
 83 375 l 1
 208 375 l 1
 208 333 l 1
 83 333 l 1
167 292 m 1
 167 333 l 1
 292 333 l 1
 292 292 l 1
 167 292 l 1
250 250 m 1
 250 292 l 1
 375 292 l 1
 375 250 l 1
 250 250 l 1
333 208 m 1
 333 250 l 1
 417 250 l 1
 417 208 l 1
 333 208 l 1
375 167 m 1
 375 208 l 1
 417 208 l 1
 417 167 l 1
 375 167 l 1
0 125 m 1
 0 167 l 1
 417 167 l 1
 417 125 l 1
 0 125 l 1
0 42 m 1
 0 83 l 1
 417 83 l 1
 417 42 l 1
 0 42 l 1
EndSplineSet
EndChar

StartChar: C033
Encoding: 27 27 26
Width: 500
Flags: HW
LayerCount: 2
Back
Fore
SplineSet
0 583 m 1
 0 625 l 1
 42 625 l 1
 42 583 l 1
 0 583 l 1
0 542 m 1
 0 583 l 1
 83 583 l 1
 83 542 l 1
 0 542 l 1
42 500 m 1
 42 542 l 1
 167 542 l 1
 167 500 l 1
 42 500 l 1
125 458 m 1
 125 500 l 1
 250 500 l 1
 250 458 l 1
 125 458 l 1
208 417 m 1
 208 458 l 1
 333 458 l 1
 333 417 l 1
 208 417 l 1
292 375 m 1
 292 417 l 1
 417 417 l 1
 417 375 l 1
 292 375 l 1
208 333 m 1
 208 375 l 1
 333 375 l 1
 333 333 l 1
 208 333 l 1
125 292 m 1
 125 333 l 1
 250 333 l 1
 250 292 l 1
 125 292 l 1
42 250 m 1
 42 292 l 1
 167 292 l 1
 167 250 l 1
 42 250 l 1
0 208 m 1
 0 250 l 1
 83 250 l 1
 83 208 l 1
 0 208 l 1
0 167 m 1
 0 208 l 1
 42 208 l 1
 42 167 l 1
 0 167 l 1
0 125 m 1
 0 167 l 1
 417 167 l 1
 417 125 l 1
 0 125 l 1
0 42 m 1
 0 83 l 1
 417 83 l 1
 417 42 l 1
 0 42 l 1
EndSplineSet
EndChar

StartChar: C034
Encoding: 28 28 27
Width: 500
Flags: HW
LayerCount: 2
Back
Fore
SplineSet
0 417 m 1
 0 458 l 1
 458 458 l 1
 458 417 l 1
 0 417 l 1
83 375 m 1
 83 417 l 1
 167 417 l 1
 167 375 l 1
 83 375 l 1
292 375 m 1
 292 417 l 1
 375 417 l 1
 375 375 l 1
 292 375 l 1
83 333 m 1
 83 375 l 1
 167 375 l 1
 167 333 l 1
 83 333 l 1
292 333 m 1
 292 375 l 1
 375 375 l 1
 375 333 l 1
 292 333 l 1
83 292 m 1
 83 333 l 1
 167 333 l 1
 167 292 l 1
 83 292 l 1
292 292 m 1
 292 333 l 1
 375 333 l 1
 375 292 l 1
 292 292 l 1
83 250 m 1
 83 292 l 1
 167 292 l 1
 167 250 l 1
 83 250 l 1
292 250 m 1
 292 292 l 1
 375 292 l 1
 375 250 l 1
 292 250 l 1
83 208 m 1
 83 250 l 1
 167 250 l 1
 167 208 l 1
 83 208 l 1
292 208 m 1
 292 250 l 1
 375 250 l 1
 375 208 l 1
 292 208 l 1
42 167 m 1
 42 208 l 1
 167 208 l 1
 167 167 l 1
 42 167 l 1
292 167 m 1
 292 208 l 1
 375 208 l 1
 375 167 l 1
 292 167 l 1
42 125 m 1
 42 167 l 1
 125 167 l 1
 125 125 l 1
 42 125 l 1
292 125 m 1
 292 167 l 1
 375 167 l 1
 375 125 l 1
 292 125 l 1
0 83 m 1
 0 125 l 1
 83 125 l 1
 83 83 l 1
 0 83 l 1
292 83 m 1
 292 125 l 1
 375 125 l 1
 375 83 l 1
 292 83 l 1
0 42 m 1
 0 83 l 1
 83 83 l 1
 83 42 l 1
 0 42 l 1
292 42 m 1
 292 83 l 1
 375 83 l 1
 375 42 l 1
 292 42 l 1
EndSplineSet
EndChar

StartChar: C035
Encoding: 29 29 28
Width: 500
Flags: HW
LayerCount: 2
Back
Fore
SplineSet
333 583 m 1
 333 625 l 1
 417 625 l 1
 417 583 l 1
 333 583 l 1
292 542 m 1
 292 583 l 1
 375 583 l 1
 375 542 l 1
 292 542 l 1
292 500 m 1
 292 542 l 1
 333 542 l 1
 333 500 l 1
 292 500 l 1
250 458 m 1
 250 500 l 1
 292 500 l 1
 292 458 l 1
 250 458 l 1
0 417 m 1
 0 458 l 1
 417 458 l 1
 417 417 l 1
 0 417 l 1
208 375 m 1
 208 417 l 1
 250 417 l 1
 250 375 l 1
 208 375 l 1
167 333 m 1
 167 375 l 1
 250 375 l 1
 250 333 l 1
 167 333 l 1
167 292 m 1
 167 333 l 1
 208 333 l 1
 208 292 l 1
 167 292 l 1
0 250 m 1
 0 292 l 1
 417 292 l 1
 417 250 l 1
 0 250 l 1
125 208 m 1
 125 250 l 1
 167 250 l 1
 167 208 l 1
 125 208 l 1
83 167 m 1
 83 208 l 1
 125 208 l 1
 125 167 l 1
 83 167 l 1
42 125 m 1
 42 167 l 1
 125 167 l 1
 125 125 l 1
 42 125 l 1
0 83 m 1
 0 125 l 1
 83 125 l 1
 83 83 l 1
 0 83 l 1
EndSplineSet
EndChar

StartChar: C036
Encoding: 30 30 29
Width: 500
Flags: HW
LayerCount: 2
Back
Fore
SplineSet
250 583 m 1
 250 625 l 1
 375 625 l 1
 375 583 l 1
 250 583 l 1
208 542 m 1
 208 583 l 1
 250 583 l 1
 250 542 l 1
 208 542 l 1
375 542 m 1
 375 583 l 1
 417 583 l 1
 417 542 l 1
 375 542 l 1
167 500 m 1
 167 542 l 1
 250 542 l 1
 250 500 l 1
 167 500 l 1
375 500 m 1
 375 542 l 1
 458 542 l 1
 458 500 l 1
 375 500 l 1
167 458 m 1
 167 500 l 1
 250 500 l 1
 250 458 l 1
 167 458 l 1
375 458 m 1
 375 500 l 1
 458 500 l 1
 458 458 l 1
 375 458 l 1
167 417 m 1
 167 458 l 1
 250 458 l 1
 250 417 l 1
 167 417 l 1
167 375 m 1
 167 417 l 1
 250 417 l 1
 250 375 l 1
 167 375 l 1
42 333 m 1
 42 375 l 1
 83 375 l 1
 83 333 l 1
 42 333 l 1
167 333 m 1
 167 375 l 1
 250 375 l 1
 250 333 l 1
 167 333 l 1
42 292 m 1
 42 333 l 1
 417 333 l 1
 417 292 l 1
 42 292 l 1
167 250 m 1
 167 292 l 1
 250 292 l 1
 250 250 l 1
 167 250 l 1
167 208 m 1
 167 250 l 1
 250 250 l 1
 250 208 l 1
 167 208 l 1
167 167 m 1
 167 208 l 1
 250 208 l 1
 250 167 l 1
 167 167 l 1
83 125 m 1
 83 167 l 1
 375 167 l 1
 375 125 l 1
 83 125 l 1
42 83 m 1
 42 125 l 1
 125 125 l 1
 125 83 l 1
 42 83 l 1
167 83 m 1
 167 125 l 1
 250 125 l 1
 250 83 l 1
 167 83 l 1
333 83 m 1
 333 125 l 1
 458 125 l 1
 458 83 l 1
 333 83 l 1
42 42 m 1
 42 83 l 1
 125 83 l 1
 125 42 l 1
 42 42 l 1
167 42 m 1
 167 83 l 1
 250 83 l 1
 250 42 l 1
 167 42 l 1
333 42 m 1
 333 83 l 1
 458 83 l 1
 458 42 l 1
 333 42 l 1
83 0 m 1
 83 42 l 1
 208 42 l 1
 208 0 l 1
 83 0 l 1
EndSplineSet
EndChar

StartChar: C037
Encoding: 31 31 30
Width: 500
Flags: HW
LayerCount: 2
Back
Fore
SplineSet
167 375 m 1
 167 417 l 1
 250 417 l 1
 250 375 l 1
 167 375 l 1
167 333 m 1
 167 375 l 1
 250 375 l 1
 250 333 l 1
 167 333 l 1
EndSplineSet
EndChar

StartChar: !
Encoding: 33 33 32
Width: 500
Flags: HW
LayerCount: 2
Back
Fore
SplineSet
167 792 m 1
 167 833 l 1
 292 833 l 1
 292 792 l 1
 167 792 l 1
167 750 m 1
 167 792 l 1
 292 792 l 1
 292 750 l 1
 167 750 l 1
167 708 m 1
 167 750 l 1
 292 750 l 1
 292 708 l 1
 167 708 l 1
167 667 m 1
 167 708 l 1
 292 708 l 1
 292 667 l 1
 167 667 l 1
167 625 m 1
 167 667 l 1
 292 667 l 1
 292 625 l 1
 167 625 l 1
167 583 m 1
 167 625 l 1
 292 625 l 1
 292 583 l 1
 167 583 l 1
167 542 m 1
 167 583 l 1
 292 583 l 1
 292 542 l 1
 167 542 l 1
167 500 m 1
 167 542 l 1
 292 542 l 1
 292 500 l 1
 167 500 l 1
167 458 m 1
 167 500 l 1
 292 500 l 1
 292 458 l 1
 167 458 l 1
208 417 m 1
 208 458 l 1
 250 458 l 1
 250 417 l 1
 208 417 l 1
208 375 m 1
 208 417 l 1
 250 417 l 1
 250 375 l 1
 208 375 l 1
208 333 m 1
 208 375 l 1
 250 375 l 1
 250 333 l 1
 208 333 l 1
208 292 m 1
 208 333 l 1
 250 333 l 1
 250 292 l 1
 208 292 l 1
208 250 m 1
 208 292 l 1
 250 292 l 1
 250 250 l 1
 208 250 l 1
167 125 m 1
 167 167 l 1
 292 167 l 1
 292 125 l 1
 167 125 l 1
167 83 m 1
 167 125 l 1
 292 125 l 1
 292 83 l 1
 167 83 l 1
167 42 m 1
 167 83 l 1
 292 83 l 1
 292 42 l 1
 167 42 l 1
EndSplineSet
EndChar

StartChar: "
Encoding: 34 34 33
Width: 500
Flags: HW
LayerCount: 2
Back
Fore
SplineSet
42 875 m 1
 42 917 l 1
 167 917 l 1
 167 875 l 1
 42 875 l 1
250 875 m 1
 250 917 l 1
 375 917 l 1
 375 875 l 1
 250 875 l 1
42 833 m 1
 42 875 l 1
 167 875 l 1
 167 833 l 1
 42 833 l 1
250 833 m 1
 250 875 l 1
 375 875 l 1
 375 833 l 1
 250 833 l 1
83 792 m 1
 83 833 l 1
 167 833 l 1
 167 792 l 1
 83 792 l 1
292 792 m 1
 292 833 l 1
 375 833 l 1
 375 792 l 1
 292 792 l 1
83 750 m 1
 83 792 l 1
 167 792 l 1
 167 750 l 1
 83 750 l 1
292 750 m 1
 292 792 l 1
 375 792 l 1
 375 750 l 1
 292 750 l 1
83 708 m 1
 83 750 l 1
 125 750 l 1
 125 708 l 1
 83 708 l 1
292 708 m 1
 292 750 l 1
 333 750 l 1
 333 708 l 1
 292 708 l 1
42 667 m 1
 42 708 l 1
 83 708 l 1
 83 667 l 1
 42 667 l 1
250 667 m 1
 250 708 l 1
 292 708 l 1
 292 667 l 1
 250 667 l 1
EndSplineSet
EndChar

StartChar: #
Encoding: 35 35 34
Width: 500
Flags: HW
LayerCount: 2
Back
Fore
SplineSet
167 833 m 1
 167 875 l 1
 208 875 l 1
 208 833 l 1
 167 833 l 1
333 833 m 1
 333 875 l 1
 375 875 l 1
 375 833 l 1
 333 833 l 1
167 792 m 1
 167 833 l 1
 208 833 l 1
 208 792 l 1
 167 792 l 1
333 792 m 1
 333 833 l 1
 375 833 l 1
 375 792 l 1
 333 792 l 1
167 750 m 1
 167 792 l 1
 208 792 l 1
 208 750 l 1
 167 750 l 1
333 750 m 1
 333 792 l 1
 375 792 l 1
 375 750 l 1
 333 750 l 1
167 708 m 1
 167 750 l 1
 208 750 l 1
 208 708 l 1
 167 708 l 1
333 708 m 1
 333 750 l 1
 375 750 l 1
 375 708 l 1
 333 708 l 1
167 667 m 1
 167 708 l 1
 208 708 l 1
 208 667 l 1
 167 667 l 1
333 667 m 1
 333 708 l 1
 375 708 l 1
 375 667 l 1
 333 667 l 1
167 625 m 1
 167 667 l 1
 208 667 l 1
 208 625 l 1
 167 625 l 1
333 625 m 1
 333 667 l 1
 375 667 l 1
 375 625 l 1
 333 625 l 1
42 583 m 1
 42 625 l 1
 458 625 l 1
 458 583 l 1
 42 583 l 1
42 542 m 1
 42 583 l 1
 458 583 l 1
 458 542 l 1
 42 542 l 1
125 500 m 1
 125 542 l 1
 167 542 l 1
 167 500 l 1
 125 500 l 1
292 500 m 1
 292 542 l 1
 333 542 l 1
 333 500 l 1
 292 500 l 1
125 458 m 1
 125 500 l 1
 167 500 l 1
 167 458 l 1
 125 458 l 1
292 458 m 1
 292 500 l 1
 333 500 l 1
 333 458 l 1
 292 458 l 1
125 417 m 1
 125 458 l 1
 167 458 l 1
 167 417 l 1
 125 417 l 1
292 417 m 1
 292 458 l 1
 333 458 l 1
 333 417 l 1
 292 417 l 1
125 375 m 1
 125 417 l 1
 167 417 l 1
 167 375 l 1
 125 375 l 1
292 375 m 1
 292 417 l 1
 333 417 l 1
 333 375 l 1
 292 375 l 1
125 333 m 1
 125 375 l 1
 167 375 l 1
 167 333 l 1
 125 333 l 1
292 333 m 1
 292 375 l 1
 333 375 l 1
 333 333 l 1
 292 333 l 1
125 292 m 1
 125 333 l 1
 167 333 l 1
 167 292 l 1
 125 292 l 1
292 292 m 1
 292 333 l 1
 333 333 l 1
 333 292 l 1
 292 292 l 1
0 250 m 1
 0 292 l 1
 417 292 l 1
 417 250 l 1
 0 250 l 1
0 208 m 1
 0 250 l 1
 417 250 l 1
 417 208 l 1
 0 208 l 1
83 167 m 1
 83 208 l 1
 125 208 l 1
 125 167 l 1
 83 167 l 1
250 167 m 1
 250 208 l 1
 292 208 l 1
 292 167 l 1
 250 167 l 1
83 125 m 1
 83 167 l 1
 125 167 l 1
 125 125 l 1
 83 125 l 1
250 125 m 1
 250 167 l 1
 292 167 l 1
 292 125 l 1
 250 125 l 1
83 83 m 1
 83 125 l 1
 125 125 l 1
 125 83 l 1
 83 83 l 1
250 83 m 1
 250 125 l 1
 292 125 l 1
 292 83 l 1
 250 83 l 1
83 42 m 1
 83 83 l 1
 125 83 l 1
 125 42 l 1
 83 42 l 1
250 42 m 1
 250 83 l 1
 292 83 l 1
 292 42 l 1
 250 42 l 1
83 0 m 1
 83 42 l 1
 125 42 l 1
 125 0 l 1
 83 0 l 1
250 0 m 1
 250 42 l 1
 292 42 l 1
 292 0 l 1
 250 0 l 1
83 -42 m 1
 83 0 l 1
 125 0 l 1
 125 -42 l 1
 83 -42 l 1
250 -42 m 1
 250 0 l 1
 292 0 l 1
 292 -42 l 1
 250 -42 l 1
EndSplineSet
EndChar

StartChar: $
Encoding: 36 36 35
Width: 500
Flags: HW
LayerCount: 2
Back
Fore
SplineSet
208 833 m 1
 208 875 l 1
 250 875 l 1
 250 833 l 1
 208 833 l 1
208 792 m 1
 208 833 l 1
 250 833 l 1
 250 792 l 1
 208 792 l 1
125 750 m 1
 125 792 l 1
 333 792 l 1
 333 750 l 1
 125 750 l 1
42 708 m 1
 42 750 l 1
 125 750 l 1
 125 708 l 1
 42 708 l 1
208 708 m 1
 208 750 l 1
 250 750 l 1
 250 708 l 1
 208 708 l 1
333 708 m 1
 333 750 l 1
 417 750 l 1
 417 708 l 1
 333 708 l 1
0 667 m 1
 0 708 l 1
 83 708 l 1
 83 667 l 1
 0 667 l 1
208 667 m 1
 208 708 l 1
 250 708 l 1
 250 667 l 1
 208 667 l 1
375 667 m 1
 375 708 l 1
 458 708 l 1
 458 667 l 1
 375 667 l 1
0 625 m 1
 0 667 l 1
 83 667 l 1
 83 625 l 1
 0 625 l 1
208 625 m 1
 208 667 l 1
 250 667 l 1
 250 625 l 1
 208 625 l 1
375 625 m 1
 375 667 l 1
 458 667 l 1
 458 625 l 1
 375 625 l 1
0 583 m 1
 0 625 l 1
 83 625 l 1
 83 583 l 1
 0 583 l 1
208 583 m 1
 208 625 l 1
 250 625 l 1
 250 583 l 1
 208 583 l 1
0 542 m 1
 0 583 l 1
 83 583 l 1
 83 542 l 1
 0 542 l 1
208 542 m 1
 208 583 l 1
 250 583 l 1
 250 542 l 1
 208 542 l 1
0 500 m 1
 0 542 l 1
 125 542 l 1
 125 500 l 1
 0 500 l 1
208 500 m 1
 208 542 l 1
 250 542 l 1
 250 500 l 1
 208 500 l 1
42 458 m 1
 42 500 l 1
 250 500 l 1
 250 458 l 1
 42 458 l 1
125 417 m 1
 125 458 l 1
 333 458 l 1
 333 417 l 1
 125 417 l 1
208 375 m 1
 208 417 l 1
 417 417 l 1
 417 375 l 1
 208 375 l 1
208 333 m 1
 208 375 l 1
 250 375 l 1
 250 333 l 1
 208 333 l 1
333 333 m 1
 333 375 l 1
 458 375 l 1
 458 333 l 1
 333 333 l 1
208 292 m 1
 208 333 l 1
 250 333 l 1
 250 292 l 1
 208 292 l 1
375 292 m 1
 375 333 l 1
 458 333 l 1
 458 292 l 1
 375 292 l 1
208 250 m 1
 208 292 l 1
 250 292 l 1
 250 250 l 1
 208 250 l 1
375 250 m 1
 375 292 l 1
 458 292 l 1
 458 250 l 1
 375 250 l 1
208 208 m 1
 208 250 l 1
 250 250 l 1
 250 208 l 1
 208 208 l 1
375 208 m 1
 375 250 l 1
 458 250 l 1
 458 208 l 1
 375 208 l 1
0 167 m 1
 0 208 l 1
 83 208 l 1
 83 167 l 1
 0 167 l 1
208 167 m 1
 208 208 l 1
 250 208 l 1
 250 167 l 1
 208 167 l 1
375 167 m 1
 375 208 l 1
 458 208 l 1
 458 167 l 1
 375 167 l 1
0 125 m 1
 0 167 l 1
 83 167 l 1
 83 125 l 1
 0 125 l 1
208 125 m 1
 208 167 l 1
 250 167 l 1
 250 125 l 1
 208 125 l 1
375 125 m 1
 375 167 l 1
 458 167 l 1
 458 125 l 1
 375 125 l 1
42 83 m 1
 42 125 l 1
 125 125 l 1
 125 83 l 1
 42 83 l 1
208 83 m 1
 208 125 l 1
 250 125 l 1
 250 83 l 1
 208 83 l 1
333 83 m 1
 333 125 l 1
 417 125 l 1
 417 83 l 1
 333 83 l 1
125 42 m 1
 125 83 l 1
 333 83 l 1
 333 42 l 1
 125 42 l 1
208 0 m 1
 208 42 l 1
 250 42 l 1
 250 0 l 1
 208 0 l 1
208 -42 m 1
 208 0 l 1
 250 0 l 1
 250 -42 l 1
 208 -42 l 1
EndSplineSet
EndChar

StartChar: %
Encoding: 37 37 36
Width: 500
Flags: HW
LayerCount: 2
Back
Fore
SplineSet
42 833 m 1
 42 875 l 1
 208 875 l 1
 208 833 l 1
 42 833 l 1
417 833 m 1
 417 875 l 1
 458 875 l 1
 458 833 l 1
 417 833 l 1
0 792 m 1
 0 833 l 1
 83 833 l 1
 83 792 l 1
 0 792 l 1
167 792 m 1
 167 833 l 1
 250 833 l 1
 250 792 l 1
 167 792 l 1
417 792 m 1
 417 833 l 1
 458 833 l 1
 458 792 l 1
 417 792 l 1
0 750 m 1
 0 792 l 1
 83 792 l 1
 83 750 l 1
 0 750 l 1
167 750 m 1
 167 792 l 1
 250 792 l 1
 250 750 l 1
 167 750 l 1
375 750 m 1
 375 792 l 1
 417 792 l 1
 417 750 l 1
 375 750 l 1
0 708 m 1
 0 750 l 1
 83 750 l 1
 83 708 l 1
 0 708 l 1
167 708 m 1
 167 750 l 1
 250 750 l 1
 250 708 l 1
 167 708 l 1
375 708 m 1
 375 750 l 1
 417 750 l 1
 417 708 l 1
 375 708 l 1
0 667 m 1
 0 708 l 1
 83 708 l 1
 83 667 l 1
 0 667 l 1
167 667 m 1
 167 708 l 1
 250 708 l 1
 250 667 l 1
 167 667 l 1
333 667 m 1
 333 708 l 1
 375 708 l 1
 375 667 l 1
 333 667 l 1
0 625 m 1
 0 667 l 1
 83 667 l 1
 83 625 l 1
 0 625 l 1
167 625 m 1
 167 667 l 1
 250 667 l 1
 250 625 l 1
 167 625 l 1
333 625 m 1
 333 667 l 1
 375 667 l 1
 375 625 l 1
 333 625 l 1
42 583 m 1
 42 625 l 1
 208 625 l 1
 208 583 l 1
 42 583 l 1
292 583 m 1
 292 625 l 1
 333 625 l 1
 333 583 l 1
 292 583 l 1
292 542 m 1
 292 583 l 1
 333 583 l 1
 333 542 l 1
 292 542 l 1
250 500 m 1
 250 542 l 1
 292 542 l 1
 292 500 l 1
 250 500 l 1
250 458 m 1
 250 500 l 1
 292 500 l 1
 292 458 l 1
 250 458 l 1
208 417 m 1
 208 458 l 1
 250 458 l 1
 250 417 l 1
 208 417 l 1
208 375 m 1
 208 417 l 1
 250 417 l 1
 250 375 l 1
 208 375 l 1
167 333 m 1
 167 375 l 1
 208 375 l 1
 208 333 l 1
 167 333 l 1
167 292 m 1
 167 333 l 1
 208 333 l 1
 208 292 l 1
 167 292 l 1
125 250 m 1
 125 292 l 1
 167 292 l 1
 167 250 l 1
 125 250 l 1
125 208 m 1
 125 250 l 1
 167 250 l 1
 167 208 l 1
 125 208 l 1
250 208 m 1
 250 250 l 1
 417 250 l 1
 417 208 l 1
 250 208 l 1
83 167 m 1
 83 208 l 1
 125 208 l 1
 125 167 l 1
 83 167 l 1
208 167 m 1
 208 208 l 1
 292 208 l 1
 292 167 l 1
 208 167 l 1
375 167 m 1
 375 208 l 1
 458 208 l 1
 458 167 l 1
 375 167 l 1
83 125 m 1
 83 167 l 1
 125 167 l 1
 125 125 l 1
 83 125 l 1
208 125 m 1
 208 167 l 1
 292 167 l 1
 292 125 l 1
 208 125 l 1
375 125 m 1
 375 167 l 1
 458 167 l 1
 458 125 l 1
 375 125 l 1
42 83 m 1
 42 125 l 1
 83 125 l 1
 83 83 l 1
 42 83 l 1
208 83 m 1
 208 125 l 1
 292 125 l 1
 292 83 l 1
 208 83 l 1
375 83 m 1
 375 125 l 1
 458 125 l 1
 458 83 l 1
 375 83 l 1
42 42 m 1
 42 83 l 1
 83 83 l 1
 83 42 l 1
 42 42 l 1
208 42 m 1
 208 83 l 1
 292 83 l 1
 292 42 l 1
 208 42 l 1
375 42 m 1
 375 83 l 1
 458 83 l 1
 458 42 l 1
 375 42 l 1
0 0 m 1
 0 42 l 1
 42 42 l 1
 42 0 l 1
 0 0 l 1
208 0 m 1
 208 42 l 1
 292 42 l 1
 292 0 l 1
 208 0 l 1
375 0 m 1
 375 42 l 1
 458 42 l 1
 458 0 l 1
 375 0 l 1
0 -42 m 1
 0 0 l 1
 42 0 l 1
 42 -42 l 1
 0 -42 l 1
250 -42 m 1
 250 0 l 1
 417 0 l 1
 417 -42 l 1
 250 -42 l 1
EndSplineSet
EndChar

StartChar: &
Encoding: 38 38 37
Width: 500
Flags: HW
LayerCount: 2
Back
Fore
SplineSet
125 792 m 1
 125 833 l 1
 292 833 l 1
 292 792 l 1
 125 792 l 1
83 750 m 1
 83 792 l 1
 125 792 l 1
 125 750 l 1
 83 750 l 1
292 750 m 1
 292 792 l 1
 333 792 l 1
 333 750 l 1
 292 750 l 1
42 708 m 1
 42 750 l 1
 125 750 l 1
 125 708 l 1
 42 708 l 1
292 708 m 1
 292 750 l 1
 375 750 l 1
 375 708 l 1
 292 708 l 1
42 667 m 1
 42 708 l 1
 125 708 l 1
 125 667 l 1
 42 667 l 1
292 667 m 1
 292 708 l 1
 375 708 l 1
 375 667 l 1
 292 667 l 1
42 625 m 1
 42 667 l 1
 125 667 l 1
 125 625 l 1
 42 625 l 1
292 625 m 1
 292 667 l 1
 375 667 l 1
 375 625 l 1
 292 625 l 1
42 583 m 1
 42 625 l 1
 125 625 l 1
 125 583 l 1
 42 583 l 1
250 583 m 1
 250 625 l 1
 333 625 l 1
 333 583 l 1
 250 583 l 1
42 542 m 1
 42 583 l 1
 125 583 l 1
 125 542 l 1
 42 542 l 1
208 542 m 1
 208 583 l 1
 292 583 l 1
 292 542 l 1
 208 542 l 1
83 500 m 1
 83 542 l 1
 167 542 l 1
 167 500 l 1
 83 500 l 1
208 500 m 1
 208 542 l 1
 250 542 l 1
 250 500 l 1
 208 500 l 1
125 458 m 1
 125 500 l 1
 208 500 l 1
 208 458 l 1
 125 458 l 1
125 417 m 1
 125 458 l 1
 208 458 l 1
 208 417 l 1
 125 417 l 1
83 375 m 1
 83 417 l 1
 125 417 l 1
 125 375 l 1
 83 375 l 1
167 375 m 1
 167 417 l 1
 250 417 l 1
 250 375 l 1
 167 375 l 1
42 333 m 1
 42 375 l 1
 83 375 l 1
 83 333 l 1
 42 333 l 1
208 333 m 1
 208 375 l 1
 250 375 l 1
 250 333 l 1
 208 333 l 1
0 292 m 1
 0 333 l 1
 83 333 l 1
 83 292 l 1
 0 292 l 1
208 292 m 1
 208 333 l 1
 292 333 l 1
 292 292 l 1
 208 292 l 1
375 292 m 1
 375 333 l 1
 458 333 l 1
 458 292 l 1
 375 292 l 1
0 250 m 1
 0 292 l 1
 83 292 l 1
 83 250 l 1
 0 250 l 1
250 250 m 1
 250 292 l 1
 333 292 l 1
 333 250 l 1
 250 250 l 1
417 250 m 1
 417 292 l 1
 458 292 l 1
 458 250 l 1
 417 250 l 1
0 208 m 1
 0 250 l 1
 83 250 l 1
 83 208 l 1
 0 208 l 1
292 208 m 1
 292 250 l 1
 333 250 l 1
 333 208 l 1
 292 208 l 1
375 208 m 1
 375 250 l 1
 458 250 l 1
 458 208 l 1
 375 208 l 1
0 167 m 1
 0 208 l 1
 83 208 l 1
 83 167 l 1
 0 167 l 1
292 167 m 1
 292 208 l 1
 417 208 l 1
 417 167 l 1
 292 167 l 1
0 125 m 1
 0 167 l 1
 83 167 l 1
 83 125 l 1
 0 125 l 1
333 125 m 1
 333 167 l 1
 375 167 l 1
 375 125 l 1
 333 125 l 1
42 83 m 1
 42 125 l 1
 125 125 l 1
 125 83 l 1
 42 83 l 1
292 83 m 1
 292 125 l 1
 417 125 l 1
 417 83 l 1
 292 83 l 1
83 42 m 1
 83 83 l 1
 333 83 l 1
 333 42 l 1
 83 42 l 1
375 42 m 1
 375 83 l 1
 458 83 l 1
 458 42 l 1
 375 42 l 1
EndSplineSet
EndChar

StartChar: '
Encoding: 39 39 38
Width: 500
Flags: HW
LayerCount: 2
Back
Fore
SplineSet
125 875 m 1
 125 917 l 1
 250 917 l 1
 250 875 l 1
 125 875 l 1
125 833 m 1
 125 875 l 1
 250 875 l 1
 250 833 l 1
 125 833 l 1
167 792 m 1
 167 833 l 1
 250 833 l 1
 250 792 l 1
 167 792 l 1
167 750 m 1
 167 792 l 1
 250 792 l 1
 250 750 l 1
 167 750 l 1
167 708 m 1
 167 750 l 1
 208 750 l 1
 208 708 l 1
 167 708 l 1
125 667 m 1
 125 708 l 1
 167 708 l 1
 167 667 l 1
 125 667 l 1
EndSplineSet
EndChar

StartChar: (
Encoding: 40 40 39
Width: 500
Flags: HW
LayerCount: 2
Back
Fore
SplineSet
375 875 m 1
 375 917 l 1
 417 917 l 1
 417 875 l 1
 375 875 l 1
333 833 m 1
 333 875 l 1
 375 875 l 1
 375 833 l 1
 333 833 l 1
292 792 m 1
 292 833 l 1
 375 833 l 1
 375 792 l 1
 292 792 l 1
292 750 m 1
 292 792 l 1
 333 792 l 1
 333 750 l 1
 292 750 l 1
250 708 m 1
 250 750 l 1
 333 750 l 1
 333 708 l 1
 250 708 l 1
250 667 m 1
 250 708 l 1
 292 708 l 1
 292 667 l 1
 250 667 l 1
208 625 m 1
 208 667 l 1
 292 667 l 1
 292 625 l 1
 208 625 l 1
208 583 m 1
 208 625 l 1
 292 625 l 1
 292 583 l 1
 208 583 l 1
208 542 m 1
 208 583 l 1
 250 583 l 1
 250 542 l 1
 208 542 l 1
167 500 m 1
 167 542 l 1
 250 542 l 1
 250 500 l 1
 167 500 l 1
167 458 m 1
 167 500 l 1
 250 500 l 1
 250 458 l 1
 167 458 l 1
167 417 m 1
 167 458 l 1
 250 458 l 1
 250 417 l 1
 167 417 l 1
167 375 m 1
 167 417 l 1
 250 417 l 1
 250 375 l 1
 167 375 l 1
167 333 m 1
 167 375 l 1
 250 375 l 1
 250 333 l 1
 167 333 l 1
167 292 m 1
 167 333 l 1
 250 333 l 1
 250 292 l 1
 167 292 l 1
208 250 m 1
 208 292 l 1
 250 292 l 1
 250 250 l 1
 208 250 l 1
208 208 m 1
 208 250 l 1
 292 250 l 1
 292 208 l 1
 208 208 l 1
208 167 m 1
 208 208 l 1
 292 208 l 1
 292 167 l 1
 208 167 l 1
250 125 m 1
 250 167 l 1
 292 167 l 1
 292 125 l 1
 250 125 l 1
250 83 m 1
 250 125 l 1
 333 125 l 1
 333 83 l 1
 250 83 l 1
292 42 m 1
 292 83 l 1
 333 83 l 1
 333 42 l 1
 292 42 l 1
292 0 m 1
 292 42 l 1
 375 42 l 1
 375 0 l 1
 292 0 l 1
333 -42 m 1
 333 0 l 1
 375 0 l 1
 375 -42 l 1
 333 -42 l 1
375 -83 m 1
 375 -42 l 1
 417 -42 l 1
 417 -83 l 1
 375 -83 l 1
EndSplineSet
EndChar

StartChar: )
Encoding: 41 41 40
Width: 500
Flags: HW
LayerCount: 2
Back
Fore
SplineSet
42 875 m 1
 42 917 l 1
 83 917 l 1
 83 875 l 1
 42 875 l 1
83 833 m 1
 83 875 l 1
 125 875 l 1
 125 833 l 1
 83 833 l 1
83 792 m 1
 83 833 l 1
 167 833 l 1
 167 792 l 1
 83 792 l 1
125 750 m 1
 125 792 l 1
 167 792 l 1
 167 750 l 1
 125 750 l 1
125 708 m 1
 125 750 l 1
 208 750 l 1
 208 708 l 1
 125 708 l 1
167 667 m 1
 167 708 l 1
 208 708 l 1
 208 667 l 1
 167 667 l 1
167 625 m 1
 167 667 l 1
 250 667 l 1
 250 625 l 1
 167 625 l 1
167 583 m 1
 167 625 l 1
 250 625 l 1
 250 583 l 1
 167 583 l 1
208 542 m 1
 208 583 l 1
 250 583 l 1
 250 542 l 1
 208 542 l 1
208 500 m 1
 208 542 l 1
 292 542 l 1
 292 500 l 1
 208 500 l 1
208 458 m 1
 208 500 l 1
 292 500 l 1
 292 458 l 1
 208 458 l 1
208 417 m 1
 208 458 l 1
 292 458 l 1
 292 417 l 1
 208 417 l 1
208 375 m 1
 208 417 l 1
 292 417 l 1
 292 375 l 1
 208 375 l 1
208 333 m 1
 208 375 l 1
 292 375 l 1
 292 333 l 1
 208 333 l 1
208 292 m 1
 208 333 l 1
 292 333 l 1
 292 292 l 1
 208 292 l 1
208 250 m 1
 208 292 l 1
 250 292 l 1
 250 250 l 1
 208 250 l 1
167 208 m 1
 167 250 l 1
 250 250 l 1
 250 208 l 1
 167 208 l 1
167 167 m 1
 167 208 l 1
 250 208 l 1
 250 167 l 1
 167 167 l 1
167 125 m 1
 167 167 l 1
 208 167 l 1
 208 125 l 1
 167 125 l 1
125 83 m 1
 125 125 l 1
 208 125 l 1
 208 83 l 1
 125 83 l 1
125 42 m 1
 125 83 l 1
 167 83 l 1
 167 42 l 1
 125 42 l 1
83 0 m 1
 83 42 l 1
 167 42 l 1
 167 0 l 1
 83 0 l 1
83 -42 m 1
 83 0 l 1
 125 0 l 1
 125 -42 l 1
 83 -42 l 1
42 -83 m 1
 42 -42 l 1
 83 -42 l 1
 83 -83 l 1
 42 -83 l 1
EndSplineSet
EndChar

StartChar: *
Encoding: 42 42 41
Width: 500
Flags: HW
LayerCount: 2
Back
Fore
SplineSet
167 625 m 1
 167 667 l 1
 250 667 l 1
 250 625 l 1
 167 625 l 1
167 583 m 1
 167 625 l 1
 250 625 l 1
 250 583 l 1
 167 583 l 1
0 542 m 1
 0 583 l 1
 83 583 l 1
 83 542 l 1
 0 542 l 1
167 542 m 1
 167 583 l 1
 250 583 l 1
 250 542 l 1
 167 542 l 1
333 542 m 1
 333 583 l 1
 417 583 l 1
 417 542 l 1
 333 542 l 1
0 500 m 1
 0 542 l 1
 125 542 l 1
 125 500 l 1
 0 500 l 1
167 500 m 1
 167 542 l 1
 250 542 l 1
 250 500 l 1
 167 500 l 1
292 500 m 1
 292 542 l 1
 417 542 l 1
 417 500 l 1
 292 500 l 1
83 458 m 1
 83 500 l 1
 333 500 l 1
 333 458 l 1
 83 458 l 1
167 417 m 1
 167 458 l 1
 250 458 l 1
 250 417 l 1
 167 417 l 1
167 375 m 1
 167 417 l 1
 250 417 l 1
 250 375 l 1
 167 375 l 1
83 333 m 1
 83 375 l 1
 333 375 l 1
 333 333 l 1
 83 333 l 1
0 292 m 1
 0 333 l 1
 125 333 l 1
 125 292 l 1
 0 292 l 1
167 292 m 1
 167 333 l 1
 250 333 l 1
 250 292 l 1
 167 292 l 1
292 292 m 1
 292 333 l 1
 417 333 l 1
 417 292 l 1
 292 292 l 1
0 250 m 1
 0 292 l 1
 83 292 l 1
 83 250 l 1
 0 250 l 1
167 250 m 1
 167 292 l 1
 250 292 l 1
 250 250 l 1
 167 250 l 1
333 250 m 1
 333 292 l 1
 417 292 l 1
 417 250 l 1
 333 250 l 1
167 208 m 1
 167 250 l 1
 250 250 l 1
 250 208 l 1
 167 208 l 1
167 167 m 1
 167 208 l 1
 250 208 l 1
 250 167 l 1
 167 167 l 1
EndSplineSet
EndChar

StartChar: +
Encoding: 43 43 42
Width: 500
Flags: HW
LayerCount: 2
Back
Fore
SplineSet
208 667 m 1
 208 708 l 1
 292 708 l 1
 292 667 l 1
 208 667 l 1
208 625 m 1
 208 667 l 1
 292 667 l 1
 292 625 l 1
 208 625 l 1
208 583 m 1
 208 625 l 1
 292 625 l 1
 292 583 l 1
 208 583 l 1
208 542 m 1
 208 583 l 1
 292 583 l 1
 292 542 l 1
 208 542 l 1
208 500 m 1
 208 542 l 1
 292 542 l 1
 292 500 l 1
 208 500 l 1
208 458 m 1
 208 500 l 1
 292 500 l 1
 292 458 l 1
 208 458 l 1
42 417 m 1
 42 458 l 1
 458 458 l 1
 458 417 l 1
 42 417 l 1
42 375 m 1
 42 417 l 1
 458 417 l 1
 458 375 l 1
 42 375 l 1
208 333 m 1
 208 375 l 1
 292 375 l 1
 292 333 l 1
 208 333 l 1
208 292 m 1
 208 333 l 1
 292 333 l 1
 292 292 l 1
 208 292 l 1
208 250 m 1
 208 292 l 1
 292 292 l 1
 292 250 l 1
 208 250 l 1
208 208 m 1
 208 250 l 1
 292 250 l 1
 292 208 l 1
 208 208 l 1
208 167 m 1
 208 208 l 1
 292 208 l 1
 292 167 l 1
 208 167 l 1
208 125 m 1
 208 167 l 1
 292 167 l 1
 292 125 l 1
 208 125 l 1
EndSplineSet
EndChar

StartChar: ,
Encoding: 44 44 43
Width: 500
Flags: HW
LayerCount: 2
Back
Fore
SplineSet
125 125 m 1
 125 167 l 1
 250 167 l 1
 250 125 l 1
 125 125 l 1
125 83 m 1
 125 125 l 1
 250 125 l 1
 250 83 l 1
 125 83 l 1
167 42 m 1
 167 83 l 1
 250 83 l 1
 250 42 l 1
 167 42 l 1
167 0 m 1
 167 42 l 1
 250 42 l 1
 250 0 l 1
 167 0 l 1
167 -42 m 1
 167 0 l 1
 208 0 l 1
 208 -42 l 1
 167 -42 l 1
125 -83 m 1
 125 -42 l 1
 167 -42 l 1
 167 -83 l 1
 125 -83 l 1
EndSplineSet
EndChar

StartChar: -
Encoding: 45 45 44
Width: 500
Flags: HW
LayerCount: 2
Back
Fore
SplineSet
0 417 m 1
 0 458 l 1
 458 458 l 1
 458 417 l 1
 0 417 l 1
0 375 m 1
 0 417 l 1
 458 417 l 1
 458 375 l 1
 0 375 l 1
EndSplineSet
EndChar

StartChar: .
Encoding: 46 46 45
Width: 500
Flags: HW
LayerCount: 2
Back
Fore
SplineSet
125 125 m 1
 125 167 l 1
 250 167 l 1
 250 125 l 1
 125 125 l 1
125 83 m 1
 125 125 l 1
 250 125 l 1
 250 83 l 1
 125 83 l 1
125 42 m 1
 125 83 l 1
 250 83 l 1
 250 42 l 1
 125 42 l 1
EndSplineSet
EndChar

StartChar: /
Encoding: 47 47 46
Width: 500
Flags: HW
LayerCount: 2
Back
Fore
SplineSet
417 833 m 1
 417 875 l 1
 458 875 l 1
 458 833 l 1
 417 833 l 1
375 792 m 1
 375 833 l 1
 458 833 l 1
 458 792 l 1
 375 792 l 1
375 750 m 1
 375 792 l 1
 417 792 l 1
 417 750 l 1
 375 750 l 1
333 708 m 1
 333 750 l 1
 417 750 l 1
 417 708 l 1
 333 708 l 1
333 667 m 1
 333 708 l 1
 375 708 l 1
 375 667 l 1
 333 667 l 1
292 625 m 1
 292 667 l 1
 375 667 l 1
 375 625 l 1
 292 625 l 1
292 583 m 1
 292 625 l 1
 333 625 l 1
 333 583 l 1
 292 583 l 1
250 542 m 1
 250 583 l 1
 333 583 l 1
 333 542 l 1
 250 542 l 1
250 500 m 1
 250 542 l 1
 292 542 l 1
 292 500 l 1
 250 500 l 1
208 458 m 1
 208 500 l 1
 292 500 l 1
 292 458 l 1
 208 458 l 1
208 417 m 1
 208 458 l 1
 250 458 l 1
 250 417 l 1
 208 417 l 1
167 375 m 1
 167 417 l 1
 250 417 l 1
 250 375 l 1
 167 375 l 1
167 333 m 1
 167 375 l 1
 208 375 l 1
 208 333 l 1
 167 333 l 1
125 292 m 1
 125 333 l 1
 208 333 l 1
 208 292 l 1
 125 292 l 1
125 250 m 1
 125 292 l 1
 167 292 l 1
 167 250 l 1
 125 250 l 1
83 208 m 1
 83 250 l 1
 167 250 l 1
 167 208 l 1
 83 208 l 1
83 167 m 1
 83 208 l 1
 125 208 l 1
 125 167 l 1
 83 167 l 1
42 125 m 1
 42 167 l 1
 125 167 l 1
 125 125 l 1
 42 125 l 1
42 83 m 1
 42 125 l 1
 83 125 l 1
 83 83 l 1
 42 83 l 1
0 42 m 1
 0 83 l 1
 83 83 l 1
 83 42 l 1
 0 42 l 1
0 0 m 1
 0 42 l 1
 42 42 l 1
 42 0 l 1
 0 0 l 1
0 -42 m 1
 0 0 l 1
 42 0 l 1
 42 -42 l 1
 0 -42 l 1
EndSplineSet
EndChar

StartChar: 0
Encoding: 48 48 47
Width: 500
Flags: HW
LayerCount: 2
Back
Fore
SplineSet
167 792 m 1
 167 833 l 1
 292 833 l 1
 292 792 l 1
 167 792 l 1
125 750 m 1
 125 792 l 1
 208 792 l 1
 208 750 l 1
 125 750 l 1
250 750 m 1
 250 792 l 1
 333 792 l 1
 333 750 l 1
 250 750 l 1
83 708 m 1
 83 750 l 1
 167 750 l 1
 167 708 l 1
 83 708 l 1
292 708 m 1
 292 750 l 1
 375 750 l 1
 375 708 l 1
 292 708 l 1
83 667 m 1
 83 708 l 1
 125 708 l 1
 125 667 l 1
 83 667 l 1
333 667 m 1
 333 708 l 1
 375 708 l 1
 375 667 l 1
 333 667 l 1
42 625 m 1
 42 667 l 1
 125 667 l 1
 125 625 l 1
 42 625 l 1
333 625 m 1
 333 667 l 1
 417 667 l 1
 417 625 l 1
 333 625 l 1
42 583 m 1
 42 625 l 1
 83 625 l 1
 83 583 l 1
 42 583 l 1
375 583 m 1
 375 625 l 1
 417 625 l 1
 417 583 l 1
 375 583 l 1
0 542 m 1
 0 583 l 1
 83 583 l 1
 83 542 l 1
 0 542 l 1
375 542 m 1
 375 583 l 1
 458 583 l 1
 458 542 l 1
 375 542 l 1
0 500 m 1
 0 542 l 1
 83 542 l 1
 83 500 l 1
 0 500 l 1
375 500 m 1
 375 542 l 1
 458 542 l 1
 458 500 l 1
 375 500 l 1
0 458 m 1
 0 500 l 1
 83 500 l 1
 83 458 l 1
 0 458 l 1
375 458 m 1
 375 500 l 1
 458 500 l 1
 458 458 l 1
 375 458 l 1
0 417 m 1
 0 458 l 1
 83 458 l 1
 83 417 l 1
 0 417 l 1
375 417 m 1
 375 458 l 1
 458 458 l 1
 458 417 l 1
 375 417 l 1
0 375 m 1
 0 417 l 1
 83 417 l 1
 83 375 l 1
 0 375 l 1
375 375 m 1
 375 417 l 1
 458 417 l 1
 458 375 l 1
 375 375 l 1
0 333 m 1
 0 375 l 1
 83 375 l 1
 83 333 l 1
 0 333 l 1
375 333 m 1
 375 375 l 1
 458 375 l 1
 458 333 l 1
 375 333 l 1
0 292 m 1
 0 333 l 1
 83 333 l 1
 83 292 l 1
 0 292 l 1
375 292 m 1
 375 333 l 1
 458 333 l 1
 458 292 l 1
 375 292 l 1
0 250 m 1
 0 292 l 1
 83 292 l 1
 83 250 l 1
 0 250 l 1
375 250 m 1
 375 292 l 1
 458 292 l 1
 458 250 l 1
 375 250 l 1
42 208 m 1
 42 250 l 1
 83 250 l 1
 83 208 l 1
 42 208 l 1
375 208 m 1
 375 250 l 1
 417 250 l 1
 417 208 l 1
 375 208 l 1
42 167 m 1
 42 208 l 1
 125 208 l 1
 125 167 l 1
 42 167 l 1
333 167 m 1
 333 208 l 1
 417 208 l 1
 417 167 l 1
 333 167 l 1
83 125 m 1
 83 167 l 1
 125 167 l 1
 125 125 l 1
 83 125 l 1
333 125 m 1
 333 167 l 1
 375 167 l 1
 375 125 l 1
 333 125 l 1
83 83 m 1
 83 125 l 1
 167 125 l 1
 167 83 l 1
 83 83 l 1
292 83 m 1
 292 125 l 1
 375 125 l 1
 375 83 l 1
 292 83 l 1
125 42 m 1
 125 83 l 1
 208 83 l 1
 208 42 l 1
 125 42 l 1
250 42 m 1
 250 83 l 1
 333 83 l 1
 333 42 l 1
 250 42 l 1
167 0 m 1
 167 42 l 1
 292 42 l 1
 292 0 l 1
 167 0 l 1
EndSplineSet
EndChar

StartChar: 1
Encoding: 49 49 48
Width: 500
Flags: HW
LayerCount: 2
Back
Fore
SplineSet
208 792 m 1
 208 833 l 1
 292 833 l 1
 292 792 l 1
 208 792 l 1
167 750 m 1
 167 792 l 1
 292 792 l 1
 292 750 l 1
 167 750 l 1
125 708 m 1
 125 750 l 1
 292 750 l 1
 292 708 l 1
 125 708 l 1
42 667 m 1
 42 708 l 1
 292 708 l 1
 292 667 l 1
 42 667 l 1
208 625 m 1
 208 667 l 1
 292 667 l 1
 292 625 l 1
 208 625 l 1
208 583 m 1
 208 625 l 1
 292 625 l 1
 292 583 l 1
 208 583 l 1
208 542 m 1
 208 583 l 1
 292 583 l 1
 292 542 l 1
 208 542 l 1
208 500 m 1
 208 542 l 1
 292 542 l 1
 292 500 l 1
 208 500 l 1
208 458 m 1
 208 500 l 1
 292 500 l 1
 292 458 l 1
 208 458 l 1
208 417 m 1
 208 458 l 1
 292 458 l 1
 292 417 l 1
 208 417 l 1
208 375 m 1
 208 417 l 1
 292 417 l 1
 292 375 l 1
 208 375 l 1
208 333 m 1
 208 375 l 1
 292 375 l 1
 292 333 l 1
 208 333 l 1
208 292 m 1
 208 333 l 1
 292 333 l 1
 292 292 l 1
 208 292 l 1
208 250 m 1
 208 292 l 1
 292 292 l 1
 292 250 l 1
 208 250 l 1
208 208 m 1
 208 250 l 1
 292 250 l 1
 292 208 l 1
 208 208 l 1
208 167 m 1
 208 208 l 1
 292 208 l 1
 292 167 l 1
 208 167 l 1
208 125 m 1
 208 167 l 1
 292 167 l 1
 292 125 l 1
 208 125 l 1
208 83 m 1
 208 125 l 1
 292 125 l 1
 292 83 l 1
 208 83 l 1
208 42 m 1
 208 83 l 1
 292 83 l 1
 292 42 l 1
 208 42 l 1
83 0 m 1
 83 42 l 1
 417 42 l 1
 417 0 l 1
 83 0 l 1
EndSplineSet
EndChar

StartChar: 2
Encoding: 50 50 49
Width: 500
Flags: HW
LayerCount: 2
Back
Fore
SplineSet
167 792 m 1
 167 833 l 1
 292 833 l 1
 292 792 l 1
 167 792 l 1
83 750 m 1
 83 792 l 1
 167 792 l 1
 167 750 l 1
 83 750 l 1
292 750 m 1
 292 792 l 1
 375 792 l 1
 375 750 l 1
 292 750 l 1
42 708 m 1
 42 750 l 1
 125 750 l 1
 125 708 l 1
 42 708 l 1
333 708 m 1
 333 750 l 1
 417 750 l 1
 417 708 l 1
 333 708 l 1
42 667 m 1
 42 708 l 1
 83 708 l 1
 83 667 l 1
 42 667 l 1
375 667 m 1
 375 708 l 1
 458 708 l 1
 458 667 l 1
 375 667 l 1
0 625 m 1
 0 667 l 1
 42 667 l 1
 42 625 l 1
 0 625 l 1
375 625 m 1
 375 667 l 1
 458 667 l 1
 458 625 l 1
 375 625 l 1
375 583 m 1
 375 625 l 1
 458 625 l 1
 458 583 l 1
 375 583 l 1
375 542 m 1
 375 583 l 1
 458 583 l 1
 458 542 l 1
 375 542 l 1
333 500 m 1
 333 542 l 1
 417 542 l 1
 417 500 l 1
 333 500 l 1
333 458 m 1
 333 500 l 1
 417 500 l 1
 417 458 l 1
 333 458 l 1
292 417 m 1
 292 458 l 1
 375 458 l 1
 375 417 l 1
 292 417 l 1
250 375 m 1
 250 417 l 1
 333 417 l 1
 333 375 l 1
 250 375 l 1
250 333 m 1
 250 375 l 1
 292 375 l 1
 292 333 l 1
 250 333 l 1
208 292 m 1
 208 333 l 1
 250 333 l 1
 250 292 l 1
 208 292 l 1
167 250 m 1
 167 292 l 1
 208 292 l 1
 208 250 l 1
 167 250 l 1
125 208 m 1
 125 250 l 1
 167 250 l 1
 167 208 l 1
 125 208 l 1
83 167 m 1
 83 208 l 1
 125 208 l 1
 125 167 l 1
 83 167 l 1
417 167 m 1
 417 208 l 1
 458 208 l 1
 458 167 l 1
 417 167 l 1
42 125 m 1
 42 167 l 1
 83 167 l 1
 83 125 l 1
 42 125 l 1
417 125 m 1
 417 167 l 1
 458 167 l 1
 458 125 l 1
 417 125 l 1
42 83 m 1
 42 125 l 1
 83 125 l 1
 83 83 l 1
 42 83 l 1
375 83 m 1
 375 125 l 1
 458 125 l 1
 458 83 l 1
 375 83 l 1
0 42 m 1
 0 83 l 1
 458 83 l 1
 458 42 l 1
 0 42 l 1
0 0 m 1
 0 42 l 1
 458 42 l 1
 458 0 l 1
 0 0 l 1
EndSplineSet
EndChar

StartChar: 3
Encoding: 51 51 50
Width: 500
Flags: HW
LayerCount: 2
Back
Fore
SplineSet
83 792 m 1
 83 833 l 1
 292 833 l 1
 292 792 l 1
 83 792 l 1
42 750 m 1
 42 792 l 1
 125 792 l 1
 125 750 l 1
 42 750 l 1
250 750 m 1
 250 792 l 1
 375 792 l 1
 375 750 l 1
 250 750 l 1
0 708 m 1
 0 750 l 1
 42 750 l 1
 42 708 l 1
 0 708 l 1
292 708 m 1
 292 750 l 1
 375 750 l 1
 375 708 l 1
 292 708 l 1
333 667 m 1
 333 708 l 1
 417 708 l 1
 417 667 l 1
 333 667 l 1
333 625 m 1
 333 667 l 1
 417 667 l 1
 417 625 l 1
 333 625 l 1
333 583 m 1
 333 625 l 1
 417 625 l 1
 417 583 l 1
 333 583 l 1
333 542 m 1
 333 583 l 1
 375 583 l 1
 375 542 l 1
 333 542 l 1
292 500 m 1
 292 542 l 1
 333 542 l 1
 333 500 l 1
 292 500 l 1
125 458 m 1
 125 500 l 1
 292 500 l 1
 292 458 l 1
 125 458 l 1
83 417 m 1
 83 458 l 1
 375 458 l 1
 375 417 l 1
 83 417 l 1
292 375 m 1
 292 417 l 1
 417 417 l 1
 417 375 l 1
 292 375 l 1
333 333 m 1
 333 375 l 1
 458 375 l 1
 458 333 l 1
 333 333 l 1
375 292 m 1
 375 333 l 1
 458 333 l 1
 458 292 l 1
 375 292 l 1
375 250 m 1
 375 292 l 1
 458 292 l 1
 458 250 l 1
 375 250 l 1
375 208 m 1
 375 250 l 1
 458 250 l 1
 458 208 l 1
 375 208 l 1
375 167 m 1
 375 208 l 1
 458 208 l 1
 458 167 l 1
 375 167 l 1
333 125 m 1
 333 167 l 1
 417 167 l 1
 417 125 l 1
 333 125 l 1
292 83 m 1
 292 125 l 1
 375 125 l 1
 375 83 l 1
 292 83 l 1
208 42 m 1
 208 83 l 1
 333 83 l 1
 333 42 l 1
 208 42 l 1
0 0 m 1
 0 42 l 1
 208 42 l 1
 208 0 l 1
 0 0 l 1
EndSplineSet
EndChar

StartChar: 4
Encoding: 52 52 51
Width: 500
Flags: HW
LayerCount: 2
Back
Fore
SplineSet
292 792 m 1
 292 833 l 1
 375 833 l 1
 375 792 l 1
 292 792 l 1
292 750 m 1
 292 792 l 1
 375 792 l 1
 375 750 l 1
 292 750 l 1
250 708 m 1
 250 750 l 1
 375 750 l 1
 375 708 l 1
 250 708 l 1
250 667 m 1
 250 708 l 1
 375 708 l 1
 375 667 l 1
 250 667 l 1
208 625 m 1
 208 667 l 1
 250 667 l 1
 250 625 l 1
 208 625 l 1
292 625 m 1
 292 667 l 1
 375 667 l 1
 375 625 l 1
 292 625 l 1
208 583 m 1
 208 625 l 1
 250 625 l 1
 250 583 l 1
 208 583 l 1
292 583 m 1
 292 625 l 1
 375 625 l 1
 375 583 l 1
 292 583 l 1
167 542 m 1
 167 583 l 1
 208 583 l 1
 208 542 l 1
 167 542 l 1
292 542 m 1
 292 583 l 1
 375 583 l 1
 375 542 l 1
 292 542 l 1
167 500 m 1
 167 542 l 1
 208 542 l 1
 208 500 l 1
 167 500 l 1
292 500 m 1
 292 542 l 1
 375 542 l 1
 375 500 l 1
 292 500 l 1
125 458 m 1
 125 500 l 1
 167 500 l 1
 167 458 l 1
 125 458 l 1
292 458 m 1
 292 500 l 1
 375 500 l 1
 375 458 l 1
 292 458 l 1
125 417 m 1
 125 458 l 1
 167 458 l 1
 167 417 l 1
 125 417 l 1
292 417 m 1
 292 458 l 1
 375 458 l 1
 375 417 l 1
 292 417 l 1
83 375 m 1
 83 417 l 1
 125 417 l 1
 125 375 l 1
 83 375 l 1
292 375 m 1
 292 417 l 1
 375 417 l 1
 375 375 l 1
 292 375 l 1
83 333 m 1
 83 375 l 1
 125 375 l 1
 125 333 l 1
 83 333 l 1
292 333 m 1
 292 375 l 1
 375 375 l 1
 375 333 l 1
 292 333 l 1
42 292 m 1
 42 333 l 1
 83 333 l 1
 83 292 l 1
 42 292 l 1
292 292 m 1
 292 333 l 1
 375 333 l 1
 375 292 l 1
 292 292 l 1
42 250 m 1
 42 292 l 1
 83 292 l 1
 83 250 l 1
 42 250 l 1
292 250 m 1
 292 292 l 1
 375 292 l 1
 375 250 l 1
 292 250 l 1
0 208 m 1
 0 250 l 1
 458 250 l 1
 458 208 l 1
 0 208 l 1
292 167 m 1
 292 208 l 1
 375 208 l 1
 375 167 l 1
 292 167 l 1
292 125 m 1
 292 167 l 1
 375 167 l 1
 375 125 l 1
 292 125 l 1
292 83 m 1
 292 125 l 1
 375 125 l 1
 375 83 l 1
 292 83 l 1
292 42 m 1
 292 83 l 1
 375 83 l 1
 375 42 l 1
 292 42 l 1
208 0 m 1
 208 42 l 1
 458 42 l 1
 458 0 l 1
 208 0 l 1
EndSplineSet
EndChar

StartChar: 5
Encoding: 53 53 52
Width: 500
Flags: HW
LayerCount: 2
Back
Fore
SplineSet
42 792 m 1
 42 833 l 1
 458 833 l 1
 458 792 l 1
 42 792 l 1
42 750 m 1
 42 792 l 1
 417 792 l 1
 417 750 l 1
 42 750 l 1
42 708 m 1
 42 750 l 1
 83 750 l 1
 83 708 l 1
 42 708 l 1
42 667 m 1
 42 708 l 1
 83 708 l 1
 83 667 l 1
 42 667 l 1
42 625 m 1
 42 667 l 1
 83 667 l 1
 83 625 l 1
 42 625 l 1
42 583 m 1
 42 625 l 1
 83 625 l 1
 83 583 l 1
 42 583 l 1
42 542 m 1
 42 583 l 1
 83 583 l 1
 83 542 l 1
 42 542 l 1
42 500 m 1
 42 542 l 1
 83 542 l 1
 83 500 l 1
 42 500 l 1
125 500 m 1
 125 542 l 1
 333 542 l 1
 333 500 l 1
 125 500 l 1
42 458 m 1
 42 500 l 1
 167 500 l 1
 167 458 l 1
 42 458 l 1
292 458 m 1
 292 500 l 1
 375 500 l 1
 375 458 l 1
 292 458 l 1
42 417 m 1
 42 458 l 1
 125 458 l 1
 125 417 l 1
 42 417 l 1
333 417 m 1
 333 458 l 1
 417 458 l 1
 417 417 l 1
 333 417 l 1
42 375 m 1
 42 417 l 1
 83 417 l 1
 83 375 l 1
 42 375 l 1
375 375 m 1
 375 417 l 1
 458 417 l 1
 458 375 l 1
 375 375 l 1
375 333 m 1
 375 375 l 1
 458 375 l 1
 458 333 l 1
 375 333 l 1
375 292 m 1
 375 333 l 1
 458 333 l 1
 458 292 l 1
 375 292 l 1
375 250 m 1
 375 292 l 1
 458 292 l 1
 458 250 l 1
 375 250 l 1
375 208 m 1
 375 250 l 1
 458 250 l 1
 458 208 l 1
 375 208 l 1
375 167 m 1
 375 208 l 1
 458 208 l 1
 458 167 l 1
 375 167 l 1
333 125 m 1
 333 167 l 1
 417 167 l 1
 417 125 l 1
 333 125 l 1
333 83 m 1
 333 125 l 1
 417 125 l 1
 417 83 l 1
 333 83 l 1
250 42 m 1
 250 83 l 1
 375 83 l 1
 375 42 l 1
 250 42 l 1
42 0 m 1
 42 42 l 1
 250 42 l 1
 250 0 l 1
 42 0 l 1
EndSplineSet
EndChar

StartChar: 6
Encoding: 54 54 53
Width: 500
Flags: HW
LayerCount: 2
Back
Fore
SplineSet
250 792 m 1
 250 833 l 1
 375 833 l 1
 375 792 l 1
 250 792 l 1
167 750 m 1
 167 792 l 1
 250 792 l 1
 250 750 l 1
 167 750 l 1
125 708 m 1
 125 750 l 1
 167 750 l 1
 167 708 l 1
 125 708 l 1
83 667 m 1
 83 708 l 1
 167 708 l 1
 167 667 l 1
 83 667 l 1
42 625 m 1
 42 667 l 1
 125 667 l 1
 125 625 l 1
 42 625 l 1
42 583 m 1
 42 625 l 1
 125 625 l 1
 125 583 l 1
 42 583 l 1
0 542 m 1
 0 583 l 1
 83 583 l 1
 83 542 l 1
 0 542 l 1
0 500 m 1
 0 542 l 1
 83 542 l 1
 83 500 l 1
 0 500 l 1
0 458 m 1
 0 500 l 1
 83 500 l 1
 83 458 l 1
 0 458 l 1
167 458 m 1
 167 500 l 1
 333 500 l 1
 333 458 l 1
 167 458 l 1
0 417 m 1
 0 458 l 1
 167 458 l 1
 167 417 l 1
 0 417 l 1
333 417 m 1
 333 458 l 1
 417 458 l 1
 417 417 l 1
 333 417 l 1
0 375 m 1
 0 417 l 1
 83 417 l 1
 83 375 l 1
 0 375 l 1
375 375 m 1
 375 417 l 1
 458 417 l 1
 458 375 l 1
 375 375 l 1
0 333 m 1
 0 375 l 1
 83 375 l 1
 83 333 l 1
 0 333 l 1
375 333 m 1
 375 375 l 1
 458 375 l 1
 458 333 l 1
 375 333 l 1
0 292 m 1
 0 333 l 1
 83 333 l 1
 83 292 l 1
 0 292 l 1
375 292 m 1
 375 333 l 1
 458 333 l 1
 458 292 l 1
 375 292 l 1
0 250 m 1
 0 292 l 1
 83 292 l 1
 83 250 l 1
 0 250 l 1
375 250 m 1
 375 292 l 1
 458 292 l 1
 458 250 l 1
 375 250 l 1
0 208 m 1
 0 250 l 1
 83 250 l 1
 83 208 l 1
 0 208 l 1
375 208 m 1
 375 250 l 1
 458 250 l 1
 458 208 l 1
 375 208 l 1
0 167 m 1
 0 208 l 1
 83 208 l 1
 83 167 l 1
 0 167 l 1
375 167 m 1
 375 208 l 1
 458 208 l 1
 458 167 l 1
 375 167 l 1
42 125 m 1
 42 167 l 1
 125 167 l 1
 125 125 l 1
 42 125 l 1
333 125 m 1
 333 167 l 1
 417 167 l 1
 417 125 l 1
 333 125 l 1
42 83 m 1
 42 125 l 1
 125 125 l 1
 125 83 l 1
 42 83 l 1
333 83 m 1
 333 125 l 1
 417 125 l 1
 417 83 l 1
 333 83 l 1
83 42 m 1
 83 83 l 1
 167 83 l 1
 167 42 l 1
 83 42 l 1
292 42 m 1
 292 83 l 1
 375 83 l 1
 375 42 l 1
 292 42 l 1
167 0 m 1
 167 42 l 1
 292 42 l 1
 292 0 l 1
 167 0 l 1
EndSplineSet
EndChar

StartChar: 7
Encoding: 55 55 54
Width: 500
Flags: HW
LayerCount: 2
Back
Fore
SplineSet
0 792 m 1
 0 833 l 1
 458 833 l 1
 458 792 l 1
 0 792 l 1
0 750 m 1
 0 792 l 1
 458 792 l 1
 458 750 l 1
 0 750 l 1
0 708 m 1
 0 750 l 1
 83 750 l 1
 83 708 l 1
 0 708 l 1
417 708 m 1
 417 750 l 1
 458 750 l 1
 458 708 l 1
 417 708 l 1
0 667 m 1
 0 708 l 1
 42 708 l 1
 42 667 l 1
 0 667 l 1
375 667 m 1
 375 708 l 1
 417 708 l 1
 417 667 l 1
 375 667 l 1
0 625 m 1
 0 667 l 1
 42 667 l 1
 42 625 l 1
 0 625 l 1
333 625 m 1
 333 667 l 1
 375 667 l 1
 375 625 l 1
 333 625 l 1
333 583 m 1
 333 625 l 1
 375 625 l 1
 375 583 l 1
 333 583 l 1
292 542 m 1
 292 583 l 1
 333 583 l 1
 333 542 l 1
 292 542 l 1
292 500 m 1
 292 542 l 1
 333 542 l 1
 333 500 l 1
 292 500 l 1
250 458 m 1
 250 500 l 1
 292 500 l 1
 292 458 l 1
 250 458 l 1
250 417 m 1
 250 458 l 1
 292 458 l 1
 292 417 l 1
 250 417 l 1
208 375 m 1
 208 417 l 1
 292 417 l 1
 292 375 l 1
 208 375 l 1
208 333 m 1
 208 375 l 1
 292 375 l 1
 292 333 l 1
 208 333 l 1
208 292 m 1
 208 333 l 1
 250 333 l 1
 250 292 l 1
 208 292 l 1
167 250 m 1
 167 292 l 1
 250 292 l 1
 250 250 l 1
 167 250 l 1
167 208 m 1
 167 250 l 1
 250 250 l 1
 250 208 l 1
 167 208 l 1
167 167 m 1
 167 208 l 1
 250 208 l 1
 250 167 l 1
 167 167 l 1
167 125 m 1
 167 167 l 1
 250 167 l 1
 250 125 l 1
 167 125 l 1
167 83 m 1
 167 125 l 1
 250 125 l 1
 250 83 l 1
 167 83 l 1
167 42 m 1
 167 83 l 1
 250 83 l 1
 250 42 l 1
 167 42 l 1
167 0 m 1
 167 42 l 1
 250 42 l 1
 250 0 l 1
 167 0 l 1
EndSplineSet
EndChar

StartChar: 8
Encoding: 56 56 55
Width: 500
Flags: HW
LayerCount: 2
Back
Fore
SplineSet
167 792 m 1
 167 833 l 1
 292 833 l 1
 292 792 l 1
 167 792 l 1
83 750 m 1
 83 792 l 1
 167 792 l 1
 167 750 l 1
 83 750 l 1
292 750 m 1
 292 792 l 1
 375 792 l 1
 375 750 l 1
 292 750 l 1
83 708 m 1
 83 750 l 1
 125 750 l 1
 125 708 l 1
 83 708 l 1
333 708 m 1
 333 750 l 1
 375 750 l 1
 375 708 l 1
 333 708 l 1
42 667 m 1
 42 708 l 1
 125 708 l 1
 125 667 l 1
 42 667 l 1
333 667 m 1
 333 708 l 1
 417 708 l 1
 417 667 l 1
 333 667 l 1
42 625 m 1
 42 667 l 1
 125 667 l 1
 125 625 l 1
 42 625 l 1
333 625 m 1
 333 667 l 1
 417 667 l 1
 417 625 l 1
 333 625 l 1
42 583 m 1
 42 625 l 1
 125 625 l 1
 125 583 l 1
 42 583 l 1
333 583 m 1
 333 625 l 1
 417 625 l 1
 417 583 l 1
 333 583 l 1
42 542 m 1
 42 583 l 1
 125 583 l 1
 125 542 l 1
 42 542 l 1
333 542 m 1
 333 583 l 1
 417 583 l 1
 417 542 l 1
 333 542 l 1
83 500 m 1
 83 542 l 1
 167 542 l 1
 167 500 l 1
 83 500 l 1
333 500 m 1
 333 542 l 1
 375 542 l 1
 375 500 l 1
 333 500 l 1
83 458 m 1
 83 500 l 1
 208 500 l 1
 208 458 l 1
 83 458 l 1
292 458 m 1
 292 500 l 1
 333 500 l 1
 333 458 l 1
 292 458 l 1
125 417 m 1
 125 458 l 1
 292 458 l 1
 292 417 l 1
 125 417 l 1
125 375 m 1
 125 417 l 1
 333 417 l 1
 333 375 l 1
 125 375 l 1
83 333 m 1
 83 375 l 1
 125 375 l 1
 125 333 l 1
 83 333 l 1
250 333 m 1
 250 375 l 1
 417 375 l 1
 417 333 l 1
 250 333 l 1
42 292 m 1
 42 333 l 1
 83 333 l 1
 83 292 l 1
 42 292 l 1
333 292 m 1
 333 333 l 1
 417 333 l 1
 417 292 l 1
 333 292 l 1
0 250 m 1
 0 292 l 1
 83 292 l 1
 83 250 l 1
 0 250 l 1
375 250 m 1
 375 292 l 1
 458 292 l 1
 458 250 l 1
 375 250 l 1
0 208 m 1
 0 250 l 1
 83 250 l 1
 83 208 l 1
 0 208 l 1
375 208 m 1
 375 250 l 1
 458 250 l 1
 458 208 l 1
 375 208 l 1
0 167 m 1
 0 208 l 1
 83 208 l 1
 83 167 l 1
 0 167 l 1
375 167 m 1
 375 208 l 1
 458 208 l 1
 458 167 l 1
 375 167 l 1
0 125 m 1
 0 167 l 1
 83 167 l 1
 83 125 l 1
 0 125 l 1
375 125 m 1
 375 167 l 1
 458 167 l 1
 458 125 l 1
 375 125 l 1
42 83 m 1
 42 125 l 1
 83 125 l 1
 83 83 l 1
 42 83 l 1
375 83 m 1
 375 125 l 1
 417 125 l 1
 417 83 l 1
 375 83 l 1
42 42 m 1
 42 83 l 1
 125 83 l 1
 125 42 l 1
 42 42 l 1
333 42 m 1
 333 83 l 1
 417 83 l 1
 417 42 l 1
 333 42 l 1
125 0 m 1
 125 42 l 1
 333 42 l 1
 333 0 l 1
 125 0 l 1
EndSplineSet
EndChar

StartChar: 9
Encoding: 57 57 56
Width: 500
Flags: HW
LayerCount: 2
Back
Fore
SplineSet
167 792 m 1
 167 833 l 1
 292 833 l 1
 292 792 l 1
 167 792 l 1
83 750 m 1
 83 792 l 1
 167 792 l 1
 167 750 l 1
 83 750 l 1
292 750 m 1
 292 792 l 1
 375 792 l 1
 375 750 l 1
 292 750 l 1
42 708 m 1
 42 750 l 1
 125 750 l 1
 125 708 l 1
 42 708 l 1
333 708 m 1
 333 750 l 1
 417 750 l 1
 417 708 l 1
 333 708 l 1
42 667 m 1
 42 708 l 1
 125 708 l 1
 125 667 l 1
 42 667 l 1
333 667 m 1
 333 708 l 1
 417 708 l 1
 417 667 l 1
 333 667 l 1
0 625 m 1
 0 667 l 1
 83 667 l 1
 83 625 l 1
 0 625 l 1
375 625 m 1
 375 667 l 1
 458 667 l 1
 458 625 l 1
 375 625 l 1
0 583 m 1
 0 625 l 1
 83 625 l 1
 83 583 l 1
 0 583 l 1
375 583 m 1
 375 625 l 1
 458 625 l 1
 458 583 l 1
 375 583 l 1
0 542 m 1
 0 583 l 1
 83 583 l 1
 83 542 l 1
 0 542 l 1
375 542 m 1
 375 583 l 1
 458 583 l 1
 458 542 l 1
 375 542 l 1
0 500 m 1
 0 542 l 1
 83 542 l 1
 83 500 l 1
 0 500 l 1
375 500 m 1
 375 542 l 1
 458 542 l 1
 458 500 l 1
 375 500 l 1
0 458 m 1
 0 500 l 1
 83 500 l 1
 83 458 l 1
 0 458 l 1
375 458 m 1
 375 500 l 1
 458 500 l 1
 458 458 l 1
 375 458 l 1
42 417 m 1
 42 458 l 1
 83 458 l 1
 83 417 l 1
 42 417 l 1
375 417 m 1
 375 458 l 1
 458 458 l 1
 458 417 l 1
 375 417 l 1
42 375 m 1
 42 417 l 1
 125 417 l 1
 125 375 l 1
 42 375 l 1
292 375 m 1
 292 417 l 1
 458 417 l 1
 458 375 l 1
 292 375 l 1
125 333 m 1
 125 375 l 1
 292 375 l 1
 292 333 l 1
 125 333 l 1
375 333 m 1
 375 375 l 1
 458 375 l 1
 458 333 l 1
 375 333 l 1
375 292 m 1
 375 333 l 1
 458 333 l 1
 458 292 l 1
 375 292 l 1
375 250 m 1
 375 292 l 1
 458 292 l 1
 458 250 l 1
 375 250 l 1
333 208 m 1
 333 250 l 1
 417 250 l 1
 417 208 l 1
 333 208 l 1
333 167 m 1
 333 208 l 1
 417 208 l 1
 417 167 l 1
 333 167 l 1
292 125 m 1
 292 167 l 1
 375 167 l 1
 375 125 l 1
 292 125 l 1
292 83 m 1
 292 125 l 1
 333 125 l 1
 333 83 l 1
 292 83 l 1
208 42 m 1
 208 83 l 1
 292 83 l 1
 292 42 l 1
 208 42 l 1
83 0 m 1
 83 42 l 1
 208 42 l 1
 208 0 l 1
 83 0 l 1
EndSplineSet
EndChar

StartChar: :
Encoding: 58 58 57
Width: 500
Flags: HW
LayerCount: 2
Back
Fore
SplineSet
167 542 m 1
 167 583 l 1
 292 583 l 1
 292 542 l 1
 167 542 l 1
167 500 m 1
 167 542 l 1
 292 542 l 1
 292 500 l 1
 167 500 l 1
167 458 m 1
 167 500 l 1
 292 500 l 1
 292 458 l 1
 167 458 l 1
167 125 m 1
 167 167 l 1
 292 167 l 1
 292 125 l 1
 167 125 l 1
167 83 m 1
 167 125 l 1
 292 125 l 1
 292 83 l 1
 167 83 l 1
167 42 m 1
 167 83 l 1
 292 83 l 1
 292 42 l 1
 167 42 l 1
EndSplineSet
EndChar

StartChar: ;
Encoding: 59 59 58
Width: 500
Flags: HW
LayerCount: 2
Back
Fore
SplineSet
167 542 m 1
 167 583 l 1
 292 583 l 1
 292 542 l 1
 167 542 l 1
167 500 m 1
 167 542 l 1
 292 542 l 1
 292 500 l 1
 167 500 l 1
167 458 m 1
 167 500 l 1
 292 500 l 1
 292 458 l 1
 167 458 l 1
167 125 m 1
 167 167 l 1
 292 167 l 1
 292 125 l 1
 167 125 l 1
167 83 m 1
 167 125 l 1
 292 125 l 1
 292 83 l 1
 167 83 l 1
208 42 m 1
 208 83 l 1
 292 83 l 1
 292 42 l 1
 208 42 l 1
208 0 m 1
 208 42 l 1
 292 42 l 1
 292 0 l 1
 208 0 l 1
208 -42 m 1
 208 0 l 1
 250 0 l 1
 250 -42 l 1
 208 -42 l 1
167 -83 m 1
 167 -42 l 1
 208 -42 l 1
 208 -83 l 1
 167 -83 l 1
EndSplineSet
EndChar

StartChar: <
Encoding: 60 60 59
Width: 500
Flags: HW
LayerCount: 2
Back
Fore
SplineSet
417 792 m 1
 417 833 l 1
 458 833 l 1
 458 792 l 1
 417 792 l 1
375 750 m 1
 375 792 l 1
 458 792 l 1
 458 750 l 1
 375 750 l 1
333 708 m 1
 333 750 l 1
 417 750 l 1
 417 708 l 1
 333 708 l 1
292 667 m 1
 292 708 l 1
 375 708 l 1
 375 667 l 1
 292 667 l 1
250 625 m 1
 250 667 l 1
 333 667 l 1
 333 625 l 1
 250 625 l 1
208 583 m 1
 208 625 l 1
 292 625 l 1
 292 583 l 1
 208 583 l 1
167 542 m 1
 167 583 l 1
 250 583 l 1
 250 542 l 1
 167 542 l 1
125 500 m 1
 125 542 l 1
 208 542 l 1
 208 500 l 1
 125 500 l 1
83 458 m 1
 83 500 l 1
 167 500 l 1
 167 458 l 1
 83 458 l 1
42 417 m 1
 42 458 l 1
 125 458 l 1
 125 417 l 1
 42 417 l 1
42 375 m 1
 42 417 l 1
 125 417 l 1
 125 375 l 1
 42 375 l 1
83 333 m 1
 83 375 l 1
 167 375 l 1
 167 333 l 1
 83 333 l 1
125 292 m 1
 125 333 l 1
 208 333 l 1
 208 292 l 1
 125 292 l 1
167 250 m 1
 167 292 l 1
 250 292 l 1
 250 250 l 1
 167 250 l 1
208 208 m 1
 208 250 l 1
 292 250 l 1
 292 208 l 1
 208 208 l 1
250 167 m 1
 250 208 l 1
 333 208 l 1
 333 167 l 1
 250 167 l 1
292 125 m 1
 292 167 l 1
 375 167 l 1
 375 125 l 1
 292 125 l 1
333 83 m 1
 333 125 l 1
 417 125 l 1
 417 83 l 1
 333 83 l 1
375 42 m 1
 375 83 l 1
 458 83 l 1
 458 42 l 1
 375 42 l 1
417 0 m 1
 417 42 l 1
 458 42 l 1
 458 0 l 1
 417 0 l 1
EndSplineSet
EndChar

StartChar: =
Encoding: 61 61 60
Width: 500
Flags: HW
LayerCount: 2
Back
Fore
SplineSet
0 542 m 1
 0 583 l 1
 458 583 l 1
 458 542 l 1
 0 542 l 1
0 500 m 1
 0 542 l 1
 458 542 l 1
 458 500 l 1
 0 500 l 1
0 292 m 1
 0 333 l 1
 458 333 l 1
 458 292 l 1
 0 292 l 1
0 250 m 1
 0 292 l 1
 458 292 l 1
 458 250 l 1
 0 250 l 1
EndSplineSet
EndChar

StartChar: >
Encoding: 62 62 61
Width: 500
Flags: HW
LayerCount: 2
Back
Fore
SplineSet
42 792 m 1
 42 833 l 1
 83 833 l 1
 83 792 l 1
 42 792 l 1
42 750 m 1
 42 792 l 1
 125 792 l 1
 125 750 l 1
 42 750 l 1
83 708 m 1
 83 750 l 1
 167 750 l 1
 167 708 l 1
 83 708 l 1
125 667 m 1
 125 708 l 1
 208 708 l 1
 208 667 l 1
 125 667 l 1
167 625 m 1
 167 667 l 1
 250 667 l 1
 250 625 l 1
 167 625 l 1
208 583 m 1
 208 625 l 1
 292 625 l 1
 292 583 l 1
 208 583 l 1
250 542 m 1
 250 583 l 1
 333 583 l 1
 333 542 l 1
 250 542 l 1
292 500 m 1
 292 542 l 1
 375 542 l 1
 375 500 l 1
 292 500 l 1
333 458 m 1
 333 500 l 1
 417 500 l 1
 417 458 l 1
 333 458 l 1
375 417 m 1
 375 458 l 1
 458 458 l 1
 458 417 l 1
 375 417 l 1
375 375 m 1
 375 417 l 1
 458 417 l 1
 458 375 l 1
 375 375 l 1
333 333 m 1
 333 375 l 1
 417 375 l 1
 417 333 l 1
 333 333 l 1
292 292 m 1
 292 333 l 1
 375 333 l 1
 375 292 l 1
 292 292 l 1
250 250 m 1
 250 292 l 1
 333 292 l 1
 333 250 l 1
 250 250 l 1
208 208 m 1
 208 250 l 1
 292 250 l 1
 292 208 l 1
 208 208 l 1
167 167 m 1
 167 208 l 1
 250 208 l 1
 250 167 l 1
 167 167 l 1
125 125 m 1
 125 167 l 1
 208 167 l 1
 208 125 l 1
 125 125 l 1
83 83 m 1
 83 125 l 1
 167 125 l 1
 167 83 l 1
 83 83 l 1
42 42 m 1
 42 83 l 1
 125 83 l 1
 125 42 l 1
 42 42 l 1
42 0 m 1
 42 42 l 1
 83 42 l 1
 83 0 l 1
 42 0 l 1
EndSplineSet
EndChar

StartChar: ?
Encoding: 63 63 62
Width: 500
Flags: HW
LayerCount: 2
Back
Fore
SplineSet
167 792 m 1
 167 833 l 1
 333 833 l 1
 333 792 l 1
 167 792 l 1
83 750 m 1
 83 792 l 1
 167 792 l 1
 167 750 l 1
 83 750 l 1
333 750 m 1
 333 792 l 1
 417 792 l 1
 417 750 l 1
 333 750 l 1
42 708 m 1
 42 750 l 1
 125 750 l 1
 125 708 l 1
 42 708 l 1
375 708 m 1
 375 750 l 1
 458 750 l 1
 458 708 l 1
 375 708 l 1
42 667 m 1
 42 708 l 1
 125 708 l 1
 125 667 l 1
 42 667 l 1
375 667 m 1
 375 708 l 1
 458 708 l 1
 458 667 l 1
 375 667 l 1
42 625 m 1
 42 667 l 1
 167 667 l 1
 167 625 l 1
 42 625 l 1
375 625 m 1
 375 667 l 1
 458 667 l 1
 458 625 l 1
 375 625 l 1
83 583 m 1
 83 625 l 1
 167 625 l 1
 167 583 l 1
 83 583 l 1
375 583 m 1
 375 625 l 1
 458 625 l 1
 458 583 l 1
 375 583 l 1
333 542 m 1
 333 583 l 1
 458 583 l 1
 458 542 l 1
 333 542 l 1
333 500 m 1
 333 542 l 1
 417 542 l 1
 417 500 l 1
 333 500 l 1
292 458 m 1
 292 500 l 1
 375 500 l 1
 375 458 l 1
 292 458 l 1
250 417 m 1
 250 458 l 1
 333 458 l 1
 333 417 l 1
 250 417 l 1
250 375 m 1
 250 417 l 1
 292 417 l 1
 292 375 l 1
 250 375 l 1
208 333 m 1
 208 375 l 1
 250 375 l 1
 250 333 l 1
 208 333 l 1
208 292 m 1
 208 333 l 1
 250 333 l 1
 250 292 l 1
 208 292 l 1
208 250 m 1
 208 292 l 1
 250 292 l 1
 250 250 l 1
 208 250 l 1
167 125 m 1
 167 167 l 1
 292 167 l 1
 292 125 l 1
 167 125 l 1
167 83 m 1
 167 125 l 1
 292 125 l 1
 292 83 l 1
 167 83 l 1
167 42 m 1
 167 83 l 1
 292 83 l 1
 292 42 l 1
 167 42 l 1
EndSplineSet
EndChar

StartChar: @
Encoding: 64 64 63
Width: 500
Flags: HW
LayerCount: 2
Back
Fore
SplineSet
125 792 m 1
 125 833 l 1
 333 833 l 1
 333 792 l 1
 125 792 l 1
83 750 m 1
 83 792 l 1
 125 792 l 1
 125 750 l 1
 83 750 l 1
333 750 m 1
 333 792 l 1
 375 792 l 1
 375 750 l 1
 333 750 l 1
42 708 m 1
 42 750 l 1
 125 750 l 1
 125 708 l 1
 42 708 l 1
333 708 m 1
 333 750 l 1
 417 750 l 1
 417 708 l 1
 333 708 l 1
42 667 m 1
 42 708 l 1
 83 708 l 1
 83 667 l 1
 42 667 l 1
375 667 m 1
 375 708 l 1
 417 708 l 1
 417 667 l 1
 375 667 l 1
0 625 m 1
 0 667 l 1
 83 667 l 1
 83 625 l 1
 0 625 l 1
375 625 m 1
 375 667 l 1
 458 667 l 1
 458 625 l 1
 375 625 l 1
0 583 m 1
 0 625 l 1
 42 625 l 1
 42 583 l 1
 0 583 l 1
167 583 m 1
 167 625 l 1
 250 625 l 1
 250 583 l 1
 167 583 l 1
292 583 m 1
 292 625 l 1
 333 625 l 1
 333 583 l 1
 292 583 l 1
417 583 m 1
 417 625 l 1
 458 625 l 1
 458 583 l 1
 417 583 l 1
0 542 m 1
 0 583 l 1
 42 583 l 1
 42 542 l 1
 0 542 l 1
125 542 m 1
 125 583 l 1
 167 583 l 1
 167 542 l 1
 125 542 l 1
208 542 m 1
 208 583 l 1
 333 583 l 1
 333 542 l 1
 208 542 l 1
417 542 m 1
 417 583 l 1
 458 583 l 1
 458 542 l 1
 417 542 l 1
0 500 m 1
 0 542 l 1
 42 542 l 1
 42 500 l 1
 0 500 l 1
83 500 m 1
 83 542 l 1
 167 542 l 1
 167 500 l 1
 83 500 l 1
250 500 m 1
 250 542 l 1
 333 542 l 1
 333 500 l 1
 250 500 l 1
417 500 m 1
 417 542 l 1
 458 542 l 1
 458 500 l 1
 417 500 l 1
0 458 m 1
 0 500 l 1
 42 500 l 1
 42 458 l 1
 0 458 l 1
83 458 m 1
 83 500 l 1
 167 500 l 1
 167 458 l 1
 83 458 l 1
250 458 m 1
 250 500 l 1
 333 500 l 1
 333 458 l 1
 250 458 l 1
417 458 m 1
 417 500 l 1
 458 500 l 1
 458 458 l 1
 417 458 l 1
0 417 m 1
 0 458 l 1
 42 458 l 1
 42 417 l 1
 0 417 l 1
83 417 m 1
 83 458 l 1
 167 458 l 1
 167 417 l 1
 83 417 l 1
250 417 m 1
 250 458 l 1
 333 458 l 1
 333 417 l 1
 250 417 l 1
417 417 m 1
 417 458 l 1
 458 458 l 1
 458 417 l 1
 417 417 l 1
0 375 m 1
 0 417 l 1
 42 417 l 1
 42 375 l 1
 0 375 l 1
83 375 m 1
 83 417 l 1
 167 417 l 1
 167 375 l 1
 83 375 l 1
250 375 m 1
 250 417 l 1
 333 417 l 1
 333 375 l 1
 250 375 l 1
417 375 m 1
 417 417 l 1
 458 417 l 1
 458 375 l 1
 417 375 l 1
0 333 m 1
 0 375 l 1
 42 375 l 1
 42 333 l 1
 0 333 l 1
83 333 m 1
 83 375 l 1
 167 375 l 1
 167 333 l 1
 83 333 l 1
250 333 m 1
 250 375 l 1
 333 375 l 1
 333 333 l 1
 250 333 l 1
417 333 m 1
 417 375 l 1
 458 375 l 1
 458 333 l 1
 417 333 l 1
0 292 m 1
 0 333 l 1
 42 333 l 1
 42 292 l 1
 0 292 l 1
83 292 m 1
 83 333 l 1
 167 333 l 1
 167 292 l 1
 83 292 l 1
250 292 m 1
 250 333 l 1
 333 333 l 1
 333 292 l 1
 250 292 l 1
417 292 m 1
 417 333 l 1
 458 333 l 1
 458 292 l 1
 417 292 l 1
0 250 m 1
 0 292 l 1
 42 292 l 1
 42 250 l 1
 0 250 l 1
83 250 m 1
 83 292 l 1
 167 292 l 1
 167 250 l 1
 83 250 l 1
208 250 m 1
 208 292 l 1
 333 292 l 1
 333 250 l 1
 208 250 l 1
375 250 m 1
 375 292 l 1
 458 292 l 1
 458 250 l 1
 375 250 l 1
0 208 m 1
 0 250 l 1
 42 250 l 1
 42 208 l 1
 0 208 l 1
125 208 m 1
 125 250 l 1
 250 250 l 1
 250 208 l 1
 125 208 l 1
292 208 m 1
 292 250 l 1
 417 250 l 1
 417 208 l 1
 292 208 l 1
0 167 m 1
 0 208 l 1
 83 208 l 1
 83 167 l 1
 0 167 l 1
42 125 m 1
 42 167 l 1
 83 167 l 1
 83 125 l 1
 42 125 l 1
42 83 m 1
 42 125 l 1
 125 125 l 1
 125 83 l 1
 42 83 l 1
417 83 m 1
 417 125 l 1
 458 125 l 1
 458 83 l 1
 417 83 l 1
83 42 m 1
 83 83 l 1
 125 83 l 1
 125 42 l 1
 83 42 l 1
333 42 m 1
 333 83 l 1
 417 83 l 1
 417 42 l 1
 333 42 l 1
125 0 m 1
 125 42 l 1
 333 42 l 1
 333 0 l 1
 125 0 l 1
EndSplineSet
EndChar

StartChar: A
Encoding: 65 65 64
Width: 500
Flags: HW
LayerCount: 2
Back
Fore
SplineSet
208 792 m 1
 208 833 l 1
 292 833 l 1
 292 792 l 1
 208 792 l 1
208 750 m 1
 208 792 l 1
 292 792 l 1
 292 750 l 1
 208 750 l 1
208 708 m 1
 208 750 l 1
 292 750 l 1
 292 708 l 1
 208 708 l 1
167 667 m 1
 167 708 l 1
 208 708 l 1
 208 667 l 1
 167 667 l 1
250 667 m 1
 250 708 l 1
 333 708 l 1
 333 667 l 1
 250 667 l 1
167 625 m 1
 167 667 l 1
 208 667 l 1
 208 625 l 1
 167 625 l 1
250 625 m 1
 250 667 l 1
 333 667 l 1
 333 625 l 1
 250 625 l 1
167 583 m 1
 167 625 l 1
 208 625 l 1
 208 583 l 1
 167 583 l 1
250 583 m 1
 250 625 l 1
 333 625 l 1
 333 583 l 1
 250 583 l 1
167 542 m 1
 167 583 l 1
 208 583 l 1
 208 542 l 1
 167 542 l 1
292 542 m 1
 292 583 l 1
 375 583 l 1
 375 542 l 1
 292 542 l 1
125 500 m 1
 125 542 l 1
 167 542 l 1
 167 500 l 1
 125 500 l 1
292 500 m 1
 292 542 l 1
 375 542 l 1
 375 500 l 1
 292 500 l 1
125 458 m 1
 125 500 l 1
 167 500 l 1
 167 458 l 1
 125 458 l 1
292 458 m 1
 292 500 l 1
 375 500 l 1
 375 458 l 1
 292 458 l 1
125 417 m 1
 125 458 l 1
 167 458 l 1
 167 417 l 1
 125 417 l 1
292 417 m 1
 292 458 l 1
 375 458 l 1
 375 417 l 1
 292 417 l 1
83 375 m 1
 83 417 l 1
 125 417 l 1
 125 375 l 1
 83 375 l 1
333 375 m 1
 333 417 l 1
 417 417 l 1
 417 375 l 1
 333 375 l 1
83 333 m 1
 83 375 l 1
 125 375 l 1
 125 333 l 1
 83 333 l 1
333 333 m 1
 333 375 l 1
 417 375 l 1
 417 333 l 1
 333 333 l 1
83 292 m 1
 83 333 l 1
 417 333 l 1
 417 292 l 1
 83 292 l 1
83 250 m 1
 83 292 l 1
 125 292 l 1
 125 250 l 1
 83 250 l 1
333 250 m 1
 333 292 l 1
 417 292 l 1
 417 250 l 1
 333 250 l 1
42 208 m 1
 42 250 l 1
 83 250 l 1
 83 208 l 1
 42 208 l 1
375 208 m 1
 375 250 l 1
 458 250 l 1
 458 208 l 1
 375 208 l 1
42 167 m 1
 42 208 l 1
 83 208 l 1
 83 167 l 1
 42 167 l 1
375 167 m 1
 375 208 l 1
 458 208 l 1
 458 167 l 1
 375 167 l 1
42 125 m 1
 42 167 l 1
 83 167 l 1
 83 125 l 1
 42 125 l 1
375 125 m 1
 375 167 l 1
 458 167 l 1
 458 125 l 1
 375 125 l 1
42 83 m 1
 42 125 l 1
 83 125 l 1
 83 83 l 1
 42 83 l 1
375 83 m 1
 375 125 l 1
 458 125 l 1
 458 83 l 1
 375 83 l 1
0 42 m 1
 0 83 l 1
 125 83 l 1
 125 42 l 1
 0 42 l 1
333 42 m 1
 333 83 l 1
 500 83 l 1
 500 42 l 1
 333 42 l 1
EndSplineSet
EndChar

StartChar: B
Encoding: 66 66 65
Width: 500
Flags: HW
LayerCount: 2
Back
Fore
SplineSet
0 792 m 1
 0 833 l 1
 292 833 l 1
 292 792 l 1
 0 792 l 1
42 750 m 1
 42 792 l 1
 125 792 l 1
 125 750 l 1
 42 750 l 1
292 750 m 1
 292 792 l 1
 375 792 l 1
 375 750 l 1
 292 750 l 1
42 708 m 1
 42 750 l 1
 125 750 l 1
 125 708 l 1
 42 708 l 1
333 708 m 1
 333 750 l 1
 417 750 l 1
 417 708 l 1
 333 708 l 1
42 667 m 1
 42 708 l 1
 125 708 l 1
 125 667 l 1
 42 667 l 1
333 667 m 1
 333 708 l 1
 417 708 l 1
 417 667 l 1
 333 667 l 1
42 625 m 1
 42 667 l 1
 125 667 l 1
 125 625 l 1
 42 625 l 1
333 625 m 1
 333 667 l 1
 417 667 l 1
 417 625 l 1
 333 625 l 1
42 583 m 1
 42 625 l 1
 125 625 l 1
 125 583 l 1
 42 583 l 1
333 583 m 1
 333 625 l 1
 417 625 l 1
 417 583 l 1
 333 583 l 1
42 542 m 1
 42 583 l 1
 125 583 l 1
 125 542 l 1
 42 542 l 1
333 542 m 1
 333 583 l 1
 417 583 l 1
 417 542 l 1
 333 542 l 1
42 500 m 1
 42 542 l 1
 125 542 l 1
 125 500 l 1
 42 500 l 1
333 500 m 1
 333 542 l 1
 375 542 l 1
 375 500 l 1
 333 500 l 1
42 458 m 1
 42 500 l 1
 125 500 l 1
 125 458 l 1
 42 458 l 1
292 458 m 1
 292 500 l 1
 333 500 l 1
 333 458 l 1
 292 458 l 1
42 417 m 1
 42 458 l 1
 292 458 l 1
 292 417 l 1
 42 417 l 1
42 375 m 1
 42 417 l 1
 125 417 l 1
 125 375 l 1
 42 375 l 1
292 375 m 1
 292 417 l 1
 375 417 l 1
 375 375 l 1
 292 375 l 1
42 333 m 1
 42 375 l 1
 125 375 l 1
 125 333 l 1
 42 333 l 1
333 333 m 1
 333 375 l 1
 417 375 l 1
 417 333 l 1
 333 333 l 1
42 292 m 1
 42 333 l 1
 125 333 l 1
 125 292 l 1
 42 292 l 1
375 292 m 1
 375 333 l 1
 458 333 l 1
 458 292 l 1
 375 292 l 1
42 250 m 1
 42 292 l 1
 125 292 l 1
 125 250 l 1
 42 250 l 1
375 250 m 1
 375 292 l 1
 458 292 l 1
 458 250 l 1
 375 250 l 1
42 208 m 1
 42 250 l 1
 125 250 l 1
 125 208 l 1
 42 208 l 1
375 208 m 1
 375 250 l 1
 458 250 l 1
 458 208 l 1
 375 208 l 1
42 167 m 1
 42 208 l 1
 125 208 l 1
 125 167 l 1
 42 167 l 1
375 167 m 1
 375 208 l 1
 458 208 l 1
 458 167 l 1
 375 167 l 1
42 125 m 1
 42 167 l 1
 125 167 l 1
 125 125 l 1
 42 125 l 1
333 125 m 1
 333 167 l 1
 417 167 l 1
 417 125 l 1
 333 125 l 1
42 83 m 1
 42 125 l 1
 125 125 l 1
 125 83 l 1
 42 83 l 1
292 83 m 1
 292 125 l 1
 375 125 l 1
 375 83 l 1
 292 83 l 1
0 42 m 1
 0 83 l 1
 292 83 l 1
 292 42 l 1
 0 42 l 1
EndSplineSet
EndChar

StartChar: C
Encoding: 67 67 66
Width: 500
Flags: HW
LayerCount: 2
Back
Fore
SplineSet
208 792 m 1
 208 833 l 1
 333 833 l 1
 333 792 l 1
 208 792 l 1
417 792 m 1
 417 833 l 1
 458 833 l 1
 458 792 l 1
 417 792 l 1
125 750 m 1
 125 792 l 1
 208 792 l 1
 208 750 l 1
 125 750 l 1
333 750 m 1
 333 792 l 1
 458 792 l 1
 458 750 l 1
 333 750 l 1
83 708 m 1
 83 750 l 1
 167 750 l 1
 167 708 l 1
 83 708 l 1
375 708 m 1
 375 750 l 1
 458 750 l 1
 458 708 l 1
 375 708 l 1
83 667 m 1
 83 708 l 1
 167 708 l 1
 167 667 l 1
 83 667 l 1
417 667 m 1
 417 708 l 1
 458 708 l 1
 458 667 l 1
 417 667 l 1
42 625 m 1
 42 667 l 1
 125 667 l 1
 125 625 l 1
 42 625 l 1
42 583 m 1
 42 625 l 1
 125 625 l 1
 125 583 l 1
 42 583 l 1
42 542 m 1
 42 583 l 1
 125 583 l 1
 125 542 l 1
 42 542 l 1
42 500 m 1
 42 542 l 1
 125 542 l 1
 125 500 l 1
 42 500 l 1
42 458 m 1
 42 500 l 1
 125 500 l 1
 125 458 l 1
 42 458 l 1
42 417 m 1
 42 458 l 1
 125 458 l 1
 125 417 l 1
 42 417 l 1
42 375 m 1
 42 417 l 1
 125 417 l 1
 125 375 l 1
 42 375 l 1
42 333 m 1
 42 375 l 1
 125 375 l 1
 125 333 l 1
 42 333 l 1
42 292 m 1
 42 333 l 1
 125 333 l 1
 125 292 l 1
 42 292 l 1
42 250 m 1
 42 292 l 1
 125 292 l 1
 125 250 l 1
 42 250 l 1
42 208 m 1
 42 250 l 1
 125 250 l 1
 125 208 l 1
 42 208 l 1
83 167 m 1
 83 208 l 1
 167 208 l 1
 167 167 l 1
 83 167 l 1
417 167 m 1
 417 208 l 1
 458 208 l 1
 458 167 l 1
 417 167 l 1
83 125 m 1
 83 167 l 1
 167 167 l 1
 167 125 l 1
 83 125 l 1
417 125 m 1
 417 167 l 1
 458 167 l 1
 458 125 l 1
 417 125 l 1
125 83 m 1
 125 125 l 1
 208 125 l 1
 208 83 l 1
 125 83 l 1
333 83 m 1
 333 125 l 1
 417 125 l 1
 417 83 l 1
 333 83 l 1
208 42 m 1
 208 83 l 1
 333 83 l 1
 333 42 l 1
 208 42 l 1
EndSplineSet
EndChar

StartChar: D
Encoding: 68 68 67
Width: 500
Flags: HW
LayerCount: 2
Back
Fore
SplineSet
0 792 m 1
 0 833 l 1
 250 833 l 1
 250 792 l 1
 0 792 l 1
42 750 m 1
 42 792 l 1
 125 792 l 1
 125 750 l 1
 42 750 l 1
250 750 m 1
 250 792 l 1
 333 792 l 1
 333 750 l 1
 250 750 l 1
42 708 m 1
 42 750 l 1
 125 750 l 1
 125 708 l 1
 42 708 l 1
292 708 m 1
 292 750 l 1
 375 750 l 1
 375 708 l 1
 292 708 l 1
42 667 m 1
 42 708 l 1
 125 708 l 1
 125 667 l 1
 42 667 l 1
333 667 m 1
 333 708 l 1
 417 708 l 1
 417 667 l 1
 333 667 l 1
42 625 m 1
 42 667 l 1
 125 667 l 1
 125 625 l 1
 42 625 l 1
333 625 m 1
 333 667 l 1
 417 667 l 1
 417 625 l 1
 333 625 l 1
42 583 m 1
 42 625 l 1
 125 625 l 1
 125 583 l 1
 42 583 l 1
375 583 m 1
 375 625 l 1
 458 625 l 1
 458 583 l 1
 375 583 l 1
42 542 m 1
 42 583 l 1
 125 583 l 1
 125 542 l 1
 42 542 l 1
375 542 m 1
 375 583 l 1
 458 583 l 1
 458 542 l 1
 375 542 l 1
42 500 m 1
 42 542 l 1
 125 542 l 1
 125 500 l 1
 42 500 l 1
375 500 m 1
 375 542 l 1
 458 542 l 1
 458 500 l 1
 375 500 l 1
42 458 m 1
 42 500 l 1
 125 500 l 1
 125 458 l 1
 42 458 l 1
375 458 m 1
 375 500 l 1
 458 500 l 1
 458 458 l 1
 375 458 l 1
42 417 m 1
 42 458 l 1
 125 458 l 1
 125 417 l 1
 42 417 l 1
375 417 m 1
 375 458 l 1
 458 458 l 1
 458 417 l 1
 375 417 l 1
42 375 m 1
 42 417 l 1
 125 417 l 1
 125 375 l 1
 42 375 l 1
375 375 m 1
 375 417 l 1
 458 417 l 1
 458 375 l 1
 375 375 l 1
42 333 m 1
 42 375 l 1
 125 375 l 1
 125 333 l 1
 42 333 l 1
375 333 m 1
 375 375 l 1
 458 375 l 1
 458 333 l 1
 375 333 l 1
42 292 m 1
 42 333 l 1
 125 333 l 1
 125 292 l 1
 42 292 l 1
375 292 m 1
 375 333 l 1
 458 333 l 1
 458 292 l 1
 375 292 l 1
42 250 m 1
 42 292 l 1
 125 292 l 1
 125 250 l 1
 42 250 l 1
375 250 m 1
 375 292 l 1
 458 292 l 1
 458 250 l 1
 375 250 l 1
42 208 m 1
 42 250 l 1
 125 250 l 1
 125 208 l 1
 42 208 l 1
333 208 m 1
 333 250 l 1
 417 250 l 1
 417 208 l 1
 333 208 l 1
42 167 m 1
 42 208 l 1
 125 208 l 1
 125 167 l 1
 42 167 l 1
333 167 m 1
 333 208 l 1
 417 208 l 1
 417 167 l 1
 333 167 l 1
42 125 m 1
 42 167 l 1
 125 167 l 1
 125 125 l 1
 42 125 l 1
292 125 m 1
 292 167 l 1
 375 167 l 1
 375 125 l 1
 292 125 l 1
42 83 m 1
 42 125 l 1
 125 125 l 1
 125 83 l 1
 42 83 l 1
250 83 m 1
 250 125 l 1
 333 125 l 1
 333 83 l 1
 250 83 l 1
0 42 m 1
 0 83 l 1
 250 83 l 1
 250 42 l 1
 0 42 l 1
EndSplineSet
EndChar

StartChar: E
Encoding: 69 69 68
Width: 500
Flags: HW
LayerCount: 2
Back
Fore
SplineSet
0 792 m 1
 0 833 l 1
 417 833 l 1
 417 792 l 1
 0 792 l 1
42 750 m 1
 42 792 l 1
 125 792 l 1
 125 750 l 1
 42 750 l 1
333 750 m 1
 333 792 l 1
 417 792 l 1
 417 750 l 1
 333 750 l 1
42 708 m 1
 42 750 l 1
 125 750 l 1
 125 708 l 1
 42 708 l 1
375 708 m 1
 375 750 l 1
 417 750 l 1
 417 708 l 1
 375 708 l 1
42 667 m 1
 42 708 l 1
 125 708 l 1
 125 667 l 1
 42 667 l 1
417 667 m 1
 417 708 l 1
 458 708 l 1
 458 667 l 1
 417 667 l 1
42 625 m 1
 42 667 l 1
 125 667 l 1
 125 625 l 1
 42 625 l 1
42 583 m 1
 42 625 l 1
 125 625 l 1
 125 583 l 1
 42 583 l 1
42 542 m 1
 42 583 l 1
 125 583 l 1
 125 542 l 1
 42 542 l 1
292 542 m 1
 292 583 l 1
 333 583 l 1
 333 542 l 1
 292 542 l 1
42 500 m 1
 42 542 l 1
 125 542 l 1
 125 500 l 1
 42 500 l 1
292 500 m 1
 292 542 l 1
 333 542 l 1
 333 500 l 1
 292 500 l 1
42 458 m 1
 42 500 l 1
 125 500 l 1
 125 458 l 1
 42 458 l 1
250 458 m 1
 250 500 l 1
 333 500 l 1
 333 458 l 1
 250 458 l 1
42 417 m 1
 42 458 l 1
 333 458 l 1
 333 417 l 1
 42 417 l 1
42 375 m 1
 42 417 l 1
 125 417 l 1
 125 375 l 1
 42 375 l 1
250 375 m 1
 250 417 l 1
 333 417 l 1
 333 375 l 1
 250 375 l 1
42 333 m 1
 42 375 l 1
 125 375 l 1
 125 333 l 1
 42 333 l 1
292 333 m 1
 292 375 l 1
 333 375 l 1
 333 333 l 1
 292 333 l 1
42 292 m 1
 42 333 l 1
 125 333 l 1
 125 292 l 1
 42 292 l 1
292 292 m 1
 292 333 l 1
 333 333 l 1
 333 292 l 1
 292 292 l 1
42 250 m 1
 42 292 l 1
 125 292 l 1
 125 250 l 1
 42 250 l 1
42 208 m 1
 42 250 l 1
 125 250 l 1
 125 208 l 1
 42 208 l 1
42 167 m 1
 42 208 l 1
 125 208 l 1
 125 167 l 1
 42 167 l 1
417 167 m 1
 417 208 l 1
 458 208 l 1
 458 167 l 1
 417 167 l 1
42 125 m 1
 42 167 l 1
 125 167 l 1
 125 125 l 1
 42 125 l 1
375 125 m 1
 375 167 l 1
 417 167 l 1
 417 125 l 1
 375 125 l 1
42 83 m 1
 42 125 l 1
 125 125 l 1
 125 83 l 1
 42 83 l 1
333 83 m 1
 333 125 l 1
 417 125 l 1
 417 83 l 1
 333 83 l 1
0 42 m 1
 0 83 l 1
 417 83 l 1
 417 42 l 1
 0 42 l 1
EndSplineSet
EndChar

StartChar: F
Encoding: 70 70 69
Width: 500
Flags: HW
LayerCount: 2
Back
Fore
SplineSet
0 792 m 1
 0 833 l 1
 417 833 l 1
 417 792 l 1
 0 792 l 1
42 750 m 1
 42 792 l 1
 125 792 l 1
 125 750 l 1
 42 750 l 1
333 750 m 1
 333 792 l 1
 417 792 l 1
 417 750 l 1
 333 750 l 1
42 708 m 1
 42 750 l 1
 125 750 l 1
 125 708 l 1
 42 708 l 1
375 708 m 1
 375 750 l 1
 417 750 l 1
 417 708 l 1
 375 708 l 1
42 667 m 1
 42 708 l 1
 125 708 l 1
 125 667 l 1
 42 667 l 1
417 667 m 1
 417 708 l 1
 458 708 l 1
 458 667 l 1
 417 667 l 1
42 625 m 1
 42 667 l 1
 125 667 l 1
 125 625 l 1
 42 625 l 1
42 583 m 1
 42 625 l 1
 125 625 l 1
 125 583 l 1
 42 583 l 1
42 542 m 1
 42 583 l 1
 125 583 l 1
 125 542 l 1
 42 542 l 1
292 542 m 1
 292 583 l 1
 333 583 l 1
 333 542 l 1
 292 542 l 1
42 500 m 1
 42 542 l 1
 125 542 l 1
 125 500 l 1
 42 500 l 1
292 500 m 1
 292 542 l 1
 333 542 l 1
 333 500 l 1
 292 500 l 1
42 458 m 1
 42 500 l 1
 125 500 l 1
 125 458 l 1
 42 458 l 1
250 458 m 1
 250 500 l 1
 333 500 l 1
 333 458 l 1
 250 458 l 1
42 417 m 1
 42 458 l 1
 333 458 l 1
 333 417 l 1
 42 417 l 1
42 375 m 1
 42 417 l 1
 125 417 l 1
 125 375 l 1
 42 375 l 1
250 375 m 1
 250 417 l 1
 333 417 l 1
 333 375 l 1
 250 375 l 1
42 333 m 1
 42 375 l 1
 125 375 l 1
 125 333 l 1
 42 333 l 1
292 333 m 1
 292 375 l 1
 333 375 l 1
 333 333 l 1
 292 333 l 1
42 292 m 1
 42 333 l 1
 125 333 l 1
 125 292 l 1
 42 292 l 1
292 292 m 1
 292 333 l 1
 333 333 l 1
 333 292 l 1
 292 292 l 1
42 250 m 1
 42 292 l 1
 125 292 l 1
 125 250 l 1
 42 250 l 1
42 208 m 1
 42 250 l 1
 125 250 l 1
 125 208 l 1
 42 208 l 1
42 167 m 1
 42 208 l 1
 125 208 l 1
 125 167 l 1
 42 167 l 1
42 125 m 1
 42 167 l 1
 125 167 l 1
 125 125 l 1
 42 125 l 1
42 83 m 1
 42 125 l 1
 125 125 l 1
 125 83 l 1
 42 83 l 1
0 42 m 1
 0 83 l 1
 167 83 l 1
 167 42 l 1
 0 42 l 1
EndSplineSet
EndChar

StartChar: G
Encoding: 71 71 70
Width: 500
Flags: HW
LayerCount: 2
Back
Fore
SplineSet
167 792 m 1
 167 833 l 1
 292 833 l 1
 292 792 l 1
 167 792 l 1
375 792 m 1
 375 833 l 1
 417 833 l 1
 417 792 l 1
 375 792 l 1
83 750 m 1
 83 792 l 1
 167 792 l 1
 167 750 l 1
 83 750 l 1
292 750 m 1
 292 792 l 1
 417 792 l 1
 417 750 l 1
 292 750 l 1
42 708 m 1
 42 750 l 1
 125 750 l 1
 125 708 l 1
 42 708 l 1
333 708 m 1
 333 750 l 1
 417 750 l 1
 417 708 l 1
 333 708 l 1
42 667 m 1
 42 708 l 1
 125 708 l 1
 125 667 l 1
 42 667 l 1
375 667 m 1
 375 708 l 1
 417 708 l 1
 417 667 l 1
 375 667 l 1
0 625 m 1
 0 667 l 1
 83 667 l 1
 83 625 l 1
 0 625 l 1
0 583 m 1
 0 625 l 1
 83 625 l 1
 83 583 l 1
 0 583 l 1
0 542 m 1
 0 583 l 1
 83 583 l 1
 83 542 l 1
 0 542 l 1
0 500 m 1
 0 542 l 1
 83 542 l 1
 83 500 l 1
 0 500 l 1
0 458 m 1
 0 500 l 1
 83 500 l 1
 83 458 l 1
 0 458 l 1
0 417 m 1
 0 458 l 1
 83 458 l 1
 83 417 l 1
 0 417 l 1
0 375 m 1
 0 417 l 1
 83 417 l 1
 83 375 l 1
 0 375 l 1
250 375 m 1
 250 417 l 1
 458 417 l 1
 458 375 l 1
 250 375 l 1
0 333 m 1
 0 375 l 1
 83 375 l 1
 83 333 l 1
 0 333 l 1
333 333 m 1
 333 375 l 1
 417 375 l 1
 417 333 l 1
 333 333 l 1
0 292 m 1
 0 333 l 1
 83 333 l 1
 83 292 l 1
 0 292 l 1
333 292 m 1
 333 333 l 1
 417 333 l 1
 417 292 l 1
 333 292 l 1
0 250 m 1
 0 292 l 1
 83 292 l 1
 83 250 l 1
 0 250 l 1
333 250 m 1
 333 292 l 1
 417 292 l 1
 417 250 l 1
 333 250 l 1
0 208 m 1
 0 250 l 1
 83 250 l 1
 83 208 l 1
 0 208 l 1
333 208 m 1
 333 250 l 1
 417 250 l 1
 417 208 l 1
 333 208 l 1
42 167 m 1
 42 208 l 1
 125 208 l 1
 125 167 l 1
 42 167 l 1
333 167 m 1
 333 208 l 1
 417 208 l 1
 417 167 l 1
 333 167 l 1
42 125 m 1
 42 167 l 1
 125 167 l 1
 125 125 l 1
 42 125 l 1
333 125 m 1
 333 167 l 1
 417 167 l 1
 417 125 l 1
 333 125 l 1
83 83 m 1
 83 125 l 1
 167 125 l 1
 167 83 l 1
 83 83 l 1
292 83 m 1
 292 125 l 1
 417 125 l 1
 417 83 l 1
 292 83 l 1
167 42 m 1
 167 83 l 1
 292 83 l 1
 292 42 l 1
 167 42 l 1
375 42 m 1
 375 83 l 1
 417 83 l 1
 417 42 l 1
 375 42 l 1
EndSplineSet
EndChar

StartChar: H
Encoding: 72 72 71
Width: 500
Flags: HW
LayerCount: 2
Back
Fore
SplineSet
0 792 m 1
 0 833 l 1
 167 833 l 1
 167 792 l 1
 0 792 l 1
292 792 m 1
 292 833 l 1
 458 833 l 1
 458 792 l 1
 292 792 l 1
42 750 m 1
 42 792 l 1
 125 792 l 1
 125 750 l 1
 42 750 l 1
333 750 m 1
 333 792 l 1
 417 792 l 1
 417 750 l 1
 333 750 l 1
42 708 m 1
 42 750 l 1
 125 750 l 1
 125 708 l 1
 42 708 l 1
333 708 m 1
 333 750 l 1
 417 750 l 1
 417 708 l 1
 333 708 l 1
42 667 m 1
 42 708 l 1
 125 708 l 1
 125 667 l 1
 42 667 l 1
333 667 m 1
 333 708 l 1
 417 708 l 1
 417 667 l 1
 333 667 l 1
42 625 m 1
 42 667 l 1
 125 667 l 1
 125 625 l 1
 42 625 l 1
333 625 m 1
 333 667 l 1
 417 667 l 1
 417 625 l 1
 333 625 l 1
42 583 m 1
 42 625 l 1
 125 625 l 1
 125 583 l 1
 42 583 l 1
333 583 m 1
 333 625 l 1
 417 625 l 1
 417 583 l 1
 333 583 l 1
42 542 m 1
 42 583 l 1
 125 583 l 1
 125 542 l 1
 42 542 l 1
333 542 m 1
 333 583 l 1
 417 583 l 1
 417 542 l 1
 333 542 l 1
42 500 m 1
 42 542 l 1
 125 542 l 1
 125 500 l 1
 42 500 l 1
333 500 m 1
 333 542 l 1
 417 542 l 1
 417 500 l 1
 333 500 l 1
42 458 m 1
 42 500 l 1
 125 500 l 1
 125 458 l 1
 42 458 l 1
333 458 m 1
 333 500 l 1
 417 500 l 1
 417 458 l 1
 333 458 l 1
42 417 m 1
 42 458 l 1
 417 458 l 1
 417 417 l 1
 42 417 l 1
42 375 m 1
 42 417 l 1
 125 417 l 1
 125 375 l 1
 42 375 l 1
333 375 m 1
 333 417 l 1
 417 417 l 1
 417 375 l 1
 333 375 l 1
42 333 m 1
 42 375 l 1
 125 375 l 1
 125 333 l 1
 42 333 l 1
333 333 m 1
 333 375 l 1
 417 375 l 1
 417 333 l 1
 333 333 l 1
42 292 m 1
 42 333 l 1
 125 333 l 1
 125 292 l 1
 42 292 l 1
333 292 m 1
 333 333 l 1
 417 333 l 1
 417 292 l 1
 333 292 l 1
42 250 m 1
 42 292 l 1
 125 292 l 1
 125 250 l 1
 42 250 l 1
333 250 m 1
 333 292 l 1
 417 292 l 1
 417 250 l 1
 333 250 l 1
42 208 m 1
 42 250 l 1
 125 250 l 1
 125 208 l 1
 42 208 l 1
333 208 m 1
 333 250 l 1
 417 250 l 1
 417 208 l 1
 333 208 l 1
42 167 m 1
 42 208 l 1
 125 208 l 1
 125 167 l 1
 42 167 l 1
333 167 m 1
 333 208 l 1
 417 208 l 1
 417 167 l 1
 333 167 l 1
42 125 m 1
 42 167 l 1
 125 167 l 1
 125 125 l 1
 42 125 l 1
333 125 m 1
 333 167 l 1
 417 167 l 1
 417 125 l 1
 333 125 l 1
42 83 m 1
 42 125 l 1
 125 125 l 1
 125 83 l 1
 42 83 l 1
333 83 m 1
 333 125 l 1
 417 125 l 1
 417 83 l 1
 333 83 l 1
0 42 m 1
 0 83 l 1
 167 83 l 1
 167 42 l 1
 0 42 l 1
292 42 m 1
 292 83 l 1
 458 83 l 1
 458 42 l 1
 292 42 l 1
EndSplineSet
EndChar

StartChar: I
Encoding: 73 73 72
Width: 500
Flags: HW
LayerCount: 2
Back
Fore
SplineSet
83 792 m 1
 83 833 l 1
 333 833 l 1
 333 792 l 1
 83 792 l 1
167 750 m 1
 167 792 l 1
 250 792 l 1
 250 750 l 1
 167 750 l 1
167 708 m 1
 167 750 l 1
 250 750 l 1
 250 708 l 1
 167 708 l 1
167 667 m 1
 167 708 l 1
 250 708 l 1
 250 667 l 1
 167 667 l 1
167 625 m 1
 167 667 l 1
 250 667 l 1
 250 625 l 1
 167 625 l 1
167 583 m 1
 167 625 l 1
 250 625 l 1
 250 583 l 1
 167 583 l 1
167 542 m 1
 167 583 l 1
 250 583 l 1
 250 542 l 1
 167 542 l 1
167 500 m 1
 167 542 l 1
 250 542 l 1
 250 500 l 1
 167 500 l 1
167 458 m 1
 167 500 l 1
 250 500 l 1
 250 458 l 1
 167 458 l 1
167 417 m 1
 167 458 l 1
 250 458 l 1
 250 417 l 1
 167 417 l 1
167 375 m 1
 167 417 l 1
 250 417 l 1
 250 375 l 1
 167 375 l 1
167 333 m 1
 167 375 l 1
 250 375 l 1
 250 333 l 1
 167 333 l 1
167 292 m 1
 167 333 l 1
 250 333 l 1
 250 292 l 1
 167 292 l 1
167 250 m 1
 167 292 l 1
 250 292 l 1
 250 250 l 1
 167 250 l 1
167 208 m 1
 167 250 l 1
 250 250 l 1
 250 208 l 1
 167 208 l 1
167 167 m 1
 167 208 l 1
 250 208 l 1
 250 167 l 1
 167 167 l 1
167 125 m 1
 167 167 l 1
 250 167 l 1
 250 125 l 1
 167 125 l 1
167 83 m 1
 167 125 l 1
 250 125 l 1
 250 83 l 1
 167 83 l 1
83 42 m 1
 83 83 l 1
 333 83 l 1
 333 42 l 1
 83 42 l 1
EndSplineSet
EndChar

StartChar: J
Encoding: 74 74 73
Width: 500
Flags: HW
LayerCount: 2
Back
Fore
SplineSet
208 792 m 1
 208 833 l 1
 458 833 l 1
 458 792 l 1
 208 792 l 1
292 750 m 1
 292 792 l 1
 375 792 l 1
 375 750 l 1
 292 750 l 1
292 708 m 1
 292 750 l 1
 375 750 l 1
 375 708 l 1
 292 708 l 1
292 667 m 1
 292 708 l 1
 375 708 l 1
 375 667 l 1
 292 667 l 1
292 625 m 1
 292 667 l 1
 375 667 l 1
 375 625 l 1
 292 625 l 1
292 583 m 1
 292 625 l 1
 375 625 l 1
 375 583 l 1
 292 583 l 1
292 542 m 1
 292 583 l 1
 375 583 l 1
 375 542 l 1
 292 542 l 1
292 500 m 1
 292 542 l 1
 375 542 l 1
 375 500 l 1
 292 500 l 1
292 458 m 1
 292 500 l 1
 375 500 l 1
 375 458 l 1
 292 458 l 1
292 417 m 1
 292 458 l 1
 375 458 l 1
 375 417 l 1
 292 417 l 1
292 375 m 1
 292 417 l 1
 375 417 l 1
 375 375 l 1
 292 375 l 1
292 333 m 1
 292 375 l 1
 375 375 l 1
 375 333 l 1
 292 333 l 1
292 292 m 1
 292 333 l 1
 375 333 l 1
 375 292 l 1
 292 292 l 1
42 250 m 1
 42 292 l 1
 125 292 l 1
 125 250 l 1
 42 250 l 1
292 250 m 1
 292 292 l 1
 375 292 l 1
 375 250 l 1
 292 250 l 1
0 208 m 1
 0 250 l 1
 125 250 l 1
 125 208 l 1
 0 208 l 1
292 208 m 1
 292 250 l 1
 375 250 l 1
 375 208 l 1
 292 208 l 1
0 167 m 1
 0 208 l 1
 83 208 l 1
 83 167 l 1
 0 167 l 1
292 167 m 1
 292 208 l 1
 375 208 l 1
 375 167 l 1
 292 167 l 1
0 125 m 1
 0 167 l 1
 83 167 l 1
 83 125 l 1
 0 125 l 1
292 125 m 1
 292 167 l 1
 375 167 l 1
 375 125 l 1
 292 125 l 1
42 83 m 1
 42 125 l 1
 125 125 l 1
 125 83 l 1
 42 83 l 1
250 83 m 1
 250 125 l 1
 333 125 l 1
 333 83 l 1
 250 83 l 1
125 42 m 1
 125 83 l 1
 250 83 l 1
 250 42 l 1
 125 42 l 1
EndSplineSet
EndChar

StartChar: K
Encoding: 75 75 74
Width: 500
Flags: HW
LayerCount: 2
Back
Fore
SplineSet
0 792 m 1
 0 833 l 1
 167 833 l 1
 167 792 l 1
 0 792 l 1
292 792 m 1
 292 833 l 1
 458 833 l 1
 458 792 l 1
 292 792 l 1
42 750 m 1
 42 792 l 1
 125 792 l 1
 125 750 l 1
 42 750 l 1
375 750 m 1
 375 792 l 1
 417 792 l 1
 417 750 l 1
 375 750 l 1
42 708 m 1
 42 750 l 1
 125 750 l 1
 125 708 l 1
 42 708 l 1
333 708 m 1
 333 750 l 1
 375 750 l 1
 375 708 l 1
 333 708 l 1
42 667 m 1
 42 708 l 1
 125 708 l 1
 125 667 l 1
 42 667 l 1
333 667 m 1
 333 708 l 1
 375 708 l 1
 375 667 l 1
 333 667 l 1
42 625 m 1
 42 667 l 1
 125 667 l 1
 125 625 l 1
 42 625 l 1
292 625 m 1
 292 667 l 1
 333 667 l 1
 333 625 l 1
 292 625 l 1
42 583 m 1
 42 625 l 1
 125 625 l 1
 125 583 l 1
 42 583 l 1
250 583 m 1
 250 625 l 1
 292 625 l 1
 292 583 l 1
 250 583 l 1
42 542 m 1
 42 583 l 1
 125 583 l 1
 125 542 l 1
 42 542 l 1
250 542 m 1
 250 583 l 1
 292 583 l 1
 292 542 l 1
 250 542 l 1
42 500 m 1
 42 542 l 1
 125 542 l 1
 125 500 l 1
 42 500 l 1
208 500 m 1
 208 542 l 1
 250 542 l 1
 250 500 l 1
 208 500 l 1
42 458 m 1
 42 500 l 1
 125 500 l 1
 125 458 l 1
 42 458 l 1
167 458 m 1
 167 500 l 1
 208 500 l 1
 208 458 l 1
 167 458 l 1
42 417 m 1
 42 458 l 1
 250 458 l 1
 250 417 l 1
 42 417 l 1
42 375 m 1
 42 417 l 1
 250 417 l 1
 250 375 l 1
 42 375 l 1
42 333 m 1
 42 375 l 1
 125 375 l 1
 125 333 l 1
 42 333 l 1
208 333 m 1
 208 375 l 1
 292 375 l 1
 292 333 l 1
 208 333 l 1
42 292 m 1
 42 333 l 1
 125 333 l 1
 125 292 l 1
 42 292 l 1
208 292 m 1
 208 333 l 1
 292 333 l 1
 292 292 l 1
 208 292 l 1
42 250 m 1
 42 292 l 1
 125 292 l 1
 125 250 l 1
 42 250 l 1
250 250 m 1
 250 292 l 1
 333 292 l 1
 333 250 l 1
 250 250 l 1
42 208 m 1
 42 250 l 1
 125 250 l 1
 125 208 l 1
 42 208 l 1
250 208 m 1
 250 250 l 1
 333 250 l 1
 333 208 l 1
 250 208 l 1
42 167 m 1
 42 208 l 1
 125 208 l 1
 125 167 l 1
 42 167 l 1
292 167 m 1
 292 208 l 1
 375 208 l 1
 375 167 l 1
 292 167 l 1
42 125 m 1
 42 167 l 1
 125 167 l 1
 125 125 l 1
 42 125 l 1
292 125 m 1
 292 167 l 1
 375 167 l 1
 375 125 l 1
 292 125 l 1
42 83 m 1
 42 125 l 1
 125 125 l 1
 125 83 l 1
 42 83 l 1
333 83 m 1
 333 125 l 1
 417 125 l 1
 417 83 l 1
 333 83 l 1
0 42 m 1
 0 83 l 1
 167 83 l 1
 167 42 l 1
 0 42 l 1
292 42 m 1
 292 83 l 1
 458 83 l 1
 458 42 l 1
 292 42 l 1
EndSplineSet
EndChar

StartChar: L
Encoding: 76 76 75
Width: 500
Flags: HW
LayerCount: 2
Back
Fore
SplineSet
0 792 m 1
 0 833 l 1
 167 833 l 1
 167 792 l 1
 0 792 l 1
42 750 m 1
 42 792 l 1
 125 792 l 1
 125 750 l 1
 42 750 l 1
42 708 m 1
 42 750 l 1
 125 750 l 1
 125 708 l 1
 42 708 l 1
42 667 m 1
 42 708 l 1
 125 708 l 1
 125 667 l 1
 42 667 l 1
42 625 m 1
 42 667 l 1
 125 667 l 1
 125 625 l 1
 42 625 l 1
42 583 m 1
 42 625 l 1
 125 625 l 1
 125 583 l 1
 42 583 l 1
42 542 m 1
 42 583 l 1
 125 583 l 1
 125 542 l 1
 42 542 l 1
42 500 m 1
 42 542 l 1
 125 542 l 1
 125 500 l 1
 42 500 l 1
42 458 m 1
 42 500 l 1
 125 500 l 1
 125 458 l 1
 42 458 l 1
42 417 m 1
 42 458 l 1
 125 458 l 1
 125 417 l 1
 42 417 l 1
42 375 m 1
 42 417 l 1
 125 417 l 1
 125 375 l 1
 42 375 l 1
42 333 m 1
 42 375 l 1
 125 375 l 1
 125 333 l 1
 42 333 l 1
42 292 m 1
 42 333 l 1
 125 333 l 1
 125 292 l 1
 42 292 l 1
42 250 m 1
 42 292 l 1
 125 292 l 1
 125 250 l 1
 42 250 l 1
42 208 m 1
 42 250 l 1
 125 250 l 1
 125 208 l 1
 42 208 l 1
42 167 m 1
 42 208 l 1
 125 208 l 1
 125 167 l 1
 42 167 l 1
417 167 m 1
 417 208 l 1
 458 208 l 1
 458 167 l 1
 417 167 l 1
42 125 m 1
 42 167 l 1
 125 167 l 1
 125 125 l 1
 42 125 l 1
375 125 m 1
 375 167 l 1
 417 167 l 1
 417 125 l 1
 375 125 l 1
42 83 m 1
 42 125 l 1
 125 125 l 1
 125 83 l 1
 42 83 l 1
333 83 m 1
 333 125 l 1
 417 125 l 1
 417 83 l 1
 333 83 l 1
0 42 m 1
 0 83 l 1
 417 83 l 1
 417 42 l 1
 0 42 l 1
EndSplineSet
EndChar

StartChar: M
Encoding: 77 77 76
Width: 500
Flags: HW
LayerCount: 2
Back
Fore
SplineSet
0 792 m 1
 0 833 l 1
 125 833 l 1
 125 792 l 1
 0 792 l 1
375 792 m 1
 375 833 l 1
 500 833 l 1
 500 792 l 1
 375 792 l 1
42 750 m 1
 42 792 l 1
 125 792 l 1
 125 750 l 1
 42 750 l 1
375 750 m 1
 375 792 l 1
 458 792 l 1
 458 750 l 1
 375 750 l 1
42 708 m 1
 42 750 l 1
 125 750 l 1
 125 708 l 1
 42 708 l 1
333 708 m 1
 333 750 l 1
 458 750 l 1
 458 708 l 1
 333 708 l 1
42 667 m 1
 42 708 l 1
 167 708 l 1
 167 667 l 1
 42 667 l 1
333 667 m 1
 333 708 l 1
 458 708 l 1
 458 667 l 1
 333 667 l 1
42 625 m 1
 42 667 l 1
 167 667 l 1
 167 625 l 1
 42 625 l 1
333 625 m 1
 333 667 l 1
 458 667 l 1
 458 625 l 1
 333 625 l 1
42 583 m 1
 42 625 l 1
 167 625 l 1
 167 583 l 1
 42 583 l 1
292 583 m 1
 292 625 l 1
 333 625 l 1
 333 583 l 1
 292 583 l 1
375 583 m 1
 375 625 l 1
 458 625 l 1
 458 583 l 1
 375 583 l 1
42 542 m 1
 42 583 l 1
 83 583 l 1
 83 542 l 1
 42 542 l 1
125 542 m 1
 125 583 l 1
 208 583 l 1
 208 542 l 1
 125 542 l 1
292 542 m 1
 292 583 l 1
 333 583 l 1
 333 542 l 1
 292 542 l 1
375 542 m 1
 375 583 l 1
 458 583 l 1
 458 542 l 1
 375 542 l 1
42 500 m 1
 42 542 l 1
 83 542 l 1
 83 500 l 1
 42 500 l 1
125 500 m 1
 125 542 l 1
 208 542 l 1
 208 500 l 1
 125 500 l 1
292 500 m 1
 292 542 l 1
 333 542 l 1
 333 500 l 1
 292 500 l 1
375 500 m 1
 375 542 l 1
 458 542 l 1
 458 500 l 1
 375 500 l 1
42 458 m 1
 42 500 l 1
 83 500 l 1
 83 458 l 1
 42 458 l 1
125 458 m 1
 125 500 l 1
 208 500 l 1
 208 458 l 1
 125 458 l 1
250 458 m 1
 250 500 l 1
 333 500 l 1
 333 458 l 1
 250 458 l 1
375 458 m 1
 375 500 l 1
 458 500 l 1
 458 458 l 1
 375 458 l 1
42 417 m 1
 42 458 l 1
 83 458 l 1
 83 417 l 1
 42 417 l 1
167 417 m 1
 167 458 l 1
 292 458 l 1
 292 417 l 1
 167 417 l 1
375 417 m 1
 375 458 l 1
 458 458 l 1
 458 417 l 1
 375 417 l 1
42 375 m 1
 42 417 l 1
 83 417 l 1
 83 375 l 1
 42 375 l 1
167 375 m 1
 167 417 l 1
 292 417 l 1
 292 375 l 1
 167 375 l 1
375 375 m 1
 375 417 l 1
 458 417 l 1
 458 375 l 1
 375 375 l 1
42 333 m 1
 42 375 l 1
 83 375 l 1
 83 333 l 1
 42 333 l 1
167 333 m 1
 167 375 l 1
 292 375 l 1
 292 333 l 1
 167 333 l 1
375 333 m 1
 375 375 l 1
 458 375 l 1
 458 333 l 1
 375 333 l 1
42 292 m 1
 42 333 l 1
 83 333 l 1
 83 292 l 1
 42 292 l 1
208 292 m 1
 208 333 l 1
 250 333 l 1
 250 292 l 1
 208 292 l 1
375 292 m 1
 375 333 l 1
 458 333 l 1
 458 292 l 1
 375 292 l 1
42 250 m 1
 42 292 l 1
 83 292 l 1
 83 250 l 1
 42 250 l 1
208 250 m 1
 208 292 l 1
 250 292 l 1
 250 250 l 1
 208 250 l 1
375 250 m 1
 375 292 l 1
 458 292 l 1
 458 250 l 1
 375 250 l 1
42 208 m 1
 42 250 l 1
 83 250 l 1
 83 208 l 1
 42 208 l 1
375 208 m 1
 375 250 l 1
 458 250 l 1
 458 208 l 1
 375 208 l 1
42 167 m 1
 42 208 l 1
 83 208 l 1
 83 167 l 1
 42 167 l 1
375 167 m 1
 375 208 l 1
 458 208 l 1
 458 167 l 1
 375 167 l 1
42 125 m 1
 42 167 l 1
 83 167 l 1
 83 125 l 1
 42 125 l 1
375 125 m 1
 375 167 l 1
 458 167 l 1
 458 125 l 1
 375 125 l 1
42 83 m 1
 42 125 l 1
 83 125 l 1
 83 83 l 1
 42 83 l 1
375 83 m 1
 375 125 l 1
 458 125 l 1
 458 83 l 1
 375 83 l 1
0 42 m 1
 0 83 l 1
 125 83 l 1
 125 42 l 1
 0 42 l 1
333 42 m 1
 333 83 l 1
 500 83 l 1
 500 42 l 1
 333 42 l 1
EndSplineSet
EndChar

StartChar: N
Encoding: 78 78 77
Width: 500
Flags: HW
LayerCount: 2
Back
Fore
SplineSet
0 792 m 1
 0 833 l 1
 125 833 l 1
 125 792 l 1
 0 792 l 1
333 792 m 1
 333 833 l 1
 458 833 l 1
 458 792 l 1
 333 792 l 1
42 750 m 1
 42 792 l 1
 125 792 l 1
 125 750 l 1
 42 750 l 1
375 750 m 1
 375 792 l 1
 417 792 l 1
 417 750 l 1
 375 750 l 1
42 708 m 1
 42 750 l 1
 167 750 l 1
 167 708 l 1
 42 708 l 1
375 708 m 1
 375 750 l 1
 417 750 l 1
 417 708 l 1
 375 708 l 1
42 667 m 1
 42 708 l 1
 167 708 l 1
 167 667 l 1
 42 667 l 1
375 667 m 1
 375 708 l 1
 417 708 l 1
 417 667 l 1
 375 667 l 1
42 625 m 1
 42 667 l 1
 167 667 l 1
 167 625 l 1
 42 625 l 1
375 625 m 1
 375 667 l 1
 417 667 l 1
 417 625 l 1
 375 625 l 1
42 583 m 1
 42 625 l 1
 83 625 l 1
 83 583 l 1
 42 583 l 1
125 583 m 1
 125 625 l 1
 208 625 l 1
 208 583 l 1
 125 583 l 1
375 583 m 1
 375 625 l 1
 417 625 l 1
 417 583 l 1
 375 583 l 1
42 542 m 1
 42 583 l 1
 83 583 l 1
 83 542 l 1
 42 542 l 1
125 542 m 1
 125 583 l 1
 208 583 l 1
 208 542 l 1
 125 542 l 1
375 542 m 1
 375 583 l 1
 417 583 l 1
 417 542 l 1
 375 542 l 1
42 500 m 1
 42 542 l 1
 83 542 l 1
 83 500 l 1
 42 500 l 1
167 500 m 1
 167 542 l 1
 250 542 l 1
 250 500 l 1
 167 500 l 1
375 500 m 1
 375 542 l 1
 417 542 l 1
 417 500 l 1
 375 500 l 1
42 458 m 1
 42 500 l 1
 83 500 l 1
 83 458 l 1
 42 458 l 1
167 458 m 1
 167 500 l 1
 250 500 l 1
 250 458 l 1
 167 458 l 1
375 458 m 1
 375 500 l 1
 417 500 l 1
 417 458 l 1
 375 458 l 1
42 417 m 1
 42 458 l 1
 83 458 l 1
 83 417 l 1
 42 417 l 1
208 417 m 1
 208 458 l 1
 292 458 l 1
 292 417 l 1
 208 417 l 1
375 417 m 1
 375 458 l 1
 417 458 l 1
 417 417 l 1
 375 417 l 1
42 375 m 1
 42 417 l 1
 83 417 l 1
 83 375 l 1
 42 375 l 1
208 375 m 1
 208 417 l 1
 292 417 l 1
 292 375 l 1
 208 375 l 1
375 375 m 1
 375 417 l 1
 417 417 l 1
 417 375 l 1
 375 375 l 1
42 333 m 1
 42 375 l 1
 83 375 l 1
 83 333 l 1
 42 333 l 1
250 333 m 1
 250 375 l 1
 333 375 l 1
 333 333 l 1
 250 333 l 1
375 333 m 1
 375 375 l 1
 417 375 l 1
 417 333 l 1
 375 333 l 1
42 292 m 1
 42 333 l 1
 83 333 l 1
 83 292 l 1
 42 292 l 1
250 292 m 1
 250 333 l 1
 333 333 l 1
 333 292 l 1
 250 292 l 1
375 292 m 1
 375 333 l 1
 417 333 l 1
 417 292 l 1
 375 292 l 1
42 250 m 1
 42 292 l 1
 83 292 l 1
 83 250 l 1
 42 250 l 1
250 250 m 1
 250 292 l 1
 333 292 l 1
 333 250 l 1
 250 250 l 1
375 250 m 1
 375 292 l 1
 417 292 l 1
 417 250 l 1
 375 250 l 1
42 208 m 1
 42 250 l 1
 83 250 l 1
 83 208 l 1
 42 208 l 1
292 208 m 1
 292 250 l 1
 417 250 l 1
 417 208 l 1
 292 208 l 1
42 167 m 1
 42 208 l 1
 83 208 l 1
 83 167 l 1
 42 167 l 1
292 167 m 1
 292 208 l 1
 417 208 l 1
 417 167 l 1
 292 167 l 1
42 125 m 1
 42 167 l 1
 83 167 l 1
 83 125 l 1
 42 125 l 1
333 125 m 1
 333 167 l 1
 417 167 l 1
 417 125 l 1
 333 125 l 1
42 83 m 1
 42 125 l 1
 83 125 l 1
 83 83 l 1
 42 83 l 1
333 83 m 1
 333 125 l 1
 417 125 l 1
 417 83 l 1
 333 83 l 1
0 42 m 1
 0 83 l 1
 125 83 l 1
 125 42 l 1
 0 42 l 1
375 42 m 1
 375 83 l 1
 417 83 l 1
 417 42 l 1
 375 42 l 1
EndSplineSet
EndChar

StartChar: O
Encoding: 79 79 78
Width: 500
Flags: HW
LayerCount: 2
Back
Fore
SplineSet
125 792 m 1
 125 833 l 1
 333 833 l 1
 333 792 l 1
 125 792 l 1
42 750 m 1
 42 792 l 1
 125 792 l 1
 125 750 l 1
 42 750 l 1
333 750 m 1
 333 792 l 1
 417 792 l 1
 417 750 l 1
 333 750 l 1
42 708 m 1
 42 750 l 1
 83 750 l 1
 83 708 l 1
 42 708 l 1
375 708 m 1
 375 750 l 1
 417 750 l 1
 417 708 l 1
 375 708 l 1
0 667 m 1
 0 708 l 1
 83 708 l 1
 83 667 l 1
 0 667 l 1
375 667 m 1
 375 708 l 1
 458 708 l 1
 458 667 l 1
 375 667 l 1
0 625 m 1
 0 667 l 1
 83 667 l 1
 83 625 l 1
 0 625 l 1
375 625 m 1
 375 667 l 1
 458 667 l 1
 458 625 l 1
 375 625 l 1
0 583 m 1
 0 625 l 1
 83 625 l 1
 83 583 l 1
 0 583 l 1
375 583 m 1
 375 625 l 1
 458 625 l 1
 458 583 l 1
 375 583 l 1
0 542 m 1
 0 583 l 1
 83 583 l 1
 83 542 l 1
 0 542 l 1
375 542 m 1
 375 583 l 1
 458 583 l 1
 458 542 l 1
 375 542 l 1
0 500 m 1
 0 542 l 1
 83 542 l 1
 83 500 l 1
 0 500 l 1
375 500 m 1
 375 542 l 1
 458 542 l 1
 458 500 l 1
 375 500 l 1
0 458 m 1
 0 500 l 1
 83 500 l 1
 83 458 l 1
 0 458 l 1
375 458 m 1
 375 500 l 1
 458 500 l 1
 458 458 l 1
 375 458 l 1
0 417 m 1
 0 458 l 1
 83 458 l 1
 83 417 l 1
 0 417 l 1
375 417 m 1
 375 458 l 1
 458 458 l 1
 458 417 l 1
 375 417 l 1
0 375 m 1
 0 417 l 1
 83 417 l 1
 83 375 l 1
 0 375 l 1
375 375 m 1
 375 417 l 1
 458 417 l 1
 458 375 l 1
 375 375 l 1
0 333 m 1
 0 375 l 1
 83 375 l 1
 83 333 l 1
 0 333 l 1
375 333 m 1
 375 375 l 1
 458 375 l 1
 458 333 l 1
 375 333 l 1
0 292 m 1
 0 333 l 1
 83 333 l 1
 83 292 l 1
 0 292 l 1
375 292 m 1
 375 333 l 1
 458 333 l 1
 458 292 l 1
 375 292 l 1
0 250 m 1
 0 292 l 1
 83 292 l 1
 83 250 l 1
 0 250 l 1
375 250 m 1
 375 292 l 1
 458 292 l 1
 458 250 l 1
 375 250 l 1
0 208 m 1
 0 250 l 1
 83 250 l 1
 83 208 l 1
 0 208 l 1
375 208 m 1
 375 250 l 1
 458 250 l 1
 458 208 l 1
 375 208 l 1
0 167 m 1
 0 208 l 1
 83 208 l 1
 83 167 l 1
 0 167 l 1
375 167 m 1
 375 208 l 1
 458 208 l 1
 458 167 l 1
 375 167 l 1
42 125 m 1
 42 167 l 1
 83 167 l 1
 83 125 l 1
 42 125 l 1
375 125 m 1
 375 167 l 1
 417 167 l 1
 417 125 l 1
 375 125 l 1
42 83 m 1
 42 125 l 1
 125 125 l 1
 125 83 l 1
 42 83 l 1
333 83 m 1
 333 125 l 1
 417 125 l 1
 417 83 l 1
 333 83 l 1
125 42 m 1
 125 83 l 1
 333 83 l 1
 333 42 l 1
 125 42 l 1
EndSplineSet
EndChar

StartChar: P
Encoding: 80 80 79
Width: 500
Flags: HW
LayerCount: 2
Back
Fore
SplineSet
0 792 m 1
 0 833 l 1
 292 833 l 1
 292 792 l 1
 0 792 l 1
42 750 m 1
 42 792 l 1
 125 792 l 1
 125 750 l 1
 42 750 l 1
292 750 m 1
 292 792 l 1
 375 792 l 1
 375 750 l 1
 292 750 l 1
42 708 m 1
 42 750 l 1
 125 750 l 1
 125 708 l 1
 42 708 l 1
333 708 m 1
 333 750 l 1
 417 750 l 1
 417 708 l 1
 333 708 l 1
42 667 m 1
 42 708 l 1
 125 708 l 1
 125 667 l 1
 42 667 l 1
375 667 m 1
 375 708 l 1
 458 708 l 1
 458 667 l 1
 375 667 l 1
42 625 m 1
 42 667 l 1
 125 667 l 1
 125 625 l 1
 42 625 l 1
375 625 m 1
 375 667 l 1
 458 667 l 1
 458 625 l 1
 375 625 l 1
42 583 m 1
 42 625 l 1
 125 625 l 1
 125 583 l 1
 42 583 l 1
375 583 m 1
 375 625 l 1
 458 625 l 1
 458 583 l 1
 375 583 l 1
42 542 m 1
 42 583 l 1
 125 583 l 1
 125 542 l 1
 42 542 l 1
375 542 m 1
 375 583 l 1
 458 583 l 1
 458 542 l 1
 375 542 l 1
42 500 m 1
 42 542 l 1
 125 542 l 1
 125 500 l 1
 42 500 l 1
375 500 m 1
 375 542 l 1
 458 542 l 1
 458 500 l 1
 375 500 l 1
42 458 m 1
 42 500 l 1
 125 500 l 1
 125 458 l 1
 42 458 l 1
333 458 m 1
 333 500 l 1
 417 500 l 1
 417 458 l 1
 333 458 l 1
42 417 m 1
 42 458 l 1
 125 458 l 1
 125 417 l 1
 42 417 l 1
292 417 m 1
 292 458 l 1
 375 458 l 1
 375 417 l 1
 292 417 l 1
42 375 m 1
 42 417 l 1
 292 417 l 1
 292 375 l 1
 42 375 l 1
42 333 m 1
 42 375 l 1
 125 375 l 1
 125 333 l 1
 42 333 l 1
42 292 m 1
 42 333 l 1
 125 333 l 1
 125 292 l 1
 42 292 l 1
42 250 m 1
 42 292 l 1
 125 292 l 1
 125 250 l 1
 42 250 l 1
42 208 m 1
 42 250 l 1
 125 250 l 1
 125 208 l 1
 42 208 l 1
42 167 m 1
 42 208 l 1
 125 208 l 1
 125 167 l 1
 42 167 l 1
42 125 m 1
 42 167 l 1
 125 167 l 1
 125 125 l 1
 42 125 l 1
42 83 m 1
 42 125 l 1
 125 125 l 1
 125 83 l 1
 42 83 l 1
0 42 m 1
 0 83 l 1
 167 83 l 1
 167 42 l 1
 0 42 l 1
EndSplineSet
EndChar

StartChar: Q
Encoding: 81 81 80
Width: 500
Flags: HW
LayerCount: 2
Back
Fore
SplineSet
125 792 m 1
 125 833 l 1
 292 833 l 1
 292 792 l 1
 125 792 l 1
42 750 m 1
 42 792 l 1
 125 792 l 1
 125 750 l 1
 42 750 l 1
292 750 m 1
 292 792 l 1
 375 792 l 1
 375 750 l 1
 292 750 l 1
42 708 m 1
 42 750 l 1
 83 750 l 1
 83 708 l 1
 42 708 l 1
333 708 m 1
 333 750 l 1
 375 750 l 1
 375 708 l 1
 333 708 l 1
0 667 m 1
 0 708 l 1
 83 708 l 1
 83 667 l 1
 0 667 l 1
333 667 m 1
 333 708 l 1
 417 708 l 1
 417 667 l 1
 333 667 l 1
0 625 m 1
 0 667 l 1
 83 667 l 1
 83 625 l 1
 0 625 l 1
333 625 m 1
 333 667 l 1
 417 667 l 1
 417 625 l 1
 333 625 l 1
0 583 m 1
 0 625 l 1
 83 625 l 1
 83 583 l 1
 0 583 l 1
333 583 m 1
 333 625 l 1
 417 625 l 1
 417 583 l 1
 333 583 l 1
0 542 m 1
 0 583 l 1
 83 583 l 1
 83 542 l 1
 0 542 l 1
333 542 m 1
 333 583 l 1
 417 583 l 1
 417 542 l 1
 333 542 l 1
0 500 m 1
 0 542 l 1
 83 542 l 1
 83 500 l 1
 0 500 l 1
333 500 m 1
 333 542 l 1
 417 542 l 1
 417 500 l 1
 333 500 l 1
0 458 m 1
 0 500 l 1
 83 500 l 1
 83 458 l 1
 0 458 l 1
333 458 m 1
 333 500 l 1
 417 500 l 1
 417 458 l 1
 333 458 l 1
0 417 m 1
 0 458 l 1
 83 458 l 1
 83 417 l 1
 0 417 l 1
333 417 m 1
 333 458 l 1
 417 458 l 1
 417 417 l 1
 333 417 l 1
0 375 m 1
 0 417 l 1
 83 417 l 1
 83 375 l 1
 0 375 l 1
333 375 m 1
 333 417 l 1
 417 417 l 1
 417 375 l 1
 333 375 l 1
0 333 m 1
 0 375 l 1
 83 375 l 1
 83 333 l 1
 0 333 l 1
333 333 m 1
 333 375 l 1
 417 375 l 1
 417 333 l 1
 333 333 l 1
0 292 m 1
 0 333 l 1
 83 333 l 1
 83 292 l 1
 0 292 l 1
333 292 m 1
 333 333 l 1
 417 333 l 1
 417 292 l 1
 333 292 l 1
0 250 m 1
 0 292 l 1
 83 292 l 1
 83 250 l 1
 0 250 l 1
333 250 m 1
 333 292 l 1
 417 292 l 1
 417 250 l 1
 333 250 l 1
0 208 m 1
 0 250 l 1
 83 250 l 1
 83 208 l 1
 0 208 l 1
167 208 m 1
 167 250 l 1
 250 250 l 1
 250 208 l 1
 167 208 l 1
333 208 m 1
 333 250 l 1
 417 250 l 1
 417 208 l 1
 333 208 l 1
0 167 m 1
 0 208 l 1
 83 208 l 1
 83 167 l 1
 0 167 l 1
125 167 m 1
 125 208 l 1
 167 208 l 1
 167 167 l 1
 125 167 l 1
250 167 m 1
 250 208 l 1
 292 208 l 1
 292 167 l 1
 250 167 l 1
333 167 m 1
 333 208 l 1
 417 208 l 1
 417 167 l 1
 333 167 l 1
42 125 m 1
 42 167 l 1
 125 167 l 1
 125 125 l 1
 42 125 l 1
250 125 m 1
 250 167 l 1
 292 167 l 1
 292 125 l 1
 250 125 l 1
333 125 m 1
 333 167 l 1
 375 167 l 1
 375 125 l 1
 333 125 l 1
42 83 m 1
 42 125 l 1
 125 125 l 1
 125 83 l 1
 42 83 l 1
250 83 m 1
 250 125 l 1
 375 125 l 1
 375 83 l 1
 250 83 l 1
125 42 m 1
 125 83 l 1
 292 83 l 1
 292 42 l 1
 125 42 l 1
250 0 m 1
 250 42 l 1
 333 42 l 1
 333 0 l 1
 250 0 l 1
417 0 m 1
 417 42 l 1
 458 42 l 1
 458 0 l 1
 417 0 l 1
292 -42 m 1
 292 0 l 1
 458 0 l 1
 458 -42 l 1
 292 -42 l 1
333 -83 m 1
 333 -42 l 1
 417 -42 l 1
 417 -83 l 1
 333 -83 l 1
EndSplineSet
EndChar

StartChar: R
Encoding: 82 82 81
Width: 500
Flags: HW
LayerCount: 2
Back
Fore
SplineSet
0 792 m 1
 0 833 l 1
 292 833 l 1
 292 792 l 1
 0 792 l 1
42 750 m 1
 42 792 l 1
 125 792 l 1
 125 750 l 1
 42 750 l 1
292 750 m 1
 292 792 l 1
 375 792 l 1
 375 750 l 1
 292 750 l 1
42 708 m 1
 42 750 l 1
 125 750 l 1
 125 708 l 1
 42 708 l 1
333 708 m 1
 333 750 l 1
 375 750 l 1
 375 708 l 1
 333 708 l 1
42 667 m 1
 42 708 l 1
 125 708 l 1
 125 667 l 1
 42 667 l 1
333 667 m 1
 333 708 l 1
 417 708 l 1
 417 667 l 1
 333 667 l 1
42 625 m 1
 42 667 l 1
 125 667 l 1
 125 625 l 1
 42 625 l 1
333 625 m 1
 333 667 l 1
 417 667 l 1
 417 625 l 1
 333 625 l 1
42 583 m 1
 42 625 l 1
 125 625 l 1
 125 583 l 1
 42 583 l 1
333 583 m 1
 333 625 l 1
 417 625 l 1
 417 583 l 1
 333 583 l 1
42 542 m 1
 42 583 l 1
 125 583 l 1
 125 542 l 1
 42 542 l 1
333 542 m 1
 333 583 l 1
 417 583 l 1
 417 542 l 1
 333 542 l 1
42 500 m 1
 42 542 l 1
 125 542 l 1
 125 500 l 1
 42 500 l 1
333 500 m 1
 333 542 l 1
 375 542 l 1
 375 500 l 1
 333 500 l 1
42 458 m 1
 42 500 l 1
 125 500 l 1
 125 458 l 1
 42 458 l 1
292 458 m 1
 292 500 l 1
 375 500 l 1
 375 458 l 1
 292 458 l 1
42 417 m 1
 42 458 l 1
 292 458 l 1
 292 417 l 1
 42 417 l 1
42 375 m 1
 42 417 l 1
 125 417 l 1
 125 375 l 1
 42 375 l 1
250 375 m 1
 250 417 l 1
 292 417 l 1
 292 375 l 1
 250 375 l 1
42 333 m 1
 42 375 l 1
 125 375 l 1
 125 333 l 1
 42 333 l 1
292 333 m 1
 292 375 l 1
 333 375 l 1
 333 333 l 1
 292 333 l 1
42 292 m 1
 42 333 l 1
 125 333 l 1
 125 292 l 1
 42 292 l 1
292 292 m 1
 292 333 l 1
 375 333 l 1
 375 292 l 1
 292 292 l 1
42 250 m 1
 42 292 l 1
 125 292 l 1
 125 250 l 1
 42 250 l 1
292 250 m 1
 292 292 l 1
 375 292 l 1
 375 250 l 1
 292 250 l 1
42 208 m 1
 42 250 l 1
 125 250 l 1
 125 208 l 1
 42 208 l 1
292 208 m 1
 292 250 l 1
 375 250 l 1
 375 208 l 1
 292 208 l 1
42 167 m 1
 42 208 l 1
 125 208 l 1
 125 167 l 1
 42 167 l 1
292 167 m 1
 292 208 l 1
 375 208 l 1
 375 167 l 1
 292 167 l 1
42 125 m 1
 42 167 l 1
 125 167 l 1
 125 125 l 1
 42 125 l 1
292 125 m 1
 292 167 l 1
 375 167 l 1
 375 125 l 1
 292 125 l 1
417 125 m 1
 417 167 l 1
 458 167 l 1
 458 125 l 1
 417 125 l 1
42 83 m 1
 42 125 l 1
 125 125 l 1
 125 83 l 1
 42 83 l 1
292 83 m 1
 292 125 l 1
 375 125 l 1
 375 83 l 1
 292 83 l 1
417 83 m 1
 417 125 l 1
 458 125 l 1
 458 83 l 1
 417 83 l 1
0 42 m 1
 0 83 l 1
 167 83 l 1
 167 42 l 1
 0 42 l 1
333 42 m 1
 333 83 l 1
 417 83 l 1
 417 42 l 1
 333 42 l 1
EndSplineSet
EndChar

StartChar: S
Encoding: 83 83 82
Width: 500
Flags: HW
LayerCount: 2
Back
Fore
SplineSet
125 792 m 1
 125 833 l 1
 292 833 l 1
 292 792 l 1
 125 792 l 1
375 792 m 1
 375 833 l 1
 417 833 l 1
 417 792 l 1
 375 792 l 1
42 750 m 1
 42 792 l 1
 125 792 l 1
 125 750 l 1
 42 750 l 1
292 750 m 1
 292 792 l 1
 417 792 l 1
 417 750 l 1
 292 750 l 1
0 708 m 1
 0 750 l 1
 83 750 l 1
 83 708 l 1
 0 708 l 1
333 708 m 1
 333 750 l 1
 417 750 l 1
 417 708 l 1
 333 708 l 1
0 667 m 1
 0 708 l 1
 83 708 l 1
 83 667 l 1
 0 667 l 1
375 667 m 1
 375 708 l 1
 417 708 l 1
 417 667 l 1
 375 667 l 1
0 625 m 1
 0 667 l 1
 83 667 l 1
 83 625 l 1
 0 625 l 1
0 583 m 1
 0 625 l 1
 83 625 l 1
 83 583 l 1
 0 583 l 1
0 542 m 1
 0 583 l 1
 125 583 l 1
 125 542 l 1
 0 542 l 1
42 500 m 1
 42 542 l 1
 167 542 l 1
 167 500 l 1
 42 500 l 1
83 458 m 1
 83 500 l 1
 292 500 l 1
 292 458 l 1
 83 458 l 1
167 417 m 1
 167 458 l 1
 375 458 l 1
 375 417 l 1
 167 417 l 1
292 375 m 1
 292 417 l 1
 417 417 l 1
 417 375 l 1
 292 375 l 1
333 333 m 1
 333 375 l 1
 458 375 l 1
 458 333 l 1
 333 333 l 1
375 292 m 1
 375 333 l 1
 458 333 l 1
 458 292 l 1
 375 292 l 1
375 250 m 1
 375 292 l 1
 458 292 l 1
 458 250 l 1
 375 250 l 1
375 208 m 1
 375 250 l 1
 458 250 l 1
 458 208 l 1
 375 208 l 1
0 167 m 1
 0 208 l 1
 42 208 l 1
 42 167 l 1
 0 167 l 1
375 167 m 1
 375 208 l 1
 458 208 l 1
 458 167 l 1
 375 167 l 1
0 125 m 1
 0 167 l 1
 83 167 l 1
 83 125 l 1
 0 125 l 1
333 125 m 1
 333 167 l 1
 417 167 l 1
 417 125 l 1
 333 125 l 1
0 83 m 1
 0 125 l 1
 125 125 l 1
 125 83 l 1
 0 83 l 1
292 83 m 1
 292 125 l 1
 375 125 l 1
 375 83 l 1
 292 83 l 1
0 42 m 1
 0 83 l 1
 42 83 l 1
 42 42 l 1
 0 42 l 1
125 42 m 1
 125 83 l 1
 292 83 l 1
 292 42 l 1
 125 42 l 1
EndSplineSet
EndChar

StartChar: T
Encoding: 84 84 83
Width: 500
Flags: HW
LayerCount: 2
Back
Fore
SplineSet
0 792 m 1
 0 833 l 1
 417 833 l 1
 417 792 l 1
 0 792 l 1
0 750 m 1
 0 792 l 1
 83 792 l 1
 83 750 l 1
 0 750 l 1
167 750 m 1
 167 792 l 1
 250 792 l 1
 250 750 l 1
 167 750 l 1
333 750 m 1
 333 792 l 1
 417 792 l 1
 417 750 l 1
 333 750 l 1
0 708 m 1
 0 750 l 1
 42 750 l 1
 42 708 l 1
 0 708 l 1
167 708 m 1
 167 750 l 1
 250 750 l 1
 250 708 l 1
 167 708 l 1
375 708 m 1
 375 750 l 1
 417 750 l 1
 417 708 l 1
 375 708 l 1
0 667 m 1
 0 708 l 1
 42 708 l 1
 42 667 l 1
 0 667 l 1
167 667 m 1
 167 708 l 1
 250 708 l 1
 250 667 l 1
 167 667 l 1
375 667 m 1
 375 708 l 1
 417 708 l 1
 417 667 l 1
 375 667 l 1
0 625 m 1
 0 667 l 1
 42 667 l 1
 42 625 l 1
 0 625 l 1
167 625 m 1
 167 667 l 1
 250 667 l 1
 250 625 l 1
 167 625 l 1
375 625 m 1
 375 667 l 1
 417 667 l 1
 417 625 l 1
 375 625 l 1
167 583 m 1
 167 625 l 1
 250 625 l 1
 250 583 l 1
 167 583 l 1
167 542 m 1
 167 583 l 1
 250 583 l 1
 250 542 l 1
 167 542 l 1
167 500 m 1
 167 542 l 1
 250 542 l 1
 250 500 l 1
 167 500 l 1
167 458 m 1
 167 500 l 1
 250 500 l 1
 250 458 l 1
 167 458 l 1
167 417 m 1
 167 458 l 1
 250 458 l 1
 250 417 l 1
 167 417 l 1
167 375 m 1
 167 417 l 1
 250 417 l 1
 250 375 l 1
 167 375 l 1
167 333 m 1
 167 375 l 1
 250 375 l 1
 250 333 l 1
 167 333 l 1
167 292 m 1
 167 333 l 1
 250 333 l 1
 250 292 l 1
 167 292 l 1
167 250 m 1
 167 292 l 1
 250 292 l 1
 250 250 l 1
 167 250 l 1
167 208 m 1
 167 250 l 1
 250 250 l 1
 250 208 l 1
 167 208 l 1
167 167 m 1
 167 208 l 1
 250 208 l 1
 250 167 l 1
 167 167 l 1
167 125 m 1
 167 167 l 1
 250 167 l 1
 250 125 l 1
 167 125 l 1
167 83 m 1
 167 125 l 1
 250 125 l 1
 250 83 l 1
 167 83 l 1
125 42 m 1
 125 83 l 1
 292 83 l 1
 292 42 l 1
 125 42 l 1
EndSplineSet
EndChar

StartChar: U
Encoding: 85 85 84
Width: 500
Flags: HW
LayerCount: 2
Back
Fore
SplineSet
0 792 m 1
 0 833 l 1
 167 833 l 1
 167 792 l 1
 0 792 l 1
333 792 m 1
 333 833 l 1
 458 833 l 1
 458 792 l 1
 333 792 l 1
42 750 m 1
 42 792 l 1
 125 792 l 1
 125 750 l 1
 42 750 l 1
375 750 m 1
 375 792 l 1
 417 792 l 1
 417 750 l 1
 375 750 l 1
42 708 m 1
 42 750 l 1
 125 750 l 1
 125 708 l 1
 42 708 l 1
375 708 m 1
 375 750 l 1
 417 750 l 1
 417 708 l 1
 375 708 l 1
42 667 m 1
 42 708 l 1
 125 708 l 1
 125 667 l 1
 42 667 l 1
375 667 m 1
 375 708 l 1
 417 708 l 1
 417 667 l 1
 375 667 l 1
42 625 m 1
 42 667 l 1
 125 667 l 1
 125 625 l 1
 42 625 l 1
375 625 m 1
 375 667 l 1
 417 667 l 1
 417 625 l 1
 375 625 l 1
42 583 m 1
 42 625 l 1
 125 625 l 1
 125 583 l 1
 42 583 l 1
375 583 m 1
 375 625 l 1
 417 625 l 1
 417 583 l 1
 375 583 l 1
42 542 m 1
 42 583 l 1
 125 583 l 1
 125 542 l 1
 42 542 l 1
375 542 m 1
 375 583 l 1
 417 583 l 1
 417 542 l 1
 375 542 l 1
42 500 m 1
 42 542 l 1
 125 542 l 1
 125 500 l 1
 42 500 l 1
375 500 m 1
 375 542 l 1
 417 542 l 1
 417 500 l 1
 375 500 l 1
42 458 m 1
 42 500 l 1
 125 500 l 1
 125 458 l 1
 42 458 l 1
375 458 m 1
 375 500 l 1
 417 500 l 1
 417 458 l 1
 375 458 l 1
42 417 m 1
 42 458 l 1
 125 458 l 1
 125 417 l 1
 42 417 l 1
375 417 m 1
 375 458 l 1
 417 458 l 1
 417 417 l 1
 375 417 l 1
42 375 m 1
 42 417 l 1
 125 417 l 1
 125 375 l 1
 42 375 l 1
375 375 m 1
 375 417 l 1
 417 417 l 1
 417 375 l 1
 375 375 l 1
42 333 m 1
 42 375 l 1
 125 375 l 1
 125 333 l 1
 42 333 l 1
375 333 m 1
 375 375 l 1
 417 375 l 1
 417 333 l 1
 375 333 l 1
42 292 m 1
 42 333 l 1
 125 333 l 1
 125 292 l 1
 42 292 l 1
375 292 m 1
 375 333 l 1
 417 333 l 1
 417 292 l 1
 375 292 l 1
42 250 m 1
 42 292 l 1
 125 292 l 1
 125 250 l 1
 42 250 l 1
375 250 m 1
 375 292 l 1
 417 292 l 1
 417 250 l 1
 375 250 l 1
42 208 m 1
 42 250 l 1
 125 250 l 1
 125 208 l 1
 42 208 l 1
375 208 m 1
 375 250 l 1
 417 250 l 1
 417 208 l 1
 375 208 l 1
42 167 m 1
 42 208 l 1
 125 208 l 1
 125 167 l 1
 42 167 l 1
375 167 m 1
 375 208 l 1
 417 208 l 1
 417 167 l 1
 375 167 l 1
42 125 m 1
 42 167 l 1
 125 167 l 1
 125 125 l 1
 42 125 l 1
375 125 m 1
 375 167 l 1
 417 167 l 1
 417 125 l 1
 375 125 l 1
83 83 m 1
 83 125 l 1
 167 125 l 1
 167 83 l 1
 83 83 l 1
333 83 m 1
 333 125 l 1
 375 125 l 1
 375 83 l 1
 333 83 l 1
125 42 m 1
 125 83 l 1
 333 83 l 1
 333 42 l 1
 125 42 l 1
EndSplineSet
EndChar

StartChar: V
Encoding: 86 86 85
Width: 500
Flags: HW
LayerCount: 2
Back
Fore
SplineSet
0 792 m 1
 0 833 l 1
 167 833 l 1
 167 792 l 1
 0 792 l 1
333 792 m 1
 333 833 l 1
 458 833 l 1
 458 792 l 1
 333 792 l 1
42 750 m 1
 42 792 l 1
 125 792 l 1
 125 750 l 1
 42 750 l 1
375 750 m 1
 375 792 l 1
 417 792 l 1
 417 750 l 1
 375 750 l 1
42 708 m 1
 42 750 l 1
 125 750 l 1
 125 708 l 1
 42 708 l 1
375 708 m 1
 375 750 l 1
 417 750 l 1
 417 708 l 1
 375 708 l 1
42 667 m 1
 42 708 l 1
 125 708 l 1
 125 667 l 1
 42 667 l 1
375 667 m 1
 375 708 l 1
 417 708 l 1
 417 667 l 1
 375 667 l 1
42 625 m 1
 42 667 l 1
 125 667 l 1
 125 625 l 1
 42 625 l 1
375 625 m 1
 375 667 l 1
 417 667 l 1
 417 625 l 1
 375 625 l 1
83 583 m 1
 83 625 l 1
 167 625 l 1
 167 583 l 1
 83 583 l 1
333 583 m 1
 333 625 l 1
 375 625 l 1
 375 583 l 1
 333 583 l 1
83 542 m 1
 83 583 l 1
 167 583 l 1
 167 542 l 1
 83 542 l 1
333 542 m 1
 333 583 l 1
 375 583 l 1
 375 542 l 1
 333 542 l 1
83 500 m 1
 83 542 l 1
 167 542 l 1
 167 500 l 1
 83 500 l 1
333 500 m 1
 333 542 l 1
 375 542 l 1
 375 500 l 1
 333 500 l 1
83 458 m 1
 83 500 l 1
 167 500 l 1
 167 458 l 1
 83 458 l 1
333 458 m 1
 333 500 l 1
 375 500 l 1
 375 458 l 1
 333 458 l 1
125 417 m 1
 125 458 l 1
 208 458 l 1
 208 417 l 1
 125 417 l 1
292 417 m 1
 292 458 l 1
 333 458 l 1
 333 417 l 1
 292 417 l 1
125 375 m 1
 125 417 l 1
 208 417 l 1
 208 375 l 1
 125 375 l 1
292 375 m 1
 292 417 l 1
 333 417 l 1
 333 375 l 1
 292 375 l 1
125 333 m 1
 125 375 l 1
 208 375 l 1
 208 333 l 1
 125 333 l 1
292 333 m 1
 292 375 l 1
 333 375 l 1
 333 333 l 1
 292 333 l 1
125 292 m 1
 125 333 l 1
 208 333 l 1
 208 292 l 1
 125 292 l 1
250 292 m 1
 250 333 l 1
 333 333 l 1
 333 292 l 1
 250 292 l 1
167 250 m 1
 167 292 l 1
 208 292 l 1
 208 250 l 1
 167 250 l 1
250 250 m 1
 250 292 l 1
 292 292 l 1
 292 250 l 1
 250 250 l 1
167 208 m 1
 167 250 l 1
 292 250 l 1
 292 208 l 1
 167 208 l 1
167 167 m 1
 167 208 l 1
 292 208 l 1
 292 167 l 1
 167 167 l 1
208 125 m 1
 208 167 l 1
 250 167 l 1
 250 125 l 1
 208 125 l 1
208 83 m 1
 208 125 l 1
 250 125 l 1
 250 83 l 1
 208 83 l 1
208 42 m 1
 208 83 l 1
 250 83 l 1
 250 42 l 1
 208 42 l 1
EndSplineSet
EndChar

StartChar: W
Encoding: 87 87 86
Width: 500
Flags: HW
LayerCount: 2
Back
Fore
SplineSet
0 792 m 1
 0 833 l 1
 125 833 l 1
 125 792 l 1
 0 792 l 1
375 792 m 1
 375 833 l 1
 458 833 l 1
 458 792 l 1
 375 792 l 1
0 750 m 1
 0 792 l 1
 83 792 l 1
 83 750 l 1
 0 750 l 1
417 750 m 1
 417 792 l 1
 458 792 l 1
 458 750 l 1
 417 750 l 1
0 708 m 1
 0 750 l 1
 83 750 l 1
 83 708 l 1
 0 708 l 1
417 708 m 1
 417 750 l 1
 458 750 l 1
 458 708 l 1
 417 708 l 1
0 667 m 1
 0 708 l 1
 83 708 l 1
 83 667 l 1
 0 667 l 1
417 667 m 1
 417 708 l 1
 458 708 l 1
 458 667 l 1
 417 667 l 1
0 625 m 1
 0 667 l 1
 83 667 l 1
 83 625 l 1
 0 625 l 1
417 625 m 1
 417 667 l 1
 458 667 l 1
 458 625 l 1
 417 625 l 1
0 583 m 1
 0 625 l 1
 83 625 l 1
 83 583 l 1
 0 583 l 1
417 583 m 1
 417 625 l 1
 458 625 l 1
 458 583 l 1
 417 583 l 1
0 542 m 1
 0 583 l 1
 83 583 l 1
 83 542 l 1
 0 542 l 1
208 542 m 1
 208 583 l 1
 292 583 l 1
 292 542 l 1
 208 542 l 1
417 542 m 1
 417 583 l 1
 458 583 l 1
 458 542 l 1
 417 542 l 1
0 500 m 1
 0 542 l 1
 83 542 l 1
 83 500 l 1
 0 500 l 1
208 500 m 1
 208 542 l 1
 292 542 l 1
 292 500 l 1
 208 500 l 1
417 500 m 1
 417 542 l 1
 458 542 l 1
 458 500 l 1
 417 500 l 1
0 458 m 1
 0 500 l 1
 83 500 l 1
 83 458 l 1
 0 458 l 1
208 458 m 1
 208 500 l 1
 292 500 l 1
 292 458 l 1
 208 458 l 1
417 458 m 1
 417 500 l 1
 458 500 l 1
 458 458 l 1
 417 458 l 1
0 417 m 1
 0 458 l 1
 83 458 l 1
 83 417 l 1
 0 417 l 1
208 417 m 1
 208 458 l 1
 292 458 l 1
 292 417 l 1
 208 417 l 1
417 417 m 1
 417 458 l 1
 458 458 l 1
 458 417 l 1
 417 417 l 1
0 375 m 1
 0 417 l 1
 83 417 l 1
 83 375 l 1
 0 375 l 1
208 375 m 1
 208 417 l 1
 292 417 l 1
 292 375 l 1
 208 375 l 1
417 375 m 1
 417 417 l 1
 458 417 l 1
 458 375 l 1
 417 375 l 1
0 333 m 1
 0 375 l 1
 83 375 l 1
 83 333 l 1
 0 333 l 1
167 333 m 1
 167 375 l 1
 333 375 l 1
 333 333 l 1
 167 333 l 1
417 333 m 1
 417 375 l 1
 458 375 l 1
 458 333 l 1
 417 333 l 1
0 292 m 1
 0 333 l 1
 83 333 l 1
 83 292 l 1
 0 292 l 1
167 292 m 1
 167 333 l 1
 208 333 l 1
 208 292 l 1
 167 292 l 1
250 292 m 1
 250 333 l 1
 333 333 l 1
 333 292 l 1
 250 292 l 1
417 292 m 1
 417 333 l 1
 458 333 l 1
 458 292 l 1
 417 292 l 1
42 250 m 1
 42 292 l 1
 125 292 l 1
 125 250 l 1
 42 250 l 1
167 250 m 1
 167 292 l 1
 208 292 l 1
 208 250 l 1
 167 250 l 1
250 250 m 1
 250 292 l 1
 333 292 l 1
 333 250 l 1
 250 250 l 1
375 250 m 1
 375 292 l 1
 417 292 l 1
 417 250 l 1
 375 250 l 1
42 208 m 1
 42 250 l 1
 125 250 l 1
 125 208 l 1
 42 208 l 1
167 208 m 1
 167 250 l 1
 208 250 l 1
 208 208 l 1
 167 208 l 1
250 208 m 1
 250 250 l 1
 333 250 l 1
 333 208 l 1
 250 208 l 1
375 208 m 1
 375 250 l 1
 417 250 l 1
 417 208 l 1
 375 208 l 1
42 167 m 1
 42 208 l 1
 167 208 l 1
 167 167 l 1
 42 167 l 1
292 167 m 1
 292 208 l 1
 333 208 l 1
 333 167 l 1
 292 167 l 1
375 167 m 1
 375 208 l 1
 417 208 l 1
 417 167 l 1
 375 167 l 1
42 125 m 1
 42 167 l 1
 167 167 l 1
 167 125 l 1
 42 125 l 1
292 125 m 1
 292 167 l 1
 417 167 l 1
 417 125 l 1
 292 125 l 1
83 83 m 1
 83 125 l 1
 167 125 l 1
 167 83 l 1
 83 83 l 1
292 83 m 1
 292 125 l 1
 375 125 l 1
 375 83 l 1
 292 83 l 1
83 42 m 1
 83 83 l 1
 167 83 l 1
 167 42 l 1
 83 42 l 1
292 42 m 1
 292 83 l 1
 375 83 l 1
 375 42 l 1
 292 42 l 1
EndSplineSet
EndChar

StartChar: X
Encoding: 88 88 87
Width: 500
Flags: HW
LayerCount: 2
Back
Fore
SplineSet
0 792 m 1
 0 833 l 1
 167 833 l 1
 167 792 l 1
 0 792 l 1
333 792 m 1
 333 833 l 1
 458 833 l 1
 458 792 l 1
 333 792 l 1
42 750 m 1
 42 792 l 1
 125 792 l 1
 125 750 l 1
 42 750 l 1
375 750 m 1
 375 792 l 1
 417 792 l 1
 417 750 l 1
 375 750 l 1
42 708 m 1
 42 750 l 1
 125 750 l 1
 125 708 l 1
 42 708 l 1
375 708 m 1
 375 750 l 1
 417 750 l 1
 417 708 l 1
 375 708 l 1
83 667 m 1
 83 708 l 1
 167 708 l 1
 167 667 l 1
 83 667 l 1
333 667 m 1
 333 708 l 1
 375 708 l 1
 375 667 l 1
 333 667 l 1
83 625 m 1
 83 667 l 1
 167 667 l 1
 167 625 l 1
 83 625 l 1
333 625 m 1
 333 667 l 1
 375 667 l 1
 375 625 l 1
 333 625 l 1
125 583 m 1
 125 625 l 1
 208 625 l 1
 208 583 l 1
 125 583 l 1
292 583 m 1
 292 625 l 1
 333 625 l 1
 333 583 l 1
 292 583 l 1
125 542 m 1
 125 583 l 1
 208 583 l 1
 208 542 l 1
 125 542 l 1
292 542 m 1
 292 583 l 1
 333 583 l 1
 333 542 l 1
 292 542 l 1
167 500 m 1
 167 542 l 1
 208 542 l 1
 208 500 l 1
 167 500 l 1
250 500 m 1
 250 542 l 1
 292 542 l 1
 292 500 l 1
 250 500 l 1
167 458 m 1
 167 500 l 1
 292 500 l 1
 292 458 l 1
 167 458 l 1
208 417 m 1
 208 458 l 1
 250 458 l 1
 250 417 l 1
 208 417 l 1
167 375 m 1
 167 417 l 1
 292 417 l 1
 292 375 l 1
 167 375 l 1
167 333 m 1
 167 375 l 1
 208 375 l 1
 208 333 l 1
 167 333 l 1
250 333 m 1
 250 375 l 1
 292 375 l 1
 292 333 l 1
 250 333 l 1
125 292 m 1
 125 333 l 1
 167 333 l 1
 167 292 l 1
 125 292 l 1
250 292 m 1
 250 333 l 1
 333 333 l 1
 333 292 l 1
 250 292 l 1
125 250 m 1
 125 292 l 1
 167 292 l 1
 167 250 l 1
 125 250 l 1
250 250 m 1
 250 292 l 1
 333 292 l 1
 333 250 l 1
 250 250 l 1
83 208 m 1
 83 250 l 1
 125 250 l 1
 125 208 l 1
 83 208 l 1
292 208 m 1
 292 250 l 1
 375 250 l 1
 375 208 l 1
 292 208 l 1
83 167 m 1
 83 208 l 1
 125 208 l 1
 125 167 l 1
 83 167 l 1
292 167 m 1
 292 208 l 1
 375 208 l 1
 375 167 l 1
 292 167 l 1
42 125 m 1
 42 167 l 1
 83 167 l 1
 83 125 l 1
 42 125 l 1
333 125 m 1
 333 167 l 1
 417 167 l 1
 417 125 l 1
 333 125 l 1
42 83 m 1
 42 125 l 1
 83 125 l 1
 83 83 l 1
 42 83 l 1
333 83 m 1
 333 125 l 1
 417 125 l 1
 417 83 l 1
 333 83 l 1
0 42 m 1
 0 83 l 1
 125 83 l 1
 125 42 l 1
 0 42 l 1
292 42 m 1
 292 83 l 1
 458 83 l 1
 458 42 l 1
 292 42 l 1
EndSplineSet
EndChar

StartChar: Y
Encoding: 89 89 88
Width: 500
Flags: HW
LayerCount: 2
Back
Fore
SplineSet
0 792 m 1
 0 833 l 1
 167 833 l 1
 167 792 l 1
 0 792 l 1
333 792 m 1
 333 833 l 1
 458 833 l 1
 458 792 l 1
 333 792 l 1
42 750 m 1
 42 792 l 1
 125 792 l 1
 125 750 l 1
 42 750 l 1
375 750 m 1
 375 792 l 1
 417 792 l 1
 417 750 l 1
 375 750 l 1
42 708 m 1
 42 750 l 1
 125 750 l 1
 125 708 l 1
 42 708 l 1
375 708 m 1
 375 750 l 1
 417 750 l 1
 417 708 l 1
 375 708 l 1
83 667 m 1
 83 708 l 1
 167 708 l 1
 167 667 l 1
 83 667 l 1
333 667 m 1
 333 708 l 1
 375 708 l 1
 375 667 l 1
 333 667 l 1
83 625 m 1
 83 667 l 1
 167 667 l 1
 167 625 l 1
 83 625 l 1
333 625 m 1
 333 667 l 1
 375 667 l 1
 375 625 l 1
 333 625 l 1
83 583 m 1
 83 625 l 1
 167 625 l 1
 167 583 l 1
 83 583 l 1
333 583 m 1
 333 625 l 1
 375 625 l 1
 375 583 l 1
 333 583 l 1
125 542 m 1
 125 583 l 1
 208 583 l 1
 208 542 l 1
 125 542 l 1
292 542 m 1
 292 583 l 1
 333 583 l 1
 333 542 l 1
 292 542 l 1
125 500 m 1
 125 542 l 1
 208 542 l 1
 208 500 l 1
 125 500 l 1
292 500 m 1
 292 542 l 1
 333 542 l 1
 333 500 l 1
 292 500 l 1
167 458 m 1
 167 500 l 1
 333 500 l 1
 333 458 l 1
 167 458 l 1
167 417 m 1
 167 458 l 1
 292 458 l 1
 292 417 l 1
 167 417 l 1
208 375 m 1
 208 417 l 1
 292 417 l 1
 292 375 l 1
 208 375 l 1
208 333 m 1
 208 375 l 1
 292 375 l 1
 292 333 l 1
 208 333 l 1
208 292 m 1
 208 333 l 1
 292 333 l 1
 292 292 l 1
 208 292 l 1
208 250 m 1
 208 292 l 1
 292 292 l 1
 292 250 l 1
 208 250 l 1
208 208 m 1
 208 250 l 1
 292 250 l 1
 292 208 l 1
 208 208 l 1
208 167 m 1
 208 208 l 1
 292 208 l 1
 292 167 l 1
 208 167 l 1
208 125 m 1
 208 167 l 1
 292 167 l 1
 292 125 l 1
 208 125 l 1
208 83 m 1
 208 125 l 1
 292 125 l 1
 292 83 l 1
 208 83 l 1
125 42 m 1
 125 83 l 1
 375 83 l 1
 375 42 l 1
 125 42 l 1
EndSplineSet
EndChar

StartChar: Z
Encoding: 90 90 89
Width: 500
Flags: HW
LayerCount: 2
Back
Fore
SplineSet
42 792 m 1
 42 833 l 1
 458 833 l 1
 458 792 l 1
 42 792 l 1
42 750 m 1
 42 792 l 1
 83 792 l 1
 83 750 l 1
 42 750 l 1
333 750 m 1
 333 792 l 1
 417 792 l 1
 417 750 l 1
 333 750 l 1
42 708 m 1
 42 750 l 1
 83 750 l 1
 83 708 l 1
 42 708 l 1
333 708 m 1
 333 750 l 1
 417 750 l 1
 417 708 l 1
 333 708 l 1
0 667 m 1
 0 708 l 1
 42 708 l 1
 42 667 l 1
 0 667 l 1
292 667 m 1
 292 708 l 1
 375 708 l 1
 375 667 l 1
 292 667 l 1
292 625 m 1
 292 667 l 1
 375 667 l 1
 375 625 l 1
 292 625 l 1
250 583 m 1
 250 625 l 1
 333 625 l 1
 333 583 l 1
 250 583 l 1
250 542 m 1
 250 583 l 1
 333 583 l 1
 333 542 l 1
 250 542 l 1
208 500 m 1
 208 542 l 1
 292 542 l 1
 292 500 l 1
 208 500 l 1
208 458 m 1
 208 500 l 1
 292 500 l 1
 292 458 l 1
 208 458 l 1
208 417 m 1
 208 458 l 1
 292 458 l 1
 292 417 l 1
 208 417 l 1
167 375 m 1
 167 417 l 1
 250 417 l 1
 250 375 l 1
 167 375 l 1
167 333 m 1
 167 375 l 1
 250 375 l 1
 250 333 l 1
 167 333 l 1
125 292 m 1
 125 333 l 1
 208 333 l 1
 208 292 l 1
 125 292 l 1
125 250 m 1
 125 292 l 1
 208 292 l 1
 208 250 l 1
 125 250 l 1
83 208 m 1
 83 250 l 1
 167 250 l 1
 167 208 l 1
 83 208 l 1
83 167 m 1
 83 208 l 1
 167 208 l 1
 167 167 l 1
 83 167 l 1
417 167 m 1
 417 208 l 1
 458 208 l 1
 458 167 l 1
 417 167 l 1
42 125 m 1
 42 167 l 1
 125 167 l 1
 125 125 l 1
 42 125 l 1
375 125 m 1
 375 167 l 1
 417 167 l 1
 417 125 l 1
 375 125 l 1
42 83 m 1
 42 125 l 1
 125 125 l 1
 125 83 l 1
 42 83 l 1
333 83 m 1
 333 125 l 1
 417 125 l 1
 417 83 l 1
 333 83 l 1
0 42 m 1
 0 83 l 1
 417 83 l 1
 417 42 l 1
 0 42 l 1
EndSplineSet
EndChar

StartChar: [
Encoding: 91 91 90
Width: 500
Flags: HW
LayerCount: 2
Back
Fore
SplineSet
333 875 m 1
 333 917 l 1
 417 917 l 1
 417 875 l 1
 333 875 l 1
250 833 m 1
 250 875 l 1
 375 875 l 1
 375 833 l 1
 250 833 l 1
167 792 m 1
 167 833 l 1
 292 833 l 1
 292 792 l 1
 167 792 l 1
167 750 m 1
 167 792 l 1
 250 792 l 1
 250 750 l 1
 167 750 l 1
167 708 m 1
 167 750 l 1
 250 750 l 1
 250 708 l 1
 167 708 l 1
167 667 m 1
 167 708 l 1
 250 708 l 1
 250 667 l 1
 167 667 l 1
167 625 m 1
 167 667 l 1
 250 667 l 1
 250 625 l 1
 167 625 l 1
167 583 m 1
 167 625 l 1
 250 625 l 1
 250 583 l 1
 167 583 l 1
167 542 m 1
 167 583 l 1
 250 583 l 1
 250 542 l 1
 167 542 l 1
167 500 m 1
 167 542 l 1
 250 542 l 1
 250 500 l 1
 167 500 l 1
167 458 m 1
 167 500 l 1
 250 500 l 1
 250 458 l 1
 167 458 l 1
167 417 m 1
 167 458 l 1
 250 458 l 1
 250 417 l 1
 167 417 l 1
167 375 m 1
 167 417 l 1
 250 417 l 1
 250 375 l 1
 167 375 l 1
167 333 m 1
 167 375 l 1
 250 375 l 1
 250 333 l 1
 167 333 l 1
167 292 m 1
 167 333 l 1
 250 333 l 1
 250 292 l 1
 167 292 l 1
167 250 m 1
 167 292 l 1
 250 292 l 1
 250 250 l 1
 167 250 l 1
167 208 m 1
 167 250 l 1
 250 250 l 1
 250 208 l 1
 167 208 l 1
167 167 m 1
 167 208 l 1
 250 208 l 1
 250 167 l 1
 167 167 l 1
167 125 m 1
 167 167 l 1
 250 167 l 1
 250 125 l 1
 167 125 l 1
167 83 m 1
 167 125 l 1
 250 125 l 1
 250 83 l 1
 167 83 l 1
167 42 m 1
 167 83 l 1
 250 83 l 1
 250 42 l 1
 167 42 l 1
167 0 m 1
 167 42 l 1
 292 42 l 1
 292 0 l 1
 167 0 l 1
250 -42 m 1
 250 0 l 1
 375 0 l 1
 375 -42 l 1
 250 -42 l 1
333 -83 m 1
 333 -42 l 1
 417 -42 l 1
 417 -83 l 1
 333 -83 l 1
EndSplineSet
EndChar

StartChar: \
Encoding: 92 92 91
Width: 500
Flags: HW
LayerCount: 2
Back
Fore
SplineSet
0 833 m 1
 0 875 l 1
 42 875 l 1
 42 833 l 1
 0 833 l 1
0 792 m 1
 0 833 l 1
 83 833 l 1
 83 792 l 1
 0 792 l 1
42 750 m 1
 42 792 l 1
 83 792 l 1
 83 750 l 1
 42 750 l 1
42 708 m 1
 42 750 l 1
 125 750 l 1
 125 708 l 1
 42 708 l 1
83 667 m 1
 83 708 l 1
 125 708 l 1
 125 667 l 1
 83 667 l 1
83 625 m 1
 83 667 l 1
 167 667 l 1
 167 625 l 1
 83 625 l 1
125 583 m 1
 125 625 l 1
 167 625 l 1
 167 583 l 1
 125 583 l 1
125 542 m 1
 125 583 l 1
 208 583 l 1
 208 542 l 1
 125 542 l 1
167 500 m 1
 167 542 l 1
 208 542 l 1
 208 500 l 1
 167 500 l 1
167 458 m 1
 167 500 l 1
 250 500 l 1
 250 458 l 1
 167 458 l 1
208 417 m 1
 208 458 l 1
 250 458 l 1
 250 417 l 1
 208 417 l 1
208 375 m 1
 208 417 l 1
 292 417 l 1
 292 375 l 1
 208 375 l 1
250 333 m 1
 250 375 l 1
 292 375 l 1
 292 333 l 1
 250 333 l 1
250 292 m 1
 250 333 l 1
 333 333 l 1
 333 292 l 1
 250 292 l 1
292 250 m 1
 292 292 l 1
 333 292 l 1
 333 250 l 1
 292 250 l 1
292 208 m 1
 292 250 l 1
 375 250 l 1
 375 208 l 1
 292 208 l 1
333 167 m 1
 333 208 l 1
 375 208 l 1
 375 167 l 1
 333 167 l 1
333 125 m 1
 333 167 l 1
 417 167 l 1
 417 125 l 1
 333 125 l 1
375 83 m 1
 375 125 l 1
 417 125 l 1
 417 83 l 1
 375 83 l 1
375 42 m 1
 375 83 l 1
 458 83 l 1
 458 42 l 1
 375 42 l 1
417 0 m 1
 417 42 l 1
 458 42 l 1
 458 0 l 1
 417 0 l 1
417 -42 m 1
 417 0 l 1
 458 0 l 1
 458 -42 l 1
 417 -42 l 1
EndSplineSet
EndChar

StartChar: ]
Encoding: 93 93 92
Width: 500
Flags: HW
LayerCount: 2
Back
Fore
SplineSet
42 875 m 1
 42 917 l 1
 125 917 l 1
 125 875 l 1
 42 875 l 1
42 833 m 1
 42 875 l 1
 208 875 l 1
 208 833 l 1
 42 833 l 1
125 792 m 1
 125 833 l 1
 292 833 l 1
 292 792 l 1
 125 792 l 1
208 750 m 1
 208 792 l 1
 292 792 l 1
 292 750 l 1
 208 750 l 1
208 708 m 1
 208 750 l 1
 292 750 l 1
 292 708 l 1
 208 708 l 1
208 667 m 1
 208 708 l 1
 292 708 l 1
 292 667 l 1
 208 667 l 1
208 625 m 1
 208 667 l 1
 292 667 l 1
 292 625 l 1
 208 625 l 1
208 583 m 1
 208 625 l 1
 292 625 l 1
 292 583 l 1
 208 583 l 1
208 542 m 1
 208 583 l 1
 292 583 l 1
 292 542 l 1
 208 542 l 1
208 500 m 1
 208 542 l 1
 292 542 l 1
 292 500 l 1
 208 500 l 1
208 458 m 1
 208 500 l 1
 292 500 l 1
 292 458 l 1
 208 458 l 1
208 417 m 1
 208 458 l 1
 292 458 l 1
 292 417 l 1
 208 417 l 1
208 375 m 1
 208 417 l 1
 292 417 l 1
 292 375 l 1
 208 375 l 1
208 333 m 1
 208 375 l 1
 292 375 l 1
 292 333 l 1
 208 333 l 1
208 292 m 1
 208 333 l 1
 292 333 l 1
 292 292 l 1
 208 292 l 1
208 250 m 1
 208 292 l 1
 292 292 l 1
 292 250 l 1
 208 250 l 1
208 208 m 1
 208 250 l 1
 292 250 l 1
 292 208 l 1
 208 208 l 1
208 167 m 1
 208 208 l 1
 292 208 l 1
 292 167 l 1
 208 167 l 1
208 125 m 1
 208 167 l 1
 292 167 l 1
 292 125 l 1
 208 125 l 1
208 83 m 1
 208 125 l 1
 292 125 l 1
 292 83 l 1
 208 83 l 1
208 42 m 1
 208 83 l 1
 292 83 l 1
 292 42 l 1
 208 42 l 1
125 0 m 1
 125 42 l 1
 292 42 l 1
 292 0 l 1
 125 0 l 1
42 -42 m 1
 42 0 l 1
 208 0 l 1
 208 -42 l 1
 42 -42 l 1
42 -83 m 1
 42 -42 l 1
 125 -42 l 1
 125 -83 l 1
 42 -83 l 1
EndSplineSet
EndChar

StartChar: ^
Encoding: 94 94 93
Width: 500
Flags: HW
LayerCount: 2
Back
Fore
SplineSet
208 875 m 1
 208 917 l 1
 250 917 l 1
 250 875 l 1
 208 875 l 1
167 833 m 1
 167 875 l 1
 292 875 l 1
 292 833 l 1
 167 833 l 1
125 792 m 1
 125 833 l 1
 333 833 l 1
 333 792 l 1
 125 792 l 1
83 750 m 1
 83 792 l 1
 208 792 l 1
 208 750 l 1
 83 750 l 1
250 750 m 1
 250 792 l 1
 375 792 l 1
 375 750 l 1
 250 750 l 1
42 708 m 1
 42 750 l 1
 125 750 l 1
 125 708 l 1
 42 708 l 1
333 708 m 1
 333 750 l 1
 417 750 l 1
 417 708 l 1
 333 708 l 1
0 667 m 1
 0 708 l 1
 83 708 l 1
 83 667 l 1
 0 667 l 1
375 667 m 1
 375 708 l 1
 458 708 l 1
 458 667 l 1
 375 667 l 1
EndSplineSet
EndChar

StartChar: _
Encoding: 95 95 94
Width: 500
Flags: HW
LayerCount: 2
Back
Fore
SplineSet
0 -42 m 1
 0 0 l 1
 458 0 l 1
 458 -42 l 1
 0 -42 l 1
0 -83 m 1
 0 -42 l 1
 458 -42 l 1
 458 -83 l 1
 0 -83 l 1
EndSplineSet
EndChar

StartChar: `
Encoding: 96 96 95
Width: 500
Flags: HW
LayerCount: 2
Back
Fore
SplineSet
125 875 m 1
 125 917 l 1
 208 917 l 1
 208 875 l 1
 125 875 l 1
83 833 m 1
 83 875 l 1
 250 875 l 1
 250 833 l 1
 83 833 l 1
125 792 m 1
 125 833 l 1
 292 833 l 1
 292 792 l 1
 125 792 l 1
208 750 m 1
 208 792 l 1
 333 792 l 1
 333 750 l 1
 208 750 l 1
292 708 m 1
 292 750 l 1
 375 750 l 1
 375 708 l 1
 292 708 l 1
EndSplineSet
EndChar

StartChar: a
Encoding: 97 97 96
Width: 500
Flags: HW
LayerCount: 2
Back
Fore
SplineSet
125 542 m 1
 125 583 l 1
 250 583 l 1
 250 542 l 1
 125 542 l 1
42 500 m 1
 42 542 l 1
 167 542 l 1
 167 500 l 1
 42 500 l 1
250 500 m 1
 250 542 l 1
 333 542 l 1
 333 500 l 1
 250 500 l 1
42 458 m 1
 42 500 l 1
 83 500 l 1
 83 458 l 1
 42 458 l 1
292 458 m 1
 292 500 l 1
 375 500 l 1
 375 458 l 1
 292 458 l 1
292 417 m 1
 292 458 l 1
 375 458 l 1
 375 417 l 1
 292 417 l 1
292 375 m 1
 292 417 l 1
 375 417 l 1
 375 375 l 1
 292 375 l 1
125 333 m 1
 125 375 l 1
 375 375 l 1
 375 333 l 1
 125 333 l 1
42 292 m 1
 42 333 l 1
 125 333 l 1
 125 292 l 1
 42 292 l 1
292 292 m 1
 292 333 l 1
 375 333 l 1
 375 292 l 1
 292 292 l 1
0 250 m 1
 0 292 l 1
 83 292 l 1
 83 250 l 1
 0 250 l 1
292 250 m 1
 292 292 l 1
 375 292 l 1
 375 250 l 1
 292 250 l 1
0 208 m 1
 0 250 l 1
 83 250 l 1
 83 208 l 1
 0 208 l 1
292 208 m 1
 292 250 l 1
 375 250 l 1
 375 208 l 1
 292 208 l 1
0 167 m 1
 0 208 l 1
 83 208 l 1
 83 167 l 1
 0 167 l 1
292 167 m 1
 292 208 l 1
 375 208 l 1
 375 167 l 1
 292 167 l 1
0 125 m 1
 0 167 l 1
 83 167 l 1
 83 125 l 1
 0 125 l 1
292 125 m 1
 292 167 l 1
 375 167 l 1
 375 125 l 1
 292 125 l 1
417 125 m 1
 417 167 l 1
 458 167 l 1
 458 125 l 1
 417 125 l 1
42 83 m 1
 42 125 l 1
 125 125 l 1
 125 83 l 1
 42 83 l 1
250 83 m 1
 250 125 l 1
 375 125 l 1
 375 83 l 1
 250 83 l 1
417 83 m 1
 417 125 l 1
 458 125 l 1
 458 83 l 1
 417 83 l 1
83 42 m 1
 83 83 l 1
 250 83 l 1
 250 42 l 1
 83 42 l 1
333 42 m 1
 333 83 l 1
 417 83 l 1
 417 42 l 1
 333 42 l 1
EndSplineSet
EndChar

StartChar: b
Encoding: 98 98 97
Width: 500
Flags: HW
LayerCount: 2
Back
Fore
SplineSet
42 792 m 1
 42 833 l 1
 125 833 l 1
 125 792 l 1
 42 792 l 1
0 750 m 1
 0 792 l 1
 125 792 l 1
 125 750 l 1
 0 750 l 1
42 708 m 1
 42 750 l 1
 125 750 l 1
 125 708 l 1
 42 708 l 1
42 667 m 1
 42 708 l 1
 125 708 l 1
 125 667 l 1
 42 667 l 1
42 625 m 1
 42 667 l 1
 125 667 l 1
 125 625 l 1
 42 625 l 1
42 583 m 1
 42 625 l 1
 125 625 l 1
 125 583 l 1
 42 583 l 1
42 542 m 1
 42 583 l 1
 125 583 l 1
 125 542 l 1
 42 542 l 1
167 542 m 1
 167 583 l 1
 292 583 l 1
 292 542 l 1
 167 542 l 1
42 500 m 1
 42 542 l 1
 167 542 l 1
 167 500 l 1
 42 500 l 1
292 500 m 1
 292 542 l 1
 375 542 l 1
 375 500 l 1
 292 500 l 1
42 458 m 1
 42 500 l 1
 125 500 l 1
 125 458 l 1
 42 458 l 1
333 458 m 1
 333 500 l 1
 417 500 l 1
 417 458 l 1
 333 458 l 1
42 417 m 1
 42 458 l 1
 125 458 l 1
 125 417 l 1
 42 417 l 1
333 417 m 1
 333 458 l 1
 417 458 l 1
 417 417 l 1
 333 417 l 1
42 375 m 1
 42 417 l 1
 125 417 l 1
 125 375 l 1
 42 375 l 1
375 375 m 1
 375 417 l 1
 458 417 l 1
 458 375 l 1
 375 375 l 1
42 333 m 1
 42 375 l 1
 125 375 l 1
 125 333 l 1
 42 333 l 1
375 333 m 1
 375 375 l 1
 458 375 l 1
 458 333 l 1
 375 333 l 1
42 292 m 1
 42 333 l 1
 125 333 l 1
 125 292 l 1
 42 292 l 1
375 292 m 1
 375 333 l 1
 458 333 l 1
 458 292 l 1
 375 292 l 1
42 250 m 1
 42 292 l 1
 125 292 l 1
 125 250 l 1
 42 250 l 1
375 250 m 1
 375 292 l 1
 458 292 l 1
 458 250 l 1
 375 250 l 1
42 208 m 1
 42 250 l 1
 125 250 l 1
 125 208 l 1
 42 208 l 1
375 208 m 1
 375 250 l 1
 458 250 l 1
 458 208 l 1
 375 208 l 1
42 167 m 1
 42 208 l 1
 125 208 l 1
 125 167 l 1
 42 167 l 1
333 167 m 1
 333 208 l 1
 417 208 l 1
 417 167 l 1
 333 167 l 1
42 125 m 1
 42 167 l 1
 125 167 l 1
 125 125 l 1
 42 125 l 1
333 125 m 1
 333 167 l 1
 417 167 l 1
 417 125 l 1
 333 125 l 1
42 83 m 1
 42 125 l 1
 167 125 l 1
 167 83 l 1
 42 83 l 1
292 83 m 1
 292 125 l 1
 375 125 l 1
 375 83 l 1
 292 83 l 1
42 42 m 1
 42 83 l 1
 83 83 l 1
 83 42 l 1
 42 42 l 1
167 42 m 1
 167 83 l 1
 292 83 l 1
 292 42 l 1
 167 42 l 1
EndSplineSet
EndChar

StartChar: c
Encoding: 99 99 98
Width: 500
Flags: HW
LayerCount: 2
Back
Fore
SplineSet
167 542 m 1
 167 583 l 1
 292 583 l 1
 292 542 l 1
 167 542 l 1
83 500 m 1
 83 542 l 1
 167 542 l 1
 167 500 l 1
 83 500 l 1
292 500 m 1
 292 542 l 1
 375 542 l 1
 375 500 l 1
 292 500 l 1
42 458 m 1
 42 500 l 1
 125 500 l 1
 125 458 l 1
 42 458 l 1
333 458 m 1
 333 500 l 1
 417 500 l 1
 417 458 l 1
 333 458 l 1
42 417 m 1
 42 458 l 1
 125 458 l 1
 125 417 l 1
 42 417 l 1
333 417 m 1
 333 458 l 1
 417 458 l 1
 417 417 l 1
 333 417 l 1
0 375 m 1
 0 417 l 1
 83 417 l 1
 83 375 l 1
 0 375 l 1
0 333 m 1
 0 375 l 1
 83 375 l 1
 83 333 l 1
 0 333 l 1
0 292 m 1
 0 333 l 1
 83 333 l 1
 83 292 l 1
 0 292 l 1
0 250 m 1
 0 292 l 1
 83 292 l 1
 83 250 l 1
 0 250 l 1
0 208 m 1
 0 250 l 1
 83 250 l 1
 83 208 l 1
 0 208 l 1
42 167 m 1
 42 208 l 1
 125 208 l 1
 125 167 l 1
 42 167 l 1
42 125 m 1
 42 167 l 1
 125 167 l 1
 125 125 l 1
 42 125 l 1
375 125 m 1
 375 167 l 1
 417 167 l 1
 417 125 l 1
 375 125 l 1
83 83 m 1
 83 125 l 1
 167 125 l 1
 167 83 l 1
 83 83 l 1
292 83 m 1
 292 125 l 1
 375 125 l 1
 375 83 l 1
 292 83 l 1
167 42 m 1
 167 83 l 1
 292 83 l 1
 292 42 l 1
 167 42 l 1
EndSplineSet
EndChar

StartChar: d
Encoding: 100 100 99
Width: 500
Flags: HW
LayerCount: 2
Back
Fore
SplineSet
333 792 m 1
 333 833 l 1
 417 833 l 1
 417 792 l 1
 333 792 l 1
250 750 m 1
 250 792 l 1
 417 792 l 1
 417 750 l 1
 250 750 l 1
333 708 m 1
 333 750 l 1
 417 750 l 1
 417 708 l 1
 333 708 l 1
333 667 m 1
 333 708 l 1
 417 708 l 1
 417 667 l 1
 333 667 l 1
333 625 m 1
 333 667 l 1
 417 667 l 1
 417 625 l 1
 333 625 l 1
333 583 m 1
 333 625 l 1
 417 625 l 1
 417 583 l 1
 333 583 l 1
167 542 m 1
 167 583 l 1
 292 583 l 1
 292 542 l 1
 167 542 l 1
333 542 m 1
 333 583 l 1
 417 583 l 1
 417 542 l 1
 333 542 l 1
83 500 m 1
 83 542 l 1
 167 542 l 1
 167 500 l 1
 83 500 l 1
292 500 m 1
 292 542 l 1
 417 542 l 1
 417 500 l 1
 292 500 l 1
42 458 m 1
 42 500 l 1
 125 500 l 1
 125 458 l 1
 42 458 l 1
333 458 m 1
 333 500 l 1
 417 500 l 1
 417 458 l 1
 333 458 l 1
42 417 m 1
 42 458 l 1
 125 458 l 1
 125 417 l 1
 42 417 l 1
333 417 m 1
 333 458 l 1
 417 458 l 1
 417 417 l 1
 333 417 l 1
0 375 m 1
 0 417 l 1
 83 417 l 1
 83 375 l 1
 0 375 l 1
333 375 m 1
 333 417 l 1
 417 417 l 1
 417 375 l 1
 333 375 l 1
0 333 m 1
 0 375 l 1
 83 375 l 1
 83 333 l 1
 0 333 l 1
333 333 m 1
 333 375 l 1
 417 375 l 1
 417 333 l 1
 333 333 l 1
0 292 m 1
 0 333 l 1
 83 333 l 1
 83 292 l 1
 0 292 l 1
333 292 m 1
 333 333 l 1
 417 333 l 1
 417 292 l 1
 333 292 l 1
0 250 m 1
 0 292 l 1
 83 292 l 1
 83 250 l 1
 0 250 l 1
333 250 m 1
 333 292 l 1
 417 292 l 1
 417 250 l 1
 333 250 l 1
0 208 m 1
 0 250 l 1
 83 250 l 1
 83 208 l 1
 0 208 l 1
333 208 m 1
 333 250 l 1
 417 250 l 1
 417 208 l 1
 333 208 l 1
42 167 m 1
 42 208 l 1
 125 208 l 1
 125 167 l 1
 42 167 l 1
333 167 m 1
 333 208 l 1
 417 208 l 1
 417 167 l 1
 333 167 l 1
42 125 m 1
 42 167 l 1
 125 167 l 1
 125 125 l 1
 42 125 l 1
333 125 m 1
 333 167 l 1
 417 167 l 1
 417 125 l 1
 333 125 l 1
83 83 m 1
 83 125 l 1
 167 125 l 1
 167 83 l 1
 83 83 l 1
292 83 m 1
 292 125 l 1
 417 125 l 1
 417 83 l 1
 292 83 l 1
167 42 m 1
 167 83 l 1
 292 83 l 1
 292 42 l 1
 167 42 l 1
333 42 m 1
 333 83 l 1
 458 83 l 1
 458 42 l 1
 333 42 l 1
EndSplineSet
EndChar

StartChar: e
Encoding: 101 101 100
Width: 500
Flags: HW
LayerCount: 2
Back
Fore
SplineSet
167 542 m 1
 167 583 l 1
 292 583 l 1
 292 542 l 1
 167 542 l 1
83 500 m 1
 83 542 l 1
 167 542 l 1
 167 500 l 1
 83 500 l 1
292 500 m 1
 292 542 l 1
 375 542 l 1
 375 500 l 1
 292 500 l 1
42 458 m 1
 42 500 l 1
 125 500 l 1
 125 458 l 1
 42 458 l 1
333 458 m 1
 333 500 l 1
 417 500 l 1
 417 458 l 1
 333 458 l 1
42 417 m 1
 42 458 l 1
 125 458 l 1
 125 417 l 1
 42 417 l 1
333 417 m 1
 333 458 l 1
 458 458 l 1
 458 417 l 1
 333 417 l 1
0 375 m 1
 0 417 l 1
 83 417 l 1
 83 375 l 1
 0 375 l 1
375 375 m 1
 375 417 l 1
 458 417 l 1
 458 375 l 1
 375 375 l 1
0 333 m 1
 0 375 l 1
 458 375 l 1
 458 333 l 1
 0 333 l 1
0 292 m 1
 0 333 l 1
 83 333 l 1
 83 292 l 1
 0 292 l 1
0 250 m 1
 0 292 l 1
 83 292 l 1
 83 250 l 1
 0 250 l 1
0 208 m 1
 0 250 l 1
 83 250 l 1
 83 208 l 1
 0 208 l 1
42 167 m 1
 42 208 l 1
 125 208 l 1
 125 167 l 1
 42 167 l 1
42 125 m 1
 42 167 l 1
 125 167 l 1
 125 125 l 1
 42 125 l 1
417 125 m 1
 417 167 l 1
 458 167 l 1
 458 125 l 1
 417 125 l 1
83 83 m 1
 83 125 l 1
 167 125 l 1
 167 83 l 1
 83 83 l 1
333 83 m 1
 333 125 l 1
 417 125 l 1
 417 83 l 1
 333 83 l 1
167 42 m 1
 167 83 l 1
 333 83 l 1
 333 42 l 1
 167 42 l 1
EndSplineSet
EndChar

StartChar: f
Encoding: 102 102 101
Width: 500
Flags: HW
LayerCount: 2
Back
Fore
SplineSet
292 792 m 1
 292 833 l 1
 417 833 l 1
 417 792 l 1
 292 792 l 1
208 750 m 1
 208 792 l 1
 292 792 l 1
 292 750 l 1
 208 750 l 1
375 750 m 1
 375 792 l 1
 458 792 l 1
 458 750 l 1
 375 750 l 1
208 708 m 1
 208 750 l 1
 250 750 l 1
 250 708 l 1
 208 708 l 1
375 708 m 1
 375 750 l 1
 458 750 l 1
 458 708 l 1
 375 708 l 1
167 667 m 1
 167 708 l 1
 250 708 l 1
 250 667 l 1
 167 667 l 1
167 625 m 1
 167 667 l 1
 250 667 l 1
 250 625 l 1
 167 625 l 1
167 583 m 1
 167 625 l 1
 250 625 l 1
 250 583 l 1
 167 583 l 1
0 542 m 1
 0 583 l 1
 417 583 l 1
 417 542 l 1
 0 542 l 1
167 500 m 1
 167 542 l 1
 250 542 l 1
 250 500 l 1
 167 500 l 1
167 458 m 1
 167 500 l 1
 250 500 l 1
 250 458 l 1
 167 458 l 1
167 417 m 1
 167 458 l 1
 250 458 l 1
 250 417 l 1
 167 417 l 1
167 375 m 1
 167 417 l 1
 250 417 l 1
 250 375 l 1
 167 375 l 1
167 333 m 1
 167 375 l 1
 250 375 l 1
 250 333 l 1
 167 333 l 1
167 292 m 1
 167 333 l 1
 250 333 l 1
 250 292 l 1
 167 292 l 1
167 250 m 1
 167 292 l 1
 250 292 l 1
 250 250 l 1
 167 250 l 1
167 208 m 1
 167 250 l 1
 250 250 l 1
 250 208 l 1
 167 208 l 1
167 167 m 1
 167 208 l 1
 250 208 l 1
 250 167 l 1
 167 167 l 1
167 125 m 1
 167 167 l 1
 250 167 l 1
 250 125 l 1
 167 125 l 1
167 83 m 1
 167 125 l 1
 250 125 l 1
 250 83 l 1
 167 83 l 1
83 42 m 1
 83 83 l 1
 333 83 l 1
 333 42 l 1
 83 42 l 1
EndSplineSet
EndChar

StartChar: g
Encoding: 103 103 102
Width: 500
Flags: HW
LayerCount: 2
Back
Fore
SplineSet
375 583 m 1
 375 625 l 1
 458 625 l 1
 458 583 l 1
 375 583 l 1
167 542 m 1
 167 583 l 1
 292 583 l 1
 292 542 l 1
 167 542 l 1
333 542 m 1
 333 583 l 1
 458 583 l 1
 458 542 l 1
 333 542 l 1
83 500 m 1
 83 542 l 1
 167 542 l 1
 167 500 l 1
 83 500 l 1
292 500 m 1
 292 542 l 1
 375 542 l 1
 375 500 l 1
 292 500 l 1
42 458 m 1
 42 500 l 1
 125 500 l 1
 125 458 l 1
 42 458 l 1
333 458 m 1
 333 500 l 1
 417 500 l 1
 417 458 l 1
 333 458 l 1
42 417 m 1
 42 458 l 1
 125 458 l 1
 125 417 l 1
 42 417 l 1
333 417 m 1
 333 458 l 1
 417 458 l 1
 417 417 l 1
 333 417 l 1
42 375 m 1
 42 417 l 1
 125 417 l 1
 125 375 l 1
 42 375 l 1
333 375 m 1
 333 417 l 1
 417 417 l 1
 417 375 l 1
 333 375 l 1
83 333 m 1
 83 375 l 1
 167 375 l 1
 167 333 l 1
 83 333 l 1
292 333 m 1
 292 375 l 1
 375 375 l 1
 375 333 l 1
 292 333 l 1
167 292 m 1
 167 333 l 1
 292 333 l 1
 292 292 l 1
 167 292 l 1
125 250 m 1
 125 292 l 1
 167 292 l 1
 167 250 l 1
 125 250 l 1
83 208 m 1
 83 250 l 1
 167 250 l 1
 167 208 l 1
 83 208 l 1
125 167 m 1
 125 208 l 1
 333 208 l 1
 333 167 l 1
 125 167 l 1
83 125 m 1
 83 167 l 1
 125 167 l 1
 125 125 l 1
 83 125 l 1
208 125 m 1
 208 167 l 1
 417 167 l 1
 417 125 l 1
 208 125 l 1
42 83 m 1
 42 125 l 1
 83 125 l 1
 83 83 l 1
 42 83 l 1
333 83 m 1
 333 125 l 1
 458 125 l 1
 458 83 l 1
 333 83 l 1
0 42 m 1
 0 83 l 1
 83 83 l 1
 83 42 l 1
 0 42 l 1
375 42 m 1
 375 83 l 1
 458 83 l 1
 458 42 l 1
 375 42 l 1
0 0 m 1
 0 42 l 1
 83 42 l 1
 83 0 l 1
 0 0 l 1
375 0 m 1
 375 42 l 1
 458 42 l 1
 458 0 l 1
 375 0 l 1
42 -42 m 1
 42 0 l 1
 125 0 l 1
 125 -42 l 1
 42 -42 l 1
333 -42 m 1
 333 0 l 1
 417 0 l 1
 417 -42 l 1
 333 -42 l 1
125 -83 m 1
 125 -42 l 1
 333 -42 l 1
 333 -83 l 1
 125 -83 l 1
EndSplineSet
EndChar

StartChar: h
Encoding: 104 104 103
Width: 500
Flags: HW
LayerCount: 2
Back
Fore
SplineSet
42 792 m 1
 42 833 l 1
 125 833 l 1
 125 792 l 1
 42 792 l 1
0 750 m 1
 0 792 l 1
 125 792 l 1
 125 750 l 1
 0 750 l 1
42 708 m 1
 42 750 l 1
 125 750 l 1
 125 708 l 1
 42 708 l 1
42 667 m 1
 42 708 l 1
 125 708 l 1
 125 667 l 1
 42 667 l 1
42 625 m 1
 42 667 l 1
 125 667 l 1
 125 625 l 1
 42 625 l 1
42 583 m 1
 42 625 l 1
 125 625 l 1
 125 583 l 1
 42 583 l 1
42 542 m 1
 42 583 l 1
 125 583 l 1
 125 542 l 1
 42 542 l 1
167 542 m 1
 167 583 l 1
 333 583 l 1
 333 542 l 1
 167 542 l 1
42 500 m 1
 42 542 l 1
 167 542 l 1
 167 500 l 1
 42 500 l 1
292 500 m 1
 292 542 l 1
 375 542 l 1
 375 500 l 1
 292 500 l 1
42 458 m 1
 42 500 l 1
 125 500 l 1
 125 458 l 1
 42 458 l 1
333 458 m 1
 333 500 l 1
 417 500 l 1
 417 458 l 1
 333 458 l 1
42 417 m 1
 42 458 l 1
 125 458 l 1
 125 417 l 1
 42 417 l 1
333 417 m 1
 333 458 l 1
 417 458 l 1
 417 417 l 1
 333 417 l 1
42 375 m 1
 42 417 l 1
 125 417 l 1
 125 375 l 1
 42 375 l 1
333 375 m 1
 333 417 l 1
 417 417 l 1
 417 375 l 1
 333 375 l 1
42 333 m 1
 42 375 l 1
 125 375 l 1
 125 333 l 1
 42 333 l 1
333 333 m 1
 333 375 l 1
 417 375 l 1
 417 333 l 1
 333 333 l 1
42 292 m 1
 42 333 l 1
 125 333 l 1
 125 292 l 1
 42 292 l 1
333 292 m 1
 333 333 l 1
 417 333 l 1
 417 292 l 1
 333 292 l 1
42 250 m 1
 42 292 l 1
 125 292 l 1
 125 250 l 1
 42 250 l 1
333 250 m 1
 333 292 l 1
 417 292 l 1
 417 250 l 1
 333 250 l 1
42 208 m 1
 42 250 l 1
 125 250 l 1
 125 208 l 1
 42 208 l 1
333 208 m 1
 333 250 l 1
 417 250 l 1
 417 208 l 1
 333 208 l 1
42 167 m 1
 42 208 l 1
 125 208 l 1
 125 167 l 1
 42 167 l 1
333 167 m 1
 333 208 l 1
 417 208 l 1
 417 167 l 1
 333 167 l 1
42 125 m 1
 42 167 l 1
 125 167 l 1
 125 125 l 1
 42 125 l 1
333 125 m 1
 333 167 l 1
 417 167 l 1
 417 125 l 1
 333 125 l 1
42 83 m 1
 42 125 l 1
 125 125 l 1
 125 83 l 1
 42 83 l 1
333 83 m 1
 333 125 l 1
 417 125 l 1
 417 83 l 1
 333 83 l 1
0 42 m 1
 0 83 l 1
 167 83 l 1
 167 42 l 1
 0 42 l 1
292 42 m 1
 292 83 l 1
 458 83 l 1
 458 42 l 1
 292 42 l 1
EndSplineSet
EndChar

StartChar: i
Encoding: 105 105 104
Width: 500
Flags: HW
LayerCount: 2
Back
Fore
SplineSet
125 792 m 1
 125 833 l 1
 250 833 l 1
 250 792 l 1
 125 792 l 1
125 750 m 1
 125 792 l 1
 250 792 l 1
 250 750 l 1
 125 750 l 1
125 708 m 1
 125 750 l 1
 250 750 l 1
 250 708 l 1
 125 708 l 1
83 542 m 1
 83 583 l 1
 250 583 l 1
 250 542 l 1
 83 542 l 1
167 500 m 1
 167 542 l 1
 250 542 l 1
 250 500 l 1
 167 500 l 1
167 458 m 1
 167 500 l 1
 250 500 l 1
 250 458 l 1
 167 458 l 1
167 417 m 1
 167 458 l 1
 250 458 l 1
 250 417 l 1
 167 417 l 1
167 375 m 1
 167 417 l 1
 250 417 l 1
 250 375 l 1
 167 375 l 1
167 333 m 1
 167 375 l 1
 250 375 l 1
 250 333 l 1
 167 333 l 1
167 292 m 1
 167 333 l 1
 250 333 l 1
 250 292 l 1
 167 292 l 1
167 250 m 1
 167 292 l 1
 250 292 l 1
 250 250 l 1
 167 250 l 1
167 208 m 1
 167 250 l 1
 250 250 l 1
 250 208 l 1
 167 208 l 1
167 167 m 1
 167 208 l 1
 250 208 l 1
 250 167 l 1
 167 167 l 1
167 125 m 1
 167 167 l 1
 250 167 l 1
 250 125 l 1
 167 125 l 1
167 83 m 1
 167 125 l 1
 250 125 l 1
 250 83 l 1
 167 83 l 1
83 42 m 1
 83 83 l 1
 333 83 l 1
 333 42 l 1
 83 42 l 1
EndSplineSet
EndChar

StartChar: j
Encoding: 106 106 105
Width: 500
Flags: HW
LayerCount: 2
Back
Fore
SplineSet
208 792 m 1
 208 833 l 1
 333 833 l 1
 333 792 l 1
 208 792 l 1
208 750 m 1
 208 792 l 1
 333 792 l 1
 333 750 l 1
 208 750 l 1
208 708 m 1
 208 750 l 1
 333 750 l 1
 333 708 l 1
 208 708 l 1
167 542 m 1
 167 583 l 1
 333 583 l 1
 333 542 l 1
 167 542 l 1
250 500 m 1
 250 542 l 1
 333 542 l 1
 333 500 l 1
 250 500 l 1
250 458 m 1
 250 500 l 1
 333 500 l 1
 333 458 l 1
 250 458 l 1
250 417 m 1
 250 458 l 1
 333 458 l 1
 333 417 l 1
 250 417 l 1
250 375 m 1
 250 417 l 1
 333 417 l 1
 333 375 l 1
 250 375 l 1
250 333 m 1
 250 375 l 1
 333 375 l 1
 333 333 l 1
 250 333 l 1
250 292 m 1
 250 333 l 1
 333 333 l 1
 333 292 l 1
 250 292 l 1
250 250 m 1
 250 292 l 1
 333 292 l 1
 333 250 l 1
 250 250 l 1
250 208 m 1
 250 250 l 1
 333 250 l 1
 333 208 l 1
 250 208 l 1
250 167 m 1
 250 208 l 1
 333 208 l 1
 333 167 l 1
 250 167 l 1
250 125 m 1
 250 167 l 1
 333 167 l 1
 333 125 l 1
 250 125 l 1
250 83 m 1
 250 125 l 1
 333 125 l 1
 333 83 l 1
 250 83 l 1
250 42 m 1
 250 83 l 1
 333 83 l 1
 333 42 l 1
 250 42 l 1
0 0 m 1
 0 42 l 1
 83 42 l 1
 83 0 l 1
 0 0 l 1
250 0 m 1
 250 42 l 1
 333 42 l 1
 333 0 l 1
 250 0 l 1
0 -42 m 1
 0 0 l 1
 83 0 l 1
 83 -42 l 1
 0 -42 l 1
208 -42 m 1
 208 0 l 1
 292 0 l 1
 292 -42 l 1
 208 -42 l 1
42 -83 m 1
 42 -42 l 1
 250 -42 l 1
 250 -83 l 1
 42 -83 l 1
EndSplineSet
EndChar

StartChar: k
Encoding: 107 107 106
Width: 500
Flags: HW
LayerCount: 2
Back
Fore
SplineSet
42 792 m 1
 42 833 l 1
 125 833 l 1
 125 792 l 1
 42 792 l 1
0 750 m 1
 0 792 l 1
 125 792 l 1
 125 750 l 1
 0 750 l 1
42 708 m 1
 42 750 l 1
 125 750 l 1
 125 708 l 1
 42 708 l 1
42 667 m 1
 42 708 l 1
 125 708 l 1
 125 667 l 1
 42 667 l 1
42 625 m 1
 42 667 l 1
 125 667 l 1
 125 625 l 1
 42 625 l 1
42 583 m 1
 42 625 l 1
 125 625 l 1
 125 583 l 1
 42 583 l 1
42 542 m 1
 42 583 l 1
 125 583 l 1
 125 542 l 1
 42 542 l 1
292 542 m 1
 292 583 l 1
 458 583 l 1
 458 542 l 1
 292 542 l 1
42 500 m 1
 42 542 l 1
 125 542 l 1
 125 500 l 1
 42 500 l 1
333 500 m 1
 333 542 l 1
 375 542 l 1
 375 500 l 1
 333 500 l 1
42 458 m 1
 42 500 l 1
 125 500 l 1
 125 458 l 1
 42 458 l 1
292 458 m 1
 292 500 l 1
 333 500 l 1
 333 458 l 1
 292 458 l 1
42 417 m 1
 42 458 l 1
 125 458 l 1
 125 417 l 1
 42 417 l 1
250 417 m 1
 250 458 l 1
 292 458 l 1
 292 417 l 1
 250 417 l 1
42 375 m 1
 42 417 l 1
 125 417 l 1
 125 375 l 1
 42 375 l 1
208 375 m 1
 208 417 l 1
 250 417 l 1
 250 375 l 1
 208 375 l 1
42 333 m 1
 42 375 l 1
 125 375 l 1
 125 333 l 1
 42 333 l 1
167 333 m 1
 167 375 l 1
 208 375 l 1
 208 333 l 1
 167 333 l 1
42 292 m 1
 42 333 l 1
 208 333 l 1
 208 292 l 1
 42 292 l 1
42 250 m 1
 42 292 l 1
 125 292 l 1
 125 250 l 1
 42 250 l 1
167 250 m 1
 167 292 l 1
 250 292 l 1
 250 250 l 1
 167 250 l 1
42 208 m 1
 42 250 l 1
 125 250 l 1
 125 208 l 1
 42 208 l 1
208 208 m 1
 208 250 l 1
 292 250 l 1
 292 208 l 1
 208 208 l 1
42 167 m 1
 42 208 l 1
 125 208 l 1
 125 167 l 1
 42 167 l 1
250 167 m 1
 250 208 l 1
 333 208 l 1
 333 167 l 1
 250 167 l 1
42 125 m 1
 42 167 l 1
 125 167 l 1
 125 125 l 1
 42 125 l 1
292 125 m 1
 292 167 l 1
 375 167 l 1
 375 125 l 1
 292 125 l 1
42 83 m 1
 42 125 l 1
 125 125 l 1
 125 83 l 1
 42 83 l 1
333 83 m 1
 333 125 l 1
 417 125 l 1
 417 83 l 1
 333 83 l 1
0 42 m 1
 0 83 l 1
 167 83 l 1
 167 42 l 1
 0 42 l 1
292 42 m 1
 292 83 l 1
 458 83 l 1
 458 42 l 1
 292 42 l 1
EndSplineSet
EndChar

StartChar: l
Encoding: 108 108 107
Width: 500
Flags: HW
LayerCount: 2
Back
Fore
SplineSet
167 792 m 1
 167 833 l 1
 250 833 l 1
 250 792 l 1
 167 792 l 1
83 750 m 1
 83 792 l 1
 250 792 l 1
 250 750 l 1
 83 750 l 1
167 708 m 1
 167 750 l 1
 250 750 l 1
 250 708 l 1
 167 708 l 1
167 667 m 1
 167 708 l 1
 250 708 l 1
 250 667 l 1
 167 667 l 1
167 625 m 1
 167 667 l 1
 250 667 l 1
 250 625 l 1
 167 625 l 1
167 583 m 1
 167 625 l 1
 250 625 l 1
 250 583 l 1
 167 583 l 1
167 542 m 1
 167 583 l 1
 250 583 l 1
 250 542 l 1
 167 542 l 1
167 500 m 1
 167 542 l 1
 250 542 l 1
 250 500 l 1
 167 500 l 1
167 458 m 1
 167 500 l 1
 250 500 l 1
 250 458 l 1
 167 458 l 1
167 417 m 1
 167 458 l 1
 250 458 l 1
 250 417 l 1
 167 417 l 1
167 375 m 1
 167 417 l 1
 250 417 l 1
 250 375 l 1
 167 375 l 1
167 333 m 1
 167 375 l 1
 250 375 l 1
 250 333 l 1
 167 333 l 1
167 292 m 1
 167 333 l 1
 250 333 l 1
 250 292 l 1
 167 292 l 1
167 250 m 1
 167 292 l 1
 250 292 l 1
 250 250 l 1
 167 250 l 1
167 208 m 1
 167 250 l 1
 250 250 l 1
 250 208 l 1
 167 208 l 1
167 167 m 1
 167 208 l 1
 250 208 l 1
 250 167 l 1
 167 167 l 1
167 125 m 1
 167 167 l 1
 250 167 l 1
 250 125 l 1
 167 125 l 1
167 83 m 1
 167 125 l 1
 250 125 l 1
 250 83 l 1
 167 83 l 1
83 42 m 1
 83 83 l 1
 333 83 l 1
 333 42 l 1
 83 42 l 1
EndSplineSet
EndChar

StartChar: m
Encoding: 109 109 108
Width: 500
Flags: HW
LayerCount: 2
Back
Fore
SplineSet
42 542 m 1
 42 583 l 1
 125 583 l 1
 125 542 l 1
 42 542 l 1
167 542 m 1
 167 583 l 1
 250 583 l 1
 250 542 l 1
 167 542 l 1
292 542 m 1
 292 583 l 1
 417 583 l 1
 417 542 l 1
 292 542 l 1
0 500 m 1
 0 542 l 1
 167 542 l 1
 167 500 l 1
 0 500 l 1
208 500 m 1
 208 542 l 1
 292 542 l 1
 292 500 l 1
 208 500 l 1
375 500 m 1
 375 542 l 1
 458 542 l 1
 458 500 l 1
 375 500 l 1
42 458 m 1
 42 500 l 1
 125 500 l 1
 125 458 l 1
 42 458 l 1
208 458 m 1
 208 500 l 1
 292 500 l 1
 292 458 l 1
 208 458 l 1
375 458 m 1
 375 500 l 1
 458 500 l 1
 458 458 l 1
 375 458 l 1
42 417 m 1
 42 458 l 1
 125 458 l 1
 125 417 l 1
 42 417 l 1
208 417 m 1
 208 458 l 1
 292 458 l 1
 292 417 l 1
 208 417 l 1
375 417 m 1
 375 458 l 1
 458 458 l 1
 458 417 l 1
 375 417 l 1
42 375 m 1
 42 417 l 1
 125 417 l 1
 125 375 l 1
 42 375 l 1
208 375 m 1
 208 417 l 1
 292 417 l 1
 292 375 l 1
 208 375 l 1
375 375 m 1
 375 417 l 1
 458 417 l 1
 458 375 l 1
 375 375 l 1
42 333 m 1
 42 375 l 1
 125 375 l 1
 125 333 l 1
 42 333 l 1
208 333 m 1
 208 375 l 1
 292 375 l 1
 292 333 l 1
 208 333 l 1
375 333 m 1
 375 375 l 1
 458 375 l 1
 458 333 l 1
 375 333 l 1
42 292 m 1
 42 333 l 1
 125 333 l 1
 125 292 l 1
 42 292 l 1
208 292 m 1
 208 333 l 1
 292 333 l 1
 292 292 l 1
 208 292 l 1
375 292 m 1
 375 333 l 1
 458 333 l 1
 458 292 l 1
 375 292 l 1
42 250 m 1
 42 292 l 1
 125 292 l 1
 125 250 l 1
 42 250 l 1
208 250 m 1
 208 292 l 1
 292 292 l 1
 292 250 l 1
 208 250 l 1
375 250 m 1
 375 292 l 1
 458 292 l 1
 458 250 l 1
 375 250 l 1
42 208 m 1
 42 250 l 1
 125 250 l 1
 125 208 l 1
 42 208 l 1
208 208 m 1
 208 250 l 1
 292 250 l 1
 292 208 l 1
 208 208 l 1
375 208 m 1
 375 250 l 1
 458 250 l 1
 458 208 l 1
 375 208 l 1
42 167 m 1
 42 208 l 1
 125 208 l 1
 125 167 l 1
 42 167 l 1
208 167 m 1
 208 208 l 1
 292 208 l 1
 292 167 l 1
 208 167 l 1
375 167 m 1
 375 208 l 1
 458 208 l 1
 458 167 l 1
 375 167 l 1
42 125 m 1
 42 167 l 1
 125 167 l 1
 125 125 l 1
 42 125 l 1
208 125 m 1
 208 167 l 1
 292 167 l 1
 292 125 l 1
 208 125 l 1
375 125 m 1
 375 167 l 1
 458 167 l 1
 458 125 l 1
 375 125 l 1
42 83 m 1
 42 125 l 1
 125 125 l 1
 125 83 l 1
 42 83 l 1
208 83 m 1
 208 125 l 1
 292 125 l 1
 292 83 l 1
 208 83 l 1
375 83 m 1
 375 125 l 1
 458 125 l 1
 458 83 l 1
 375 83 l 1
0 42 m 1
 0 83 l 1
 125 83 l 1
 125 42 l 1
 0 42 l 1
167 42 m 1
 167 83 l 1
 333 83 l 1
 333 42 l 1
 167 42 l 1
375 42 m 1
 375 83 l 1
 500 83 l 1
 500 42 l 1
 375 42 l 1
EndSplineSet
EndChar

StartChar: n
Encoding: 110 110 109
Width: 500
Flags: HW
LayerCount: 2
Back
Fore
SplineSet
42 542 m 1
 42 583 l 1
 125 583 l 1
 125 542 l 1
 42 542 l 1
208 542 m 1
 208 583 l 1
 292 583 l 1
 292 542 l 1
 208 542 l 1
0 500 m 1
 0 542 l 1
 208 542 l 1
 208 500 l 1
 0 500 l 1
292 500 m 1
 292 542 l 1
 375 542 l 1
 375 500 l 1
 292 500 l 1
42 458 m 1
 42 500 l 1
 125 500 l 1
 125 458 l 1
 42 458 l 1
333 458 m 1
 333 500 l 1
 417 500 l 1
 417 458 l 1
 333 458 l 1
42 417 m 1
 42 458 l 1
 125 458 l 1
 125 417 l 1
 42 417 l 1
333 417 m 1
 333 458 l 1
 417 458 l 1
 417 417 l 1
 333 417 l 1
42 375 m 1
 42 417 l 1
 125 417 l 1
 125 375 l 1
 42 375 l 1
333 375 m 1
 333 417 l 1
 417 417 l 1
 417 375 l 1
 333 375 l 1
42 333 m 1
 42 375 l 1
 125 375 l 1
 125 333 l 1
 42 333 l 1
333 333 m 1
 333 375 l 1
 417 375 l 1
 417 333 l 1
 333 333 l 1
42 292 m 1
 42 333 l 1
 125 333 l 1
 125 292 l 1
 42 292 l 1
333 292 m 1
 333 333 l 1
 417 333 l 1
 417 292 l 1
 333 292 l 1
42 250 m 1
 42 292 l 1
 125 292 l 1
 125 250 l 1
 42 250 l 1
333 250 m 1
 333 292 l 1
 417 292 l 1
 417 250 l 1
 333 250 l 1
42 208 m 1
 42 250 l 1
 125 250 l 1
 125 208 l 1
 42 208 l 1
333 208 m 1
 333 250 l 1
 417 250 l 1
 417 208 l 1
 333 208 l 1
42 167 m 1
 42 208 l 1
 125 208 l 1
 125 167 l 1
 42 167 l 1
333 167 m 1
 333 208 l 1
 417 208 l 1
 417 167 l 1
 333 167 l 1
42 125 m 1
 42 167 l 1
 125 167 l 1
 125 125 l 1
 42 125 l 1
333 125 m 1
 333 167 l 1
 417 167 l 1
 417 125 l 1
 333 125 l 1
42 83 m 1
 42 125 l 1
 125 125 l 1
 125 83 l 1
 42 83 l 1
333 83 m 1
 333 125 l 1
 417 125 l 1
 417 83 l 1
 333 83 l 1
0 42 m 1
 0 83 l 1
 167 83 l 1
 167 42 l 1
 0 42 l 1
292 42 m 1
 292 83 l 1
 458 83 l 1
 458 42 l 1
 292 42 l 1
EndSplineSet
EndChar

StartChar: o
Encoding: 111 111 110
Width: 500
Flags: HW
LayerCount: 2
Back
Fore
SplineSet
167 542 m 1
 167 583 l 1
 292 583 l 1
 292 542 l 1
 167 542 l 1
83 500 m 1
 83 542 l 1
 167 542 l 1
 167 500 l 1
 83 500 l 1
292 500 m 1
 292 542 l 1
 375 542 l 1
 375 500 l 1
 292 500 l 1
42 458 m 1
 42 500 l 1
 125 500 l 1
 125 458 l 1
 42 458 l 1
333 458 m 1
 333 500 l 1
 417 500 l 1
 417 458 l 1
 333 458 l 1
42 417 m 1
 42 458 l 1
 83 458 l 1
 83 417 l 1
 42 417 l 1
375 417 m 1
 375 458 l 1
 417 458 l 1
 417 417 l 1
 375 417 l 1
0 375 m 1
 0 417 l 1
 83 417 l 1
 83 375 l 1
 0 375 l 1
375 375 m 1
 375 417 l 1
 458 417 l 1
 458 375 l 1
 375 375 l 1
0 333 m 1
 0 375 l 1
 83 375 l 1
 83 333 l 1
 0 333 l 1
375 333 m 1
 375 375 l 1
 458 375 l 1
 458 333 l 1
 375 333 l 1
0 292 m 1
 0 333 l 1
 83 333 l 1
 83 292 l 1
 0 292 l 1
375 292 m 1
 375 333 l 1
 458 333 l 1
 458 292 l 1
 375 292 l 1
0 250 m 1
 0 292 l 1
 83 292 l 1
 83 250 l 1
 0 250 l 1
375 250 m 1
 375 292 l 1
 458 292 l 1
 458 250 l 1
 375 250 l 1
0 208 m 1
 0 250 l 1
 83 250 l 1
 83 208 l 1
 0 208 l 1
375 208 m 1
 375 250 l 1
 458 250 l 1
 458 208 l 1
 375 208 l 1
42 167 m 1
 42 208 l 1
 83 208 l 1
 83 167 l 1
 42 167 l 1
375 167 m 1
 375 208 l 1
 417 208 l 1
 417 167 l 1
 375 167 l 1
42 125 m 1
 42 167 l 1
 125 167 l 1
 125 125 l 1
 42 125 l 1
333 125 m 1
 333 167 l 1
 417 167 l 1
 417 125 l 1
 333 125 l 1
83 83 m 1
 83 125 l 1
 167 125 l 1
 167 83 l 1
 83 83 l 1
292 83 m 1
 292 125 l 1
 375 125 l 1
 375 83 l 1
 292 83 l 1
167 42 m 1
 167 83 l 1
 292 83 l 1
 292 42 l 1
 167 42 l 1
EndSplineSet
EndChar

StartChar: p
Encoding: 112 112 111
Width: 500
Flags: HW
LayerCount: 2
Back
Fore
SplineSet
42 542 m 1
 42 583 l 1
 125 583 l 1
 125 542 l 1
 42 542 l 1
167 542 m 1
 167 583 l 1
 292 583 l 1
 292 542 l 1
 167 542 l 1
0 500 m 1
 0 542 l 1
 167 542 l 1
 167 500 l 1
 0 500 l 1
292 500 m 1
 292 542 l 1
 375 542 l 1
 375 500 l 1
 292 500 l 1
42 458 m 1
 42 500 l 1
 125 500 l 1
 125 458 l 1
 42 458 l 1
333 458 m 1
 333 500 l 1
 417 500 l 1
 417 458 l 1
 333 458 l 1
42 417 m 1
 42 458 l 1
 125 458 l 1
 125 417 l 1
 42 417 l 1
375 417 m 1
 375 458 l 1
 458 458 l 1
 458 417 l 1
 375 417 l 1
42 375 m 1
 42 417 l 1
 125 417 l 1
 125 375 l 1
 42 375 l 1
375 375 m 1
 375 417 l 1
 458 417 l 1
 458 375 l 1
 375 375 l 1
42 333 m 1
 42 375 l 1
 125 375 l 1
 125 333 l 1
 42 333 l 1
375 333 m 1
 375 375 l 1
 458 375 l 1
 458 333 l 1
 375 333 l 1
42 292 m 1
 42 333 l 1
 125 333 l 1
 125 292 l 1
 42 292 l 1
375 292 m 1
 375 333 l 1
 458 333 l 1
 458 292 l 1
 375 292 l 1
42 250 m 1
 42 292 l 1
 125 292 l 1
 125 250 l 1
 42 250 l 1
375 250 m 1
 375 292 l 1
 458 292 l 1
 458 250 l 1
 375 250 l 1
42 208 m 1
 42 250 l 1
 125 250 l 1
 125 208 l 1
 42 208 l 1
333 208 m 1
 333 250 l 1
 417 250 l 1
 417 208 l 1
 333 208 l 1
42 167 m 1
 42 208 l 1
 167 208 l 1
 167 167 l 1
 42 167 l 1
292 167 m 1
 292 208 l 1
 375 208 l 1
 375 167 l 1
 292 167 l 1
42 125 m 1
 42 167 l 1
 125 167 l 1
 125 125 l 1
 42 125 l 1
167 125 m 1
 167 167 l 1
 292 167 l 1
 292 125 l 1
 167 125 l 1
42 83 m 1
 42 125 l 1
 125 125 l 1
 125 83 l 1
 42 83 l 1
42 42 m 1
 42 83 l 1
 125 83 l 1
 125 42 l 1
 42 42 l 1
42 0 m 1
 42 42 l 1
 125 42 l 1
 125 0 l 1
 42 0 l 1
42 -42 m 1
 42 0 l 1
 125 0 l 1
 125 -42 l 1
 42 -42 l 1
0 -83 m 1
 0 -42 l 1
 167 -42 l 1
 167 -83 l 1
 0 -83 l 1
EndSplineSet
EndChar

StartChar: q
Encoding: 113 113 112
Width: 500
Flags: HW
LayerCount: 2
Back
Fore
SplineSet
167 542 m 1
 167 583 l 1
 292 583 l 1
 292 542 l 1
 167 542 l 1
375 542 m 1
 375 583 l 1
 417 583 l 1
 417 542 l 1
 375 542 l 1
83 500 m 1
 83 542 l 1
 167 542 l 1
 167 500 l 1
 83 500 l 1
292 500 m 1
 292 542 l 1
 417 542 l 1
 417 500 l 1
 292 500 l 1
42 458 m 1
 42 500 l 1
 125 500 l 1
 125 458 l 1
 42 458 l 1
333 458 m 1
 333 500 l 1
 417 500 l 1
 417 458 l 1
 333 458 l 1
0 417 m 1
 0 458 l 1
 83 458 l 1
 83 417 l 1
 0 417 l 1
333 417 m 1
 333 458 l 1
 417 458 l 1
 417 417 l 1
 333 417 l 1
0 375 m 1
 0 417 l 1
 83 417 l 1
 83 375 l 1
 0 375 l 1
333 375 m 1
 333 417 l 1
 417 417 l 1
 417 375 l 1
 333 375 l 1
0 333 m 1
 0 375 l 1
 83 375 l 1
 83 333 l 1
 0 333 l 1
333 333 m 1
 333 375 l 1
 417 375 l 1
 417 333 l 1
 333 333 l 1
0 292 m 1
 0 333 l 1
 83 333 l 1
 83 292 l 1
 0 292 l 1
333 292 m 1
 333 333 l 1
 417 333 l 1
 417 292 l 1
 333 292 l 1
0 250 m 1
 0 292 l 1
 83 292 l 1
 83 250 l 1
 0 250 l 1
333 250 m 1
 333 292 l 1
 417 292 l 1
 417 250 l 1
 333 250 l 1
42 208 m 1
 42 250 l 1
 125 250 l 1
 125 208 l 1
 42 208 l 1
333 208 m 1
 333 250 l 1
 417 250 l 1
 417 208 l 1
 333 208 l 1
83 167 m 1
 83 208 l 1
 167 208 l 1
 167 167 l 1
 83 167 l 1
292 167 m 1
 292 208 l 1
 417 208 l 1
 417 167 l 1
 292 167 l 1
167 125 m 1
 167 167 l 1
 292 167 l 1
 292 125 l 1
 167 125 l 1
333 125 m 1
 333 167 l 1
 417 167 l 1
 417 125 l 1
 333 125 l 1
333 83 m 1
 333 125 l 1
 417 125 l 1
 417 83 l 1
 333 83 l 1
333 42 m 1
 333 83 l 1
 417 83 l 1
 417 42 l 1
 333 42 l 1
333 0 m 1
 333 42 l 1
 417 42 l 1
 417 0 l 1
 333 0 l 1
333 -42 m 1
 333 0 l 1
 417 0 l 1
 417 -42 l 1
 333 -42 l 1
292 -83 m 1
 292 -42 l 1
 458 -42 l 1
 458 -83 l 1
 292 -83 l 1
EndSplineSet
EndChar

StartChar: r
Encoding: 114 114 113
Width: 500
Flags: HW
LayerCount: 2
Back
Fore
SplineSet
83 542 m 1
 83 583 l 1
 167 583 l 1
 167 542 l 1
 83 542 l 1
292 542 m 1
 292 583 l 1
 417 583 l 1
 417 542 l 1
 292 542 l 1
0 500 m 1
 0 542 l 1
 167 542 l 1
 167 500 l 1
 0 500 l 1
250 500 m 1
 250 542 l 1
 458 542 l 1
 458 500 l 1
 250 500 l 1
83 458 m 1
 83 500 l 1
 167 500 l 1
 167 458 l 1
 83 458 l 1
208 458 m 1
 208 500 l 1
 292 500 l 1
 292 458 l 1
 208 458 l 1
375 458 m 1
 375 500 l 1
 458 500 l 1
 458 458 l 1
 375 458 l 1
83 417 m 1
 83 458 l 1
 208 458 l 1
 208 417 l 1
 83 417 l 1
83 375 m 1
 83 417 l 1
 167 417 l 1
 167 375 l 1
 83 375 l 1
83 333 m 1
 83 375 l 1
 167 375 l 1
 167 333 l 1
 83 333 l 1
83 292 m 1
 83 333 l 1
 167 333 l 1
 167 292 l 1
 83 292 l 1
83 250 m 1
 83 292 l 1
 167 292 l 1
 167 250 l 1
 83 250 l 1
83 208 m 1
 83 250 l 1
 167 250 l 1
 167 208 l 1
 83 208 l 1
83 167 m 1
 83 208 l 1
 167 208 l 1
 167 167 l 1
 83 167 l 1
83 125 m 1
 83 167 l 1
 167 167 l 1
 167 125 l 1
 83 125 l 1
83 83 m 1
 83 125 l 1
 167 125 l 1
 167 83 l 1
 83 83 l 1
0 42 m 1
 0 83 l 1
 250 83 l 1
 250 42 l 1
 0 42 l 1
EndSplineSet
EndChar

StartChar: s
Encoding: 115 115 114
Width: 500
Flags: HW
LayerCount: 2
Back
Fore
SplineSet
125 542 m 1
 125 583 l 1
 292 583 l 1
 292 542 l 1
 125 542 l 1
375 542 m 1
 375 583 l 1
 417 583 l 1
 417 542 l 1
 375 542 l 1
42 500 m 1
 42 542 l 1
 125 542 l 1
 125 500 l 1
 42 500 l 1
292 500 m 1
 292 542 l 1
 417 542 l 1
 417 500 l 1
 292 500 l 1
0 458 m 1
 0 500 l 1
 83 500 l 1
 83 458 l 1
 0 458 l 1
333 458 m 1
 333 500 l 1
 417 500 l 1
 417 458 l 1
 333 458 l 1
0 417 m 1
 0 458 l 1
 83 458 l 1
 83 417 l 1
 0 417 l 1
375 417 m 1
 375 458 l 1
 417 458 l 1
 417 417 l 1
 375 417 l 1
0 375 m 1
 0 417 l 1
 125 417 l 1
 125 375 l 1
 0 375 l 1
42 333 m 1
 42 375 l 1
 250 375 l 1
 250 333 l 1
 42 333 l 1
125 292 m 1
 125 333 l 1
 375 333 l 1
 375 292 l 1
 125 292 l 1
250 250 m 1
 250 292 l 1
 417 292 l 1
 417 250 l 1
 250 250 l 1
333 208 m 1
 333 250 l 1
 458 250 l 1
 458 208 l 1
 333 208 l 1
0 167 m 1
 0 208 l 1
 42 208 l 1
 42 167 l 1
 0 167 l 1
375 167 m 1
 375 208 l 1
 458 208 l 1
 458 167 l 1
 375 167 l 1
0 125 m 1
 0 167 l 1
 83 167 l 1
 83 125 l 1
 0 125 l 1
375 125 m 1
 375 167 l 1
 458 167 l 1
 458 125 l 1
 375 125 l 1
0 83 m 1
 0 125 l 1
 125 125 l 1
 125 83 l 1
 0 83 l 1
333 83 m 1
 333 125 l 1
 417 125 l 1
 417 83 l 1
 333 83 l 1
0 42 m 1
 0 83 l 1
 42 83 l 1
 42 42 l 1
 0 42 l 1
125 42 m 1
 125 83 l 1
 333 83 l 1
 333 42 l 1
 125 42 l 1
EndSplineSet
EndChar

StartChar: t
Encoding: 116 116 115
Width: 500
Flags: HW
LayerCount: 2
Back
Fore
SplineSet
125 792 m 1
 125 833 l 1
 208 833 l 1
 208 792 l 1
 125 792 l 1
125 750 m 1
 125 792 l 1
 208 792 l 1
 208 750 l 1
 125 750 l 1
125 708 m 1
 125 750 l 1
 208 750 l 1
 208 708 l 1
 125 708 l 1
125 667 m 1
 125 708 l 1
 208 708 l 1
 208 667 l 1
 125 667 l 1
125 625 m 1
 125 667 l 1
 208 667 l 1
 208 625 l 1
 125 625 l 1
125 583 m 1
 125 625 l 1
 208 625 l 1
 208 583 l 1
 125 583 l 1
0 542 m 1
 0 583 l 1
 375 583 l 1
 375 542 l 1
 0 542 l 1
125 500 m 1
 125 542 l 1
 208 542 l 1
 208 500 l 1
 125 500 l 1
125 458 m 1
 125 500 l 1
 208 500 l 1
 208 458 l 1
 125 458 l 1
125 417 m 1
 125 458 l 1
 208 458 l 1
 208 417 l 1
 125 417 l 1
125 375 m 1
 125 417 l 1
 208 417 l 1
 208 375 l 1
 125 375 l 1
125 333 m 1
 125 375 l 1
 208 375 l 1
 208 333 l 1
 125 333 l 1
125 292 m 1
 125 333 l 1
 208 333 l 1
 208 292 l 1
 125 292 l 1
125 250 m 1
 125 292 l 1
 208 292 l 1
 208 250 l 1
 125 250 l 1
125 208 m 1
 125 250 l 1
 208 250 l 1
 208 208 l 1
 125 208 l 1
125 167 m 1
 125 208 l 1
 208 208 l 1
 208 167 l 1
 125 167 l 1
417 167 m 1
 417 208 l 1
 458 208 l 1
 458 167 l 1
 417 167 l 1
125 125 m 1
 125 167 l 1
 208 167 l 1
 208 125 l 1
 125 125 l 1
417 125 m 1
 417 167 l 1
 458 167 l 1
 458 125 l 1
 417 125 l 1
167 83 m 1
 167 125 l 1
 250 125 l 1
 250 83 l 1
 167 83 l 1
375 83 m 1
 375 125 l 1
 417 125 l 1
 417 83 l 1
 375 83 l 1
208 42 m 1
 208 83 l 1
 375 83 l 1
 375 42 l 1
 208 42 l 1
EndSplineSet
EndChar

StartChar: u
Encoding: 117 117 116
Width: 500
Flags: HW
LayerCount: 2
Back
Fore
SplineSet
42 542 m 1
 42 583 l 1
 125 583 l 1
 125 542 l 1
 42 542 l 1
333 542 m 1
 333 583 l 1
 417 583 l 1
 417 542 l 1
 333 542 l 1
0 500 m 1
 0 542 l 1
 125 542 l 1
 125 500 l 1
 0 500 l 1
292 500 m 1
 292 542 l 1
 417 542 l 1
 417 500 l 1
 292 500 l 1
42 458 m 1
 42 500 l 1
 125 500 l 1
 125 458 l 1
 42 458 l 1
333 458 m 1
 333 500 l 1
 417 500 l 1
 417 458 l 1
 333 458 l 1
42 417 m 1
 42 458 l 1
 125 458 l 1
 125 417 l 1
 42 417 l 1
333 417 m 1
 333 458 l 1
 417 458 l 1
 417 417 l 1
 333 417 l 1
42 375 m 1
 42 417 l 1
 125 417 l 1
 125 375 l 1
 42 375 l 1
333 375 m 1
 333 417 l 1
 417 417 l 1
 417 375 l 1
 333 375 l 1
42 333 m 1
 42 375 l 1
 125 375 l 1
 125 333 l 1
 42 333 l 1
333 333 m 1
 333 375 l 1
 417 375 l 1
 417 333 l 1
 333 333 l 1
42 292 m 1
 42 333 l 1
 125 333 l 1
 125 292 l 1
 42 292 l 1
333 292 m 1
 333 333 l 1
 417 333 l 1
 417 292 l 1
 333 292 l 1
42 250 m 1
 42 292 l 1
 125 292 l 1
 125 250 l 1
 42 250 l 1
333 250 m 1
 333 292 l 1
 417 292 l 1
 417 250 l 1
 333 250 l 1
42 208 m 1
 42 250 l 1
 125 250 l 1
 125 208 l 1
 42 208 l 1
333 208 m 1
 333 250 l 1
 417 250 l 1
 417 208 l 1
 333 208 l 1
42 167 m 1
 42 208 l 1
 125 208 l 1
 125 167 l 1
 42 167 l 1
333 167 m 1
 333 208 l 1
 417 208 l 1
 417 167 l 1
 333 167 l 1
42 125 m 1
 42 167 l 1
 125 167 l 1
 125 125 l 1
 42 125 l 1
333 125 m 1
 333 167 l 1
 417 167 l 1
 417 125 l 1
 333 125 l 1
83 83 m 1
 83 125 l 1
 167 125 l 1
 167 83 l 1
 83 83 l 1
250 83 m 1
 250 125 l 1
 417 125 l 1
 417 83 l 1
 250 83 l 1
125 42 m 1
 125 83 l 1
 250 83 l 1
 250 42 l 1
 125 42 l 1
333 42 m 1
 333 83 l 1
 458 83 l 1
 458 42 l 1
 333 42 l 1
EndSplineSet
EndChar

StartChar: v
Encoding: 118 118 117
Width: 500
Flags: HW
LayerCount: 2
Back
Fore
SplineSet
0 542 m 1
 0 583 l 1
 167 583 l 1
 167 542 l 1
 0 542 l 1
333 542 m 1
 333 583 l 1
 458 583 l 1
 458 542 l 1
 333 542 l 1
42 500 m 1
 42 542 l 1
 125 542 l 1
 125 500 l 1
 42 500 l 1
375 500 m 1
 375 542 l 1
 417 542 l 1
 417 500 l 1
 375 500 l 1
42 458 m 1
 42 500 l 1
 125 500 l 1
 125 458 l 1
 42 458 l 1
375 458 m 1
 375 500 l 1
 417 500 l 1
 417 458 l 1
 375 458 l 1
83 417 m 1
 83 458 l 1
 167 458 l 1
 167 417 l 1
 83 417 l 1
333 417 m 1
 333 458 l 1
 375 458 l 1
 375 417 l 1
 333 417 l 1
83 375 m 1
 83 417 l 1
 167 417 l 1
 167 375 l 1
 83 375 l 1
333 375 m 1
 333 417 l 1
 375 417 l 1
 375 375 l 1
 333 375 l 1
83 333 m 1
 83 375 l 1
 167 375 l 1
 167 333 l 1
 83 333 l 1
333 333 m 1
 333 375 l 1
 375 375 l 1
 375 333 l 1
 333 333 l 1
125 292 m 1
 125 333 l 1
 208 333 l 1
 208 292 l 1
 125 292 l 1
292 292 m 1
 292 333 l 1
 333 333 l 1
 333 292 l 1
 292 292 l 1
125 250 m 1
 125 292 l 1
 208 292 l 1
 208 250 l 1
 125 250 l 1
292 250 m 1
 292 292 l 1
 333 292 l 1
 333 250 l 1
 292 250 l 1
125 208 m 1
 125 250 l 1
 208 250 l 1
 208 208 l 1
 125 208 l 1
250 208 m 1
 250 250 l 1
 292 250 l 1
 292 208 l 1
 250 208 l 1
167 167 m 1
 167 208 l 1
 292 208 l 1
 292 167 l 1
 167 167 l 1
167 125 m 1
 167 167 l 1
 292 167 l 1
 292 125 l 1
 167 125 l 1
208 83 m 1
 208 125 l 1
 250 125 l 1
 250 83 l 1
 208 83 l 1
208 42 m 1
 208 83 l 1
 250 83 l 1
 250 42 l 1
 208 42 l 1
EndSplineSet
EndChar

StartChar: w
Encoding: 119 119 118
Width: 500
Flags: HW
LayerCount: 2
Back
Fore
SplineSet
0 542 m 1
 0 583 l 1
 125 583 l 1
 125 542 l 1
 0 542 l 1
375 542 m 1
 375 583 l 1
 458 583 l 1
 458 542 l 1
 375 542 l 1
0 500 m 1
 0 542 l 1
 83 542 l 1
 83 500 l 1
 0 500 l 1
417 500 m 1
 417 542 l 1
 458 542 l 1
 458 500 l 1
 417 500 l 1
0 458 m 1
 0 500 l 1
 83 500 l 1
 83 458 l 1
 0 458 l 1
417 458 m 1
 417 500 l 1
 458 500 l 1
 458 458 l 1
 417 458 l 1
0 417 m 1
 0 458 l 1
 83 458 l 1
 83 417 l 1
 0 417 l 1
208 417 m 1
 208 458 l 1
 292 458 l 1
 292 417 l 1
 208 417 l 1
417 417 m 1
 417 458 l 1
 458 458 l 1
 458 417 l 1
 417 417 l 1
0 375 m 1
 0 417 l 1
 83 417 l 1
 83 375 l 1
 0 375 l 1
208 375 m 1
 208 417 l 1
 292 417 l 1
 292 375 l 1
 208 375 l 1
417 375 m 1
 417 417 l 1
 458 417 l 1
 458 375 l 1
 417 375 l 1
0 333 m 1
 0 375 l 1
 83 375 l 1
 83 333 l 1
 0 333 l 1
208 333 m 1
 208 375 l 1
 292 375 l 1
 292 333 l 1
 208 333 l 1
417 333 m 1
 417 375 l 1
 458 375 l 1
 458 333 l 1
 417 333 l 1
0 292 m 1
 0 333 l 1
 83 333 l 1
 83 292 l 1
 0 292 l 1
167 292 m 1
 167 333 l 1
 292 333 l 1
 292 292 l 1
 167 292 l 1
417 292 m 1
 417 333 l 1
 458 333 l 1
 458 292 l 1
 417 292 l 1
0 250 m 1
 0 292 l 1
 83 292 l 1
 83 250 l 1
 0 250 l 1
167 250 m 1
 167 292 l 1
 208 292 l 1
 208 250 l 1
 167 250 l 1
250 250 m 1
 250 292 l 1
 333 292 l 1
 333 250 l 1
 250 250 l 1
417 250 m 1
 417 292 l 1
 458 292 l 1
 458 250 l 1
 417 250 l 1
0 208 m 1
 0 250 l 1
 83 250 l 1
 83 208 l 1
 0 208 l 1
167 208 m 1
 167 250 l 1
 208 250 l 1
 208 208 l 1
 167 208 l 1
250 208 m 1
 250 250 l 1
 333 250 l 1
 333 208 l 1
 250 208 l 1
417 208 m 1
 417 250 l 1
 458 250 l 1
 458 208 l 1
 417 208 l 1
42 167 m 1
 42 208 l 1
 83 208 l 1
 83 167 l 1
 42 167 l 1
125 167 m 1
 125 208 l 1
 167 208 l 1
 167 167 l 1
 125 167 l 1
292 167 m 1
 292 208 l 1
 333 208 l 1
 333 167 l 1
 292 167 l 1
375 167 m 1
 375 208 l 1
 458 208 l 1
 458 167 l 1
 375 167 l 1
42 125 m 1
 42 167 l 1
 167 167 l 1
 167 125 l 1
 42 125 l 1
292 125 m 1
 292 167 l 1
 417 167 l 1
 417 125 l 1
 292 125 l 1
42 83 m 1
 42 125 l 1
 125 125 l 1
 125 83 l 1
 42 83 l 1
333 83 m 1
 333 125 l 1
 417 125 l 1
 417 83 l 1
 333 83 l 1
83 42 m 1
 83 83 l 1
 125 83 l 1
 125 42 l 1
 83 42 l 1
333 42 m 1
 333 83 l 1
 375 83 l 1
 375 42 l 1
 333 42 l 1
EndSplineSet
EndChar

StartChar: x
Encoding: 120 120 119
Width: 500
Flags: HW
LayerCount: 2
Back
Fore
SplineSet
0 542 m 1
 0 583 l 1
 167 583 l 1
 167 542 l 1
 0 542 l 1
333 542 m 1
 333 583 l 1
 458 583 l 1
 458 542 l 1
 333 542 l 1
42 500 m 1
 42 542 l 1
 125 542 l 1
 125 500 l 1
 42 500 l 1
375 500 m 1
 375 542 l 1
 417 542 l 1
 417 500 l 1
 375 500 l 1
83 458 m 1
 83 500 l 1
 167 500 l 1
 167 458 l 1
 83 458 l 1
333 458 m 1
 333 500 l 1
 375 500 l 1
 375 458 l 1
 333 458 l 1
125 417 m 1
 125 458 l 1
 208 458 l 1
 208 417 l 1
 125 417 l 1
292 417 m 1
 292 458 l 1
 333 458 l 1
 333 417 l 1
 292 417 l 1
125 375 m 1
 125 417 l 1
 208 417 l 1
 208 375 l 1
 125 375 l 1
292 375 m 1
 292 417 l 1
 333 417 l 1
 333 375 l 1
 292 375 l 1
167 333 m 1
 167 375 l 1
 292 375 l 1
 292 333 l 1
 167 333 l 1
208 292 m 1
 208 333 l 1
 250 333 l 1
 250 292 l 1
 208 292 l 1
167 250 m 1
 167 292 l 1
 292 292 l 1
 292 250 l 1
 167 250 l 1
125 208 m 1
 125 250 l 1
 167 250 l 1
 167 208 l 1
 125 208 l 1
250 208 m 1
 250 250 l 1
 333 250 l 1
 333 208 l 1
 250 208 l 1
125 167 m 1
 125 208 l 1
 167 208 l 1
 167 167 l 1
 125 167 l 1
250 167 m 1
 250 208 l 1
 333 208 l 1
 333 167 l 1
 250 167 l 1
83 125 m 1
 83 167 l 1
 125 167 l 1
 125 125 l 1
 83 125 l 1
292 125 m 1
 292 167 l 1
 375 167 l 1
 375 125 l 1
 292 125 l 1
42 83 m 1
 42 125 l 1
 83 125 l 1
 83 83 l 1
 42 83 l 1
333 83 m 1
 333 125 l 1
 417 125 l 1
 417 83 l 1
 333 83 l 1
0 42 m 1
 0 83 l 1
 125 83 l 1
 125 42 l 1
 0 42 l 1
292 42 m 1
 292 83 l 1
 458 83 l 1
 458 42 l 1
 292 42 l 1
EndSplineSet
EndChar

StartChar: y
Encoding: 121 121 120
Width: 500
Flags: HW
LayerCount: 2
Back
Fore
SplineSet
0 542 m 1
 0 583 l 1
 167 583 l 1
 167 542 l 1
 0 542 l 1
333 542 m 1
 333 583 l 1
 458 583 l 1
 458 542 l 1
 333 542 l 1
42 500 m 1
 42 542 l 1
 125 542 l 1
 125 500 l 1
 42 500 l 1
375 500 m 1
 375 542 l 1
 417 542 l 1
 417 500 l 1
 375 500 l 1
42 458 m 1
 42 500 l 1
 125 500 l 1
 125 458 l 1
 42 458 l 1
375 458 m 1
 375 500 l 1
 417 500 l 1
 417 458 l 1
 375 458 l 1
83 417 m 1
 83 458 l 1
 167 458 l 1
 167 417 l 1
 83 417 l 1
333 417 m 1
 333 458 l 1
 375 458 l 1
 375 417 l 1
 333 417 l 1
83 375 m 1
 83 417 l 1
 167 417 l 1
 167 375 l 1
 83 375 l 1
333 375 m 1
 333 417 l 1
 375 417 l 1
 375 375 l 1
 333 375 l 1
125 333 m 1
 125 375 l 1
 208 375 l 1
 208 333 l 1
 125 333 l 1
333 333 m 1
 333 375 l 1
 375 375 l 1
 375 333 l 1
 333 333 l 1
125 292 m 1
 125 333 l 1
 208 333 l 1
 208 292 l 1
 125 292 l 1
292 292 m 1
 292 333 l 1
 333 333 l 1
 333 292 l 1
 292 292 l 1
167 250 m 1
 167 292 l 1
 250 292 l 1
 250 250 l 1
 167 250 l 1
292 250 m 1
 292 292 l 1
 333 292 l 1
 333 250 l 1
 292 250 l 1
167 208 m 1
 167 250 l 1
 292 250 l 1
 292 208 l 1
 167 208 l 1
208 167 m 1
 208 208 l 1
 292 208 l 1
 292 167 l 1
 208 167 l 1
250 125 m 1
 250 167 l 1
 292 167 l 1
 292 125 l 1
 250 125 l 1
208 83 m 1
 208 125 l 1
 250 125 l 1
 250 83 l 1
 208 83 l 1
208 42 m 1
 208 83 l 1
 250 83 l 1
 250 42 l 1
 208 42 l 1
0 0 m 1
 0 42 l 1
 83 42 l 1
 83 0 l 1
 0 0 l 1
167 0 m 1
 167 42 l 1
 208 42 l 1
 208 0 l 1
 167 0 l 1
0 -42 m 1
 0 0 l 1
 83 0 l 1
 83 -42 l 1
 0 -42 l 1
167 -42 m 1
 167 0 l 1
 208 0 l 1
 208 -42 l 1
 167 -42 l 1
42 -83 m 1
 42 -42 l 1
 167 -42 l 1
 167 -83 l 1
 42 -83 l 1
EndSplineSet
EndChar

StartChar: z
Encoding: 122 122 121
Width: 500
Flags: HW
LayerCount: 2
Back
Fore
SplineSet
42 542 m 1
 42 583 l 1
 458 583 l 1
 458 542 l 1
 42 542 l 1
42 500 m 1
 42 542 l 1
 125 542 l 1
 125 500 l 1
 42 500 l 1
333 500 m 1
 333 542 l 1
 417 542 l 1
 417 500 l 1
 333 500 l 1
42 458 m 1
 42 500 l 1
 83 500 l 1
 83 458 l 1
 42 458 l 1
292 458 m 1
 292 500 l 1
 375 500 l 1
 375 458 l 1
 292 458 l 1
0 417 m 1
 0 458 l 1
 42 458 l 1
 42 417 l 1
 0 417 l 1
292 417 m 1
 292 458 l 1
 375 458 l 1
 375 417 l 1
 292 417 l 1
250 375 m 1
 250 417 l 1
 333 417 l 1
 333 375 l 1
 250 375 l 1
208 333 m 1
 208 375 l 1
 292 375 l 1
 292 333 l 1
 208 333 l 1
208 292 m 1
 208 333 l 1
 250 333 l 1
 250 292 l 1
 208 292 l 1
167 250 m 1
 167 292 l 1
 250 292 l 1
 250 250 l 1
 167 250 l 1
125 208 m 1
 125 250 l 1
 208 250 l 1
 208 208 l 1
 125 208 l 1
83 167 m 1
 83 208 l 1
 167 208 l 1
 167 167 l 1
 83 167 l 1
417 167 m 1
 417 208 l 1
 458 208 l 1
 458 167 l 1
 417 167 l 1
83 125 m 1
 83 167 l 1
 167 167 l 1
 167 125 l 1
 83 125 l 1
375 125 m 1
 375 167 l 1
 417 167 l 1
 417 125 l 1
 375 125 l 1
42 83 m 1
 42 125 l 1
 125 125 l 1
 125 83 l 1
 42 83 l 1
375 83 m 1
 375 125 l 1
 417 125 l 1
 417 83 l 1
 375 83 l 1
0 42 m 1
 0 83 l 1
 417 83 l 1
 417 42 l 1
 0 42 l 1
EndSplineSet
EndChar

StartChar: {
Encoding: 123 123 122
Width: 500
Flags: HW
LayerCount: 2
Back
Fore
SplineSet
375 875 m 1
 375 917 l 1
 417 917 l 1
 417 875 l 1
 375 875 l 1
333 833 m 1
 333 875 l 1
 375 875 l 1
 375 833 l 1
 333 833 l 1
333 792 m 1
 333 833 l 1
 375 833 l 1
 375 792 l 1
 333 792 l 1
292 750 m 1
 292 792 l 1
 375 792 l 1
 375 750 l 1
 292 750 l 1
292 708 m 1
 292 750 l 1
 375 750 l 1
 375 708 l 1
 292 708 l 1
292 667 m 1
 292 708 l 1
 375 708 l 1
 375 667 l 1
 292 667 l 1
292 625 m 1
 292 667 l 1
 375 667 l 1
 375 625 l 1
 292 625 l 1
292 583 m 1
 292 625 l 1
 375 625 l 1
 375 583 l 1
 292 583 l 1
292 542 m 1
 292 583 l 1
 375 583 l 1
 375 542 l 1
 292 542 l 1
292 500 m 1
 292 542 l 1
 333 542 l 1
 333 500 l 1
 292 500 l 1
250 458 m 1
 250 500 l 1
 292 500 l 1
 292 458 l 1
 250 458 l 1
208 417 m 1
 208 458 l 1
 250 458 l 1
 250 417 l 1
 208 417 l 1
250 375 m 1
 250 417 l 1
 292 417 l 1
 292 375 l 1
 250 375 l 1
292 333 m 1
 292 375 l 1
 333 375 l 1
 333 333 l 1
 292 333 l 1
292 292 m 1
 292 333 l 1
 375 333 l 1
 375 292 l 1
 292 292 l 1
292 250 m 1
 292 292 l 1
 375 292 l 1
 375 250 l 1
 292 250 l 1
292 208 m 1
 292 250 l 1
 375 250 l 1
 375 208 l 1
 292 208 l 1
292 167 m 1
 292 208 l 1
 375 208 l 1
 375 167 l 1
 292 167 l 1
292 125 m 1
 292 167 l 1
 375 167 l 1
 375 125 l 1
 292 125 l 1
292 83 m 1
 292 125 l 1
 375 125 l 1
 375 83 l 1
 292 83 l 1
292 42 m 1
 292 83 l 1
 375 83 l 1
 375 42 l 1
 292 42 l 1
333 0 m 1
 333 42 l 1
 375 42 l 1
 375 0 l 1
 333 0 l 1
333 -42 m 1
 333 0 l 1
 375 0 l 1
 375 -42 l 1
 333 -42 l 1
375 -83 m 1
 375 -42 l 1
 417 -42 l 1
 417 -83 l 1
 375 -83 l 1
EndSplineSet
EndChar

StartChar: |
Encoding: 124 124 123
Width: 500
Flags: HW
LayerCount: 2
Back
Fore
SplineSet
208 875 m 1
 208 917 l 1
 292 917 l 1
 292 875 l 1
 208 875 l 1
208 833 m 1
 208 875 l 1
 292 875 l 1
 292 833 l 1
 208 833 l 1
208 792 m 1
 208 833 l 1
 292 833 l 1
 292 792 l 1
 208 792 l 1
208 750 m 1
 208 792 l 1
 292 792 l 1
 292 750 l 1
 208 750 l 1
208 708 m 1
 208 750 l 1
 292 750 l 1
 292 708 l 1
 208 708 l 1
208 667 m 1
 208 708 l 1
 292 708 l 1
 292 667 l 1
 208 667 l 1
208 625 m 1
 208 667 l 1
 292 667 l 1
 292 625 l 1
 208 625 l 1
208 583 m 1
 208 625 l 1
 292 625 l 1
 292 583 l 1
 208 583 l 1
208 542 m 1
 208 583 l 1
 292 583 l 1
 292 542 l 1
 208 542 l 1
208 500 m 1
 208 542 l 1
 292 542 l 1
 292 500 l 1
 208 500 l 1
208 458 m 1
 208 500 l 1
 292 500 l 1
 292 458 l 1
 208 458 l 1
208 417 m 1
 208 458 l 1
 292 458 l 1
 292 417 l 1
 208 417 l 1
208 375 m 1
 208 417 l 1
 292 417 l 1
 292 375 l 1
 208 375 l 1
208 333 m 1
 208 375 l 1
 292 375 l 1
 292 333 l 1
 208 333 l 1
208 292 m 1
 208 333 l 1
 292 333 l 1
 292 292 l 1
 208 292 l 1
208 250 m 1
 208 292 l 1
 292 292 l 1
 292 250 l 1
 208 250 l 1
208 208 m 1
 208 250 l 1
 292 250 l 1
 292 208 l 1
 208 208 l 1
208 167 m 1
 208 208 l 1
 292 208 l 1
 292 167 l 1
 208 167 l 1
208 125 m 1
 208 167 l 1
 292 167 l 1
 292 125 l 1
 208 125 l 1
208 83 m 1
 208 125 l 1
 292 125 l 1
 292 83 l 1
 208 83 l 1
208 42 m 1
 208 83 l 1
 292 83 l 1
 292 42 l 1
 208 42 l 1
208 0 m 1
 208 42 l 1
 292 42 l 1
 292 0 l 1
 208 0 l 1
208 -42 m 1
 208 0 l 1
 292 0 l 1
 292 -42 l 1
 208 -42 l 1
208 -83 m 1
 208 -42 l 1
 292 -42 l 1
 292 -83 l 1
 208 -83 l 1
EndSplineSet
EndChar

StartChar: }
Encoding: 125 125 124
Width: 500
Flags: HW
LayerCount: 2
Back
Fore
SplineSet
42 875 m 1
 42 917 l 1
 83 917 l 1
 83 875 l 1
 42 875 l 1
83 833 m 1
 83 875 l 1
 125 875 l 1
 125 833 l 1
 83 833 l 1
83 792 m 1
 83 833 l 1
 125 833 l 1
 125 792 l 1
 83 792 l 1
83 750 m 1
 83 792 l 1
 167 792 l 1
 167 750 l 1
 83 750 l 1
83 708 m 1
 83 750 l 1
 167 750 l 1
 167 708 l 1
 83 708 l 1
83 667 m 1
 83 708 l 1
 167 708 l 1
 167 667 l 1
 83 667 l 1
83 625 m 1
 83 667 l 1
 167 667 l 1
 167 625 l 1
 83 625 l 1
83 583 m 1
 83 625 l 1
 167 625 l 1
 167 583 l 1
 83 583 l 1
83 542 m 1
 83 583 l 1
 167 583 l 1
 167 542 l 1
 83 542 l 1
125 500 m 1
 125 542 l 1
 167 542 l 1
 167 500 l 1
 125 500 l 1
167 458 m 1
 167 500 l 1
 208 500 l 1
 208 458 l 1
 167 458 l 1
208 417 m 1
 208 458 l 1
 250 458 l 1
 250 417 l 1
 208 417 l 1
167 375 m 1
 167 417 l 1
 208 417 l 1
 208 375 l 1
 167 375 l 1
125 333 m 1
 125 375 l 1
 167 375 l 1
 167 333 l 1
 125 333 l 1
83 292 m 1
 83 333 l 1
 167 333 l 1
 167 292 l 1
 83 292 l 1
83 250 m 1
 83 292 l 1
 167 292 l 1
 167 250 l 1
 83 250 l 1
83 208 m 1
 83 250 l 1
 167 250 l 1
 167 208 l 1
 83 208 l 1
83 167 m 1
 83 208 l 1
 167 208 l 1
 167 167 l 1
 83 167 l 1
83 125 m 1
 83 167 l 1
 167 167 l 1
 167 125 l 1
 83 125 l 1
83 83 m 1
 83 125 l 1
 167 125 l 1
 167 83 l 1
 83 83 l 1
83 42 m 1
 83 83 l 1
 167 83 l 1
 167 42 l 1
 83 42 l 1
83 0 m 1
 83 42 l 1
 125 42 l 1
 125 0 l 1
 83 0 l 1
83 -42 m 1
 83 0 l 1
 125 0 l 1
 125 -42 l 1
 83 -42 l 1
42 -83 m 1
 42 -42 l 1
 83 -42 l 1
 83 -83 l 1
 42 -83 l 1
EndSplineSet
EndChar

StartChar: ~
Encoding: 126 126 125
Width: 500
Flags: HW
LayerCount: 2
Back
Fore
SplineSet
83 875 m 1
 83 917 l 1
 208 917 l 1
 208 875 l 1
 83 875 l 1
417 875 m 1
 417 917 l 1
 458 917 l 1
 458 875 l 1
 417 875 l 1
42 833 m 1
 42 875 l 1
 250 875 l 1
 250 833 l 1
 42 833 l 1
375 833 m 1
 375 875 l 1
 458 875 l 1
 458 833 l 1
 375 833 l 1
0 792 m 1
 0 833 l 1
 83 833 l 1
 83 792 l 1
 0 792 l 1
208 792 m 1
 208 833 l 1
 417 833 l 1
 417 792 l 1
 208 792 l 1
542 792 m 1
 542 833 l 1
 667 833 l 1
 667 792 l 1
 542 792 l 1
0 750 m 1
 0 792 l 1
 42 792 l 1
 42 750 l 1
 0 750 l 1
250 750 m 1
 250 792 l 1
 375 792 l 1
 375 750 l 1
 250 750 l 1
EndSplineSet
EndChar

StartChar: C241
Encoding: 161 161 126
Width: 500
Flags: HW
LayerCount: 2
Back
Fore
SplineSet
167 750 m 1
 167 792 l 1
 292 792 l 1
 292 750 l 1
 167 750 l 1
167 708 m 1
 167 750 l 1
 292 750 l 1
 292 708 l 1
 167 708 l 1
167 667 m 1
 167 708 l 1
 292 708 l 1
 292 667 l 1
 167 667 l 1
208 542 m 1
 208 583 l 1
 250 583 l 1
 250 542 l 1
 208 542 l 1
208 500 m 1
 208 542 l 1
 250 542 l 1
 250 500 l 1
 208 500 l 1
208 458 m 1
 208 500 l 1
 250 500 l 1
 250 458 l 1
 208 458 l 1
208 417 m 1
 208 458 l 1
 250 458 l 1
 250 417 l 1
 208 417 l 1
208 375 m 1
 208 417 l 1
 250 417 l 1
 250 375 l 1
 208 375 l 1
167 333 m 1
 167 375 l 1
 292 375 l 1
 292 333 l 1
 167 333 l 1
167 292 m 1
 167 333 l 1
 292 333 l 1
 292 292 l 1
 167 292 l 1
167 250 m 1
 167 292 l 1
 292 292 l 1
 292 250 l 1
 167 250 l 1
167 208 m 1
 167 250 l 1
 292 250 l 1
 292 208 l 1
 167 208 l 1
167 167 m 1
 167 208 l 1
 292 208 l 1
 292 167 l 1
 167 167 l 1
167 125 m 1
 167 167 l 1
 292 167 l 1
 292 125 l 1
 167 125 l 1
167 83 m 1
 167 125 l 1
 292 125 l 1
 292 83 l 1
 167 83 l 1
167 42 m 1
 167 83 l 1
 292 83 l 1
 292 42 l 1
 167 42 l 1
167 0 m 1
 167 42 l 1
 292 42 l 1
 292 0 l 1
 167 0 l 1
EndSplineSet
EndChar

StartChar: C242
Encoding: 162 162 127
Width: 500
Flags: HW
LayerCount: 2
Back
Fore
SplineSet
208 792 m 1
 208 833 l 1
 250 833 l 1
 250 792 l 1
 208 792 l 1
208 750 m 1
 208 792 l 1
 250 792 l 1
 250 750 l 1
 208 750 l 1
125 708 m 1
 125 750 l 1
 333 750 l 1
 333 708 l 1
 125 708 l 1
83 667 m 1
 83 708 l 1
 125 708 l 1
 125 667 l 1
 83 667 l 1
208 667 m 1
 208 708 l 1
 250 708 l 1
 250 667 l 1
 208 667 l 1
333 667 m 1
 333 708 l 1
 375 708 l 1
 375 667 l 1
 333 667 l 1
42 625 m 1
 42 667 l 1
 125 667 l 1
 125 625 l 1
 42 625 l 1
208 625 m 1
 208 667 l 1
 250 667 l 1
 250 625 l 1
 208 625 l 1
375 625 m 1
 375 667 l 1
 417 667 l 1
 417 625 l 1
 375 625 l 1
0 583 m 1
 0 625 l 1
 83 625 l 1
 83 583 l 1
 0 583 l 1
208 583 m 1
 208 625 l 1
 250 625 l 1
 250 583 l 1
 208 583 l 1
375 583 m 1
 375 625 l 1
 458 625 l 1
 458 583 l 1
 375 583 l 1
0 542 m 1
 0 583 l 1
 83 583 l 1
 83 542 l 1
 0 542 l 1
208 542 m 1
 208 583 l 1
 250 583 l 1
 250 542 l 1
 208 542 l 1
375 542 m 1
 375 583 l 1
 458 583 l 1
 458 542 l 1
 375 542 l 1
0 500 m 1
 0 542 l 1
 83 542 l 1
 83 500 l 1
 0 500 l 1
208 500 m 1
 208 542 l 1
 250 542 l 1
 250 500 l 1
 208 500 l 1
375 500 m 1
 375 542 l 1
 458 542 l 1
 458 500 l 1
 375 500 l 1
0 458 m 1
 0 500 l 1
 83 500 l 1
 83 458 l 1
 0 458 l 1
208 458 m 1
 208 500 l 1
 250 500 l 1
 250 458 l 1
 208 458 l 1
0 417 m 1
 0 458 l 1
 83 458 l 1
 83 417 l 1
 0 417 l 1
208 417 m 1
 208 458 l 1
 250 458 l 1
 250 417 l 1
 208 417 l 1
0 375 m 1
 0 417 l 1
 83 417 l 1
 83 375 l 1
 0 375 l 1
208 375 m 1
 208 417 l 1
 250 417 l 1
 250 375 l 1
 208 375 l 1
0 333 m 1
 0 375 l 1
 83 375 l 1
 83 333 l 1
 0 333 l 1
208 333 m 1
 208 375 l 1
 250 375 l 1
 250 333 l 1
 208 333 l 1
0 292 m 1
 0 333 l 1
 83 333 l 1
 83 292 l 1
 0 292 l 1
208 292 m 1
 208 333 l 1
 250 333 l 1
 250 292 l 1
 208 292 l 1
0 250 m 1
 0 292 l 1
 83 292 l 1
 83 250 l 1
 0 250 l 1
208 250 m 1
 208 292 l 1
 250 292 l 1
 250 250 l 1
 208 250 l 1
375 250 m 1
 375 292 l 1
 458 292 l 1
 458 250 l 1
 375 250 l 1
0 208 m 1
 0 250 l 1
 83 250 l 1
 83 208 l 1
 0 208 l 1
208 208 m 1
 208 250 l 1
 250 250 l 1
 250 208 l 1
 208 208 l 1
375 208 m 1
 375 250 l 1
 458 250 l 1
 458 208 l 1
 375 208 l 1
42 167 m 1
 42 208 l 1
 125 208 l 1
 125 167 l 1
 42 167 l 1
208 167 m 1
 208 208 l 1
 250 208 l 1
 250 167 l 1
 208 167 l 1
375 167 m 1
 375 208 l 1
 417 208 l 1
 417 167 l 1
 375 167 l 1
83 125 m 1
 83 167 l 1
 125 167 l 1
 125 125 l 1
 83 125 l 1
208 125 m 1
 208 167 l 1
 250 167 l 1
 250 125 l 1
 208 125 l 1
333 125 m 1
 333 167 l 1
 375 167 l 1
 375 125 l 1
 333 125 l 1
125 83 m 1
 125 125 l 1
 333 125 l 1
 333 83 l 1
 125 83 l 1
208 42 m 1
 208 83 l 1
 250 83 l 1
 250 42 l 1
 208 42 l 1
208 0 m 1
 208 42 l 1
 250 42 l 1
 250 0 l 1
 208 0 l 1
EndSplineSet
EndChar

